<?xml version="1.0" encoding="UTF-8"?><svg xmlns="http://www.w3.org/2000/svg" viewBox="0 0 40 40"><g id="a"/><g id="b"><g><path d="M21.29,36.16l-.25-.15,.13-.04c.1-.03,.17-.12,.17-.22,0-.02,0-.04,0-.04l-.09-.34c-.03-.1-.12-.17-.22-.17,0,0-.03,0-.06,0h0l-.9,.24-.46-.27,.46-.27,.9,.24s.04,0,.06,0c.1,0,.19-.06,.22-.17l.09-.32s0-.04,0-.06c0-.1-.07-.19-.17-.22l-.13-.03,.25-.15c.07-.04,.11-.12,.11-.2,0-.04,0-.08-.03-.11l-.17-.29c-.04-.07-.12-.12-.2-.12-.03,0-.08,0-.12,.04l-.24,.14,.03-.13s0-.04,0-.06c0-.1-.06-.19-.17-.22l-.32-.08s-.03,0-.06,0c-.1,0-.2,.07-.22,.18l-.24,.89-.46,.27v-.49l.66-.65s.06-.11,.06-.16c0-.06-.02-.12-.06-.16l-.24-.24s-.1-.07-.16-.07-.12,.02-.17,.07l-.09,.09v-.33c0-.13-.1-.23-.22-.23h-.33c-.13,0-.23,.1-.23,.23v.33l-.1-.1s-.1-.07-.16-.07c-.06,0-.12,.02-.16,.07l-.23,.23s-.07,.1-.07,.16c0,.03,0,.07,.02,.1-.04-.06-.11-.1-.19-.1-.01,0-.04,0-.08,.01l-.3,.08c-.1,.03-.17,.12-.17,.22,0,.01,0,.04,.01,.07l.03,.12-.29-.17s-.07-.03-.11-.03c-.08,0-.16,.04-.2,.12l-.16,.29s-.03,.07-.03,.11c0,.08,.04,.16,.11,.2l.29,.17-.13,.03c-.1,.03-.17,.12-.17,.22,0,.01,0,.04,0,.06l.09,.32c.03,.1,.12,.17,.22,.17,.02,0,.04,0,.04,0l.91-.24,.43,.25-.43,.25-.89-.24s-.03,0-.06,0c-.1,0-.2,.07-.22,.17l-.09,.32s0,.04,0,.06c0,.1,.07,.19,.17,.22l.13,.04-.29,.17c-.07,.04-.12,.12-.11,.2,0,.03,0,.08,.03,.11l.17,.29c.04,.07,.12,.11,.2,.11,.04,0,.08,0,.11-.03l.29-.17-.03,.13s0,.03,0,.06c0,.1,.07,.19,.17,.22l.32,.09s.04,0,.06,0c.1,0,.19-.07,.22-.17l.24-.89,.43-.25v.54l-.65,.66s-.07,.1-.07,.16,.02,.12,.06,.16l.24,.24s.1,.07,.16,.07c.06,0,.12-.02,.16-.06l.1-.1v.29c0,.13,.1,.23,.23,.23h.33c.12,0,.22-.1,.22-.23v-.29l.1,.1s.1,.07,.16,.07,.12-.02,.16-.06l.24-.24s.07-.1,.07-.16-.02-.12-.06-.16l-.66-.66v-.54l.46,.27,.24,.89c.03,.1,.12,.17,.22,.17,.02,0,.04,0,.04,0l.34-.09c.11-.03,.17-.12,.17-.22,0-.02,0-.04,0-.05l-.04-.14,.25,.15s.08,.03,.11,.03c.08,0,.16-.04,.2-.11l.17-.29s.03-.08,.03-.11c0-.08-.04-.16-.11-.2h0Zm-2.87-1.66l-.43-.25-.24-.89s0-.03-.02-.04c0,.01,.02,.02,.03,.03l.66,.66v.49Z"/><path d="M15.94,27.55s-.01-.09-.04-.14l-.33-.57c-.05-.09-.15-.14-.24-.14-.05,0-.1,.01-.14,.04l-.84,.48,.17-.65s0-.05,0-.07c0-.12-.08-.24-.21-.27l-.63-.17s-.05,0-.07,0c-.12,0-.24,.08-.27,.21l-.49,1.82-1.22,.7v-1.33l1.33-1.33c.06-.05,.08-.13,.08-.2,0-.07-.03-.14-.08-.2l-.46-.46c-.05-.05-.13-.08-.2-.08s-.14,.03-.2,.08l-.47,.47v-1.06c0-.16-.12-.28-.28-.28h-.66c-.15,0-.28,.12-.28,.28v1.06l-.48-.47c-.05-.06-.12-.08-.2-.08s-.14,.03-.2,.08l-.46,.46c-.05,.05-.08,.13-.08,.2s.03,.14,.08,.2l1.33,1.33v1.33l-1.15-.66-.49-1.82c-.03-.12-.14-.21-.27-.21-.02,0-.05,0-.09,.01l-.62,.17c-.12,.03-.21,.14-.21,.27,0,.02,0,.05,.01,.08l.17,.64-.92-.53s-.09-.04-.14-.04c-.09,0-.19,.05-.24,.14l-.33,.57s-.04,.09-.04,.14c0,.09,.05,.19,.14,.24l.92,.53-.65,.17c-.13,.03-.21,.14-.21,.27,0,.02,0,.05,.01,.08l.17,.62c.04,.12,.15,.21,.27,.21,.02,0,.04,0,.06,0l1.83-.49,1.15,.66-1.15,.66-1.82-.49s-.05,0-.07,0c-.12,0-.24,.08-.27,.21l-.17,.63s0,.04,0,.07c0,.12,.08,.24,.21,.27l.65,.17-.92,.53c-.09,.05-.14,.15-.14,.24,0,.04,.01,.1,.04,.14l.33,.57c.05,.09,.15,.14,.24,.14,.05,0,.09-.01,.13-.03l.92-.53-.18,.65s0,.05,0,.07c0,.12,.08,.24,.21,.27l.63,.17s.05,.01,.07,.01c.13,0,.24-.08,.27-.21l.49-1.82,1.15-.66v1.41l-1.33,1.33c-.05,.06-.08,.13-.08,.2s.03,.14,.08,.2l.46,.47c.05,.05,.13,.08,.2,.08,.07,0,.14-.03,.2-.08l.47-.47v.98c0,.16,.12,.28,.28,.28h.66c.16,0,.28-.12,.28-.28v-.98l.47,.47c.05,.05,.12,.08,.2,.08,.07,0,.14-.03,.2-.08l.46-.47c.06-.05,.08-.13,.08-.2s-.03-.14-.08-.2l-1.33-1.33v-1.41l1.22,.71,.49,1.82c.03,.12,.15,.21,.27,.21,.03,0,.05,0,.06,0l.64-.17c.13-.04,.21-.15,.21-.27,0-.02,0-.05,0-.07l-.18-.65,.85,.49s.09,.04,.14,.04c.1,0,.19-.05,.24-.14l.33-.57s.04-.1,.04-.14c0-.09-.05-.19-.14-.24l-.85-.49,.65-.17c.12-.03,.21-.15,.21-.27,0-.03,0-.05,0-.07l-.17-.64c-.03-.12-.15-.21-.27-.21-.02,0-.04,0-.08,.01l-1.81,.49-1.22-.7,1.22-.71,1.82,.49s.05,0,.07,0c.12,0,.23-.08,.27-.2l.17-.64s0-.05,0-.07c0-.12-.08-.24-.21-.27l-.65-.17,.85-.49c.09-.05,.14-.15,.14-.24Z"/><path d="M31.09,31.41l.65-.17c.13-.03,.21-.15,.21-.27,0-.03,0-.05,0-.07l-.17-.64c-.03-.12-.14-.21-.27-.21-.02,0-.05,0-.08,.01l-1.81,.49-1.22-.7,1.22-.71,1.82,.49s.05,0,.07,0c.12,0,.23-.08,.27-.2l.17-.64s0-.05,0-.07c0-.12-.08-.24-.21-.27l-.65-.17,.85-.49c.09-.05,.14-.15,.14-.24,0-.05,0-.09-.04-.14l-.33-.57c-.05-.09-.15-.14-.24-.14-.05,0-.1,.01-.14,.04l-.84,.48,.17-.65s0-.05,0-.07c0-.12-.08-.24-.21-.27l-.63-.17s-.05,0-.07,0c-.12,0-.24,.08-.27,.21l-.49,1.82-1.22,.7v-1.33l1.33-1.33c.06-.05,.08-.13,.08-.2,0-.07-.03-.14-.08-.2l-.46-.46c-.06-.06-.13-.08-.2-.08-.07,0-.14,.03-.2,.08l-.47,.47v-1.06c0-.16-.12-.28-.28-.28h-.66c-.15,0-.28,.12-.28,.28v1.06l-.47-.47c-.05-.06-.12-.08-.2-.08-.07,0-.14,.03-.2,.08l-.46,.46c-.05,.05-.08,.13-.08,.2s.03,.14,.08,.2l1.33,1.33v1.33l-1.15-.66-.49-1.82c-.03-.12-.15-.21-.27-.21-.02,0-.05,0-.09,.01l-.62,.17c-.12,.03-.21,.14-.21,.27,0,.02,0,.05,.01,.08l.17,.64-.92-.53s-.09-.04-.14-.04c-.09,0-.19,.05-.24,.14l-.33,.57s-.04,.09-.04,.14c0,.09,.05,.19,.14,.24l.92,.53-.65,.17c-.13,.03-.21,.14-.21,.27,0,.02,0,.05,.01,.08l.17,.62c.04,.12,.15,.21,.27,.21,.02,0,.04,0,.06,0l1.83-.49,1.15,.66-1.15,.66-1.82-.49s-.05,0-.07,0c-.13,0-.24,.08-.27,.21l-.17,.63s0,.04,0,.07c0,.12,.08,.24,.21,.27l.65,.17-.92,.53c-.09,.05-.14,.15-.14,.24,0,.04,.01,.1,.04,.14l.33,.57c.05,.09,.15,.14,.24,.14,.05,0,.1-.01,.14-.03l.92-.53-.18,.65s0,.05,0,.07c0,.12,.08,.24,.21,.27l.63,.17s.05,.01,.07,.01c.12,0,.24-.08,.27-.21l.49-1.82,1.15-.66v1.41l-1.33,1.33c-.05,.06-.08,.13-.08,.2s.03,.14,.08,.2l.46,.47c.05,.05,.13,.08,.2,.08,.07,0,.14-.03,.2-.08l.47-.47v.98c0,.16,.12,.28,.28,.28h.66c.16,0,.28-.12,.28-.28v-.98l.47,.47c.05,.05,.13,.08,.2,.08,.07,0,.14-.03,.2-.08l.46-.46c.06-.05,.08-.13,.08-.2,0-.07-.03-.14-.08-.2l-1.33-1.33v-1.41l1.22,.71,.49,1.82c.03,.12,.15,.21,.27,.21,.02,0,.05,0,.06,0l.64-.17c.13-.04,.21-.15,.21-.27,0-.02,0-.05,0-.07l-.18-.65,.85,.49s.09,.04,.14,.04c.1,0,.19-.05,.24-.14l.33-.57s.04-.1,.04-.14c0-.09-.05-.19-.14-.24l-.85-.49Z"/><path d="M29.73,16.53c-.57-4.07-4.04-7.21-8.25-7.26-.02,0-.05,0-.1,0-3.71,0-6.86,2.4-7.99,5.73-2.04,.49-3.7,1.92-4.5,3.82-2.83,.15-5.08,2.49-5.08,5.36,0,1.66,.76,3.14,1.94,4.13v-.02c-.2-.19-.32-.46-.32-.74,0-.17,.05-.34,.13-.49l.32-.56c.17-.3,.49-.49,.84-.49,.11,0,.21,.02,.31,.05,.12-.21,.34-.38,.59-.45l.6-.16c.08-.02,.16-.04,.24-.04,.04-.06,.08-.11,.13-.16l.46-.46c.17-.18,.42-.29,.69-.29,.09-.45,.48-.78,.95-.78h.66c.47,0,.87,.34,.96,.78,.25,0,.5,.1,.68,.28l.46,.47s.07,.08,.11,.12c.02,0,.03,0,.05,0,.08,0,.17,.01,.25,.04l.63,.17c.26,.07,.47,.24,.6,.47,.07-.02,.15-.03,.23-.03,.35,0,.67,.19,.84,.49l.33,.57c.09,.15,.13,.32,.13,.49,0,.25-.1,.5-.27,.67,.09,.15,.14,.32,.14,.5,0,.08-.01,.17-.03,.25l-.16,.58h5.62l-.14-.51c-.03-.09-.04-.18-.04-.27,0-.18,.05-.34,.13-.48-.21-.19-.33-.46-.33-.74,0-.16,.04-.33,.13-.48l.33-.57c.17-.3,.49-.49,.84-.49,.11,0,.22,.02,.32,.05,.13-.22,.33-.38,.59-.45l.6-.16c.08-.02,.16-.04,.24-.04,.04-.06,.08-.11,.13-.16l.46-.46c.17-.18,.42-.29,.69-.29,.09-.45,.48-.78,.95-.78h.66c.47,0,.87,.34,.95,.78,.26,0,.5,.1,.68,.28l.46,.46s.07,.08,.11,.12c.02,0,.03,0,.05,0,.08,0,.17,.01,.25,.04l.63,.17c.26,.07,.47,.24,.6,.47,.07-.02,.15-.03,.23-.03,.35,0,.67,.19,.85,.49l.33,.57c.09,.16,.13,.32,.13,.49,0,.25-.1,.5-.27,.67,.05,.08,.08,.17,.11,.27,1.8-1.16,2.99-3.18,2.99-5.48,0-3.38-2.57-6.16-5.87-6.49Z"/><path d="M35.44,11.1C33.1,4.39,26.05,.68,19.29,2.36c3.83,.28,7.36,2.45,9.29,5.88,.1-.05,.21-.1,.33-.14,1.4-.49,2.93,.25,3.41,1.65,.49,1.4-.25,2.93-1.65,3.42-.2,.07-.4,.11-.6,.13,.03,.51,.02,1.02-.02,1.52,.12,.35,.22,.7,.29,1.07,2.29,.41,4.18,1.86,5.2,3.83,.87-2.71,.89-5.72-.11-8.62Z"/></g></g></svg>