<?xml version="1.0" encoding="UTF-8"?><svg xmlns="http://www.w3.org/2000/svg" viewBox="0 0 40 40"><g id="a"/><g id="b"><g><path d="M21.15,13.88s.08,0,.09,0c4.04,.05,7.37,3.06,7.92,6.96,3.16,.32,5.62,2.99,5.62,6.23,0,3.31-2.57,6.02-5.83,6.24v.02H9.1v-.02c-2.68-.18-4.8-2.41-4.8-5.14,0-2.75,2.16-4.99,4.87-5.15,.77-1.82,2.36-3.19,4.31-3.66,1.08-3.19,4.1-5.49,7.66-5.49h0Zm0,.35c-3.32,0-6.27,2.11-7.33,5.26l-.06,.18-.19,.04c-1.82,.44-3.35,1.73-4.08,3.46l-.08,.2h-.22c-2.55,.15-4.54,2.26-4.54,4.81s1.97,4.62,4.48,4.8l.24,.02H28.61l.32-.02c3.09-.21,5.5-2.81,5.5-5.9s-2.28-5.58-5.31-5.89l-.27-.03-.04-.27c-.53-3.75-3.78-6.62-7.58-6.66,0,0-.02,0-.04,0-.01,0-.03,0-.05,0h0Z"/><path d="M23.13,6.66c.8,0,1.46,.66,1.46,1.46v1.19c1.4,.28,2.7,.83,3.84,1.59l.84-.84c.29-.29,.66-.43,1.03-.43h0c.37,0,.75,.14,1.03,.43l-.12,.12,.12-.12,.97,.97c.29,.29,.43,.66,.43,1.03s-.14,.75-.43,1.04l-.84,.84c.76,1.14,1.31,2.44,1.59,3.84h1.19c.8,0,1.46,.66,1.46,1.46v1.37c0,.8-.66,1.46-1.46,1.46h-.88c-.96-.94-2.21-1.6-3.61-1.85-.81-4-4.38-6.99-8.5-7.04-.03,0-.06,0-.1,0-3.64,0-6.89,2.24-8.19,5.61-1.45,.43-2.7,1.33-3.59,2.52-.12-.21-.19-.45-.19-.7v-1.37c0-.81,.66-1.46,1.46-1.46h1.19c.28-1.4,.83-2.69,1.59-3.84l-.84-.84c-.28-.29-.43-.66-.43-1.03s.14-.75,.43-1.03l.97-.97h0c.29-.28,.66-.43,1.03-.43h.01c.37,0,.75,.14,1.03,.43l.84,.84c1.14-.76,2.44-1.31,3.84-1.59v-1.19c0-.81,.66-1.46,1.46-1.46h1.37Zm0,.35h-1.37c-.62,0-1.12,.5-1.12,1.12v1.47l-.28,.06c-1.33,.27-2.58,.79-3.71,1.54l-.24,.16-.2-.2-.84-.84c-.21-.21-.49-.33-.78-.33s-.58,.12-.79,.33l-.97,.97c-.21,.21-.33,.49-.33,.79s.12,.58,.33,.79l.84,.84,.2,.2-.16,.24c-.75,1.13-1.27,2.39-1.54,3.72l-.06,.28h-1.47c-.62,0-1.12,.5-1.12,1.12v1.33c.86-.95,1.96-1.67,3.17-2.07,1.41-3.45,4.71-5.67,8.46-5.67,.03,0,.06,0,.08,0h.03c4.19,.05,7.85,3.02,8.79,7.09,1.3,.27,2.49,.89,3.46,1.8h.74c.61,0,1.12-.5,1.12-1.12v-1.37c0-.62-.5-1.12-1.12-1.12h-1.47l-.06-.28c-.27-1.33-.79-2.58-1.54-3.71l-.16-.24,.2-.2,.84-.84c.21-.21,.33-.49,.33-.79s-.12-.58-.33-.79l-.97-.97c-.21-.21-.49-.33-.79-.33s-.58,.11-.79,.33l-.84,.84-.2,.2-.24-.16c-1.13-.75-2.38-1.27-3.71-1.54l-.28-.06v-1.47c0-.62-.5-1.12-1.12-1.12h0Z"/></g></g></svg>