<?xml version="1.0" encoding="UTF-8"?><svg xmlns="http://www.w3.org/2000/svg" viewBox="0 0 40 40"><g id="a"/><g id="b"><g><path d="M15.42,19.47c-.09-.08-.21-.12-.32-.12-.06,0-.12,0-.18,.02l-5.02,1.35-.43,.11c-.53,.17-1.03,.47-1.44,.88-.71,.71-1.07,1.64-1.07,2.57s.35,1.86,1.07,2.57c.71,.71,1.64,1.07,2.57,1.06h0c.93,0,1.86-.36,2.57-1.06,.42-.41,.71-.91,.88-1.43l.12-.44,1.35-5.02c.02-.06,.02-.12,.02-.18,0-.12-.04-.24-.12-.32h0Zm15.99,1.04c-.08-.08-.2-.12-.32-.12-.06,0-.12,0-.18,.03l-5.03,1.35-.43,.12c-.53,.18-1.03,.47-1.44,.88-.71,.71-1.07,1.64-1.07,2.57s.36,1.86,1.07,2.57c.71,.71,1.64,1.07,2.57,1.07s1.86-.36,2.57-1.07c.42-.41,.71-.91,.88-1.43l.12-.44,1.35-5.02c.02-.06,.03-.12,.03-.18,0-.12-.04-.24-.12-.32h0Z"/><polygon points="20.85 24.39 15.99 24.39 14.14 29.98 17.48 29.98 15.51 36.42 15.76 36.59 22.58 27.34 19.21 27.34 20.85 24.39"/><path d="M30.03,10.67c-.57-4.07-4.04-7.21-8.25-7.26-.02,0-.05,0-.1,0-3.71,0-6.86,2.4-7.99,5.73-2.04,.49-3.7,1.92-4.5,3.82-2.83,.15-5.08,2.49-5.08,5.36,0,1.88,.97,3.53,2.43,4.49,.21-.59,.55-1.13,1.01-1.58,.48-.48,1.06-.83,1.71-1.05h.04l.42-.12,5.02-1.35c.11-.03,.24-.05,.36-.05,.31,0,.6,.12,.82,.33,.21,.21,.33,.5,.33,.82,0,.11-.02,.23-.05,.35l-.95,3.55h7.34c.21-.53,.53-1.02,.95-1.43,.48-.48,1.06-.83,1.71-1.05h.04l.43-.13,5.02-1.35c.1-.03,.23-.05,.36-.05,.32,0,.6,.12,.81,.33,.21,.21,.33,.5,.33,.82,0,.11-.02,.24-.05,.35l-.56,2.09c2.49-.92,4.27-3.3,4.28-6.11,0-3.38-2.57-6.16-5.87-6.49Z"/></g></g></svg>