<?xml version="1.0" encoding="UTF-8"?><svg xmlns="http://www.w3.org/2000/svg" viewBox="0 0 40 40"><g id="a"/><g id="b"><g><path d="M34.24,14.6h-1.19c-.28-1.39-.83-2.69-1.59-3.84l.84-.84c.28-.29,.43-.66,.43-1.03s-.14-.75-.43-1.03l-.97-.97-.12,.12,.12-.12c-.29-.28-.66-.43-1.04-.42-.37,0-.75,.14-1.03,.43l-.84,.84c-1.15-.76-2.44-1.31-3.84-1.59v-1.19c0-.81-.66-1.46-1.46-1.46h-1.37c-.81,0-1.46,.66-1.46,1.46v1.19c-1.4,.28-2.69,.83-3.84,1.59l-.84-.84c-.29-.28-.66-.43-1.04-.43-.37,0-.75,.14-1.03,.43l-.97,.97c-.29,.28-.43,.66-.43,1.03s.14,.75,.43,1.04l.84,.84c-.76,1.15-1.31,2.44-1.59,3.84h-1.19c-.8,0-1.46,.66-1.46,1.46v1.37c0,.26,.07,.5,.19,.7,.89-1.19,2.15-2.09,3.59-2.52,1.31-3.37,4.55-5.61,8.19-5.61,.05,0,.09,0,.12,0,4.11,.05,7.68,3.04,8.49,7.04,1.4,.25,2.64,.91,3.61,1.85h.88c.8,0,1.46-.66,1.46-1.46v-1.37c0-.81-.66-1.46-1.46-1.46Z"/><path d="M29.16,17.66c-.55-3.9-3.87-6.91-7.92-6.96-.02,0-.05,0-.1,0-3.56,0-6.58,2.3-7.66,5.49-1.95,.47-3.54,1.84-4.31,3.66-2.71,.15-4.87,2.39-4.87,5.15,0,1.79,.92,3.36,2.3,4.29,.21-.57,.53-1.09,.97-1.53,.47-.47,1.03-.81,1.66-1.01h.04l.41-.12,4.81-1.29c.11-.03,.23-.05,.35-.05,.31,0,.6,.12,.8,.33,.21,.21,.33,.5,.32,.81,0,.11-.02,.22-.04,.34l-.91,3.41h6.96c.21-.52,.52-1,.93-1.41,.47-.46,1.03-.81,1.66-1.01h.04l.41-.12,4.81-1.29c.11-.03,.23-.05,.35-.05,.31,0,.6,.12,.81,.33,.21,.22,.32,.5,.32,.81,0,.11-.02,.23-.05,.34l-.54,1.99c2.37-.89,4.06-3.17,4.06-5.85,0-3.25-2.47-5.91-5.62-6.23Z"/><path d="M15.16,26.1c-.08-.08-.2-.12-.31-.12-.05,0-.12,0-.17,.03l-4.81,1.29-.41,.11c-.51,.17-.98,.45-1.39,.85-.68,.68-1.02,1.58-1.02,2.47s.34,1.79,1.02,2.47c.68,.68,1.58,1.02,2.47,1.02h0c.89,0,1.79-.34,2.47-1.02,.4-.4,.68-.87,.84-1.37l.11-.42,1.29-4.82c.02-.06,.02-.12,.02-.17,0-.12-.04-.23-.12-.31h0Zm15.33,.99c-.08-.08-.2-.12-.31-.12-.05,0-.11,0-.17,.02l-4.81,1.29-.41,.11c-.51,.17-.99,.45-1.38,.85-.68,.68-1.03,1.58-1.03,2.47s.34,1.79,1.03,2.47c.68,.68,1.58,1.02,2.47,1.02s1.79-.34,2.47-1.02c.4-.4,.68-.87,.85-1.37l.11-.42,1.29-4.81c.02-.06,.02-.12,.02-.17,0-.12-.04-.23-.12-.31h0Zm-10.59,4.5l.12-.12c-.07-.07-.16-.09-.24-.09-.04,0-.08,0-.12,.02l-2.92,.78-.25,.07c-.32,.11-.62,.28-.87,.53-.43,.43-.64,.99-.64,1.55s.22,1.12,.64,1.55c.43,.43,.99,.64,1.55,.64s1.12-.21,1.55-.64c.25-.25,.43-.55,.53-.86l.07-.26,.79-2.92s.02-.08,.02-.12c0-.08-.03-.17-.09-.24l-.12,.12Z"/></g></g></svg>