<?xml version="1.0" encoding="UTF-8"?><svg xmlns="http://www.w3.org/2000/svg" viewBox="0 0 40 40"><g id="a"/><g id="b"><g><path d="M15.38,23.01c-.08-.08-.19-.12-.31-.12-.05,0-.11,0-.17,.02l-4.75,1.28-.4,.11c-.5,.17-.97,.44-1.36,.83-.67,.67-1.01,1.55-1.01,2.43s.34,1.76,1.01,2.43c.67,.67,1.55,1.01,2.43,1.01h0c.88,0,1.76-.34,2.43-1.01,.39-.39,.66-.86,.83-1.35l.11-.42,1.27-4.75c.02-.06,.02-.11,.02-.17,0-.12-.04-.23-.12-.31h0Zm15.12,.98c-.08-.08-.19-.12-.3-.12-.05,0-.11,0-.17,.02l-4.75,1.28-.41,.11c-.5,.16-.97,.44-1.36,.83-.67,.67-1.01,1.55-1.01,2.43s.34,1.76,1.01,2.43c.67,.67,1.55,1.01,2.43,1.01s1.76-.33,2.43-1.01c.39-.39,.67-.86,.83-1.35l.11-.42,1.28-4.75c.02-.06,.02-.11,.02-.17,0-.11-.04-.23-.12-.3h0Z"/><polygon points="20.5 27.67 15.91 27.67 14.16 32.95 17.32 32.95 15.46 39.04 15.69 39.2 22.14 30.46 18.96 30.46 20.5 27.67"/><path d="M29.18,14.7c-.54-3.85-3.81-6.82-7.8-6.86-.02,0-.05,0-.09,0-3.51,0-6.49,2.27-7.55,5.42-1.93,.46-3.5,1.82-4.26,3.61-2.68,.15-4.8,2.36-4.8,5.07,0,1.78,.91,3.34,2.3,4.24,.2-.56,.52-1.07,.95-1.5,.45-.45,1-.79,1.62-.99h.04l.4-.12,4.75-1.28c.11-.03,.22-.05,.34-.05,.3,0,.57,.11,.77,.31s.31,.47,.31,.77c0,.11-.02,.22-.05,.33l-.9,3.36h6.94c.2-.5,.5-.96,.9-1.36,.46-.45,1-.79,1.62-.99h.04l.4-.12,4.75-1.28c.1-.03,.22-.05,.34-.05,.3,0,.57,.11,.77,.31,.2,.2,.31,.47,.31,.77,0,.11-.01,.22-.04,.33l-.53,1.97c2.36-.87,4.04-3.12,4.04-5.78,0-3.2-2.43-5.82-5.55-6.14Z"/><path d="M34.6,9.48C32.38,3.11,25.68-.42,19.26,1.18c3.64,.27,6.99,2.33,8.83,5.59,.1-.05,.2-.1,.31-.14,1.33-.46,2.78,.24,3.25,1.57,.46,1.33-.24,2.78-1.57,3.24-.19,.07-.38,.11-.57,.13,.03,.48,.02,.97-.02,1.44,.11,.33,.21,.67,.28,1.02,2.18,.39,3.97,1.77,4.94,3.64,.82-2.58,.85-5.44-.11-8.19Z"/></g></g></svg>