<?xml version="1.0" encoding="UTF-8"?><svg xmlns="http://www.w3.org/2000/svg" viewBox="0 0 40 40"><g id="a"/><g id="b"><g><path d="M22.55,6.82c5.36,0,10.36,3.35,12.22,8.69,.96,2.75,.93,5.61,.11,8.19-.97-1.87-2.76-3.25-4.94-3.64-.07-.35-.17-.69-.28-1.02,.03-.48,.04-.96,.01-1.44,.19-.02,.38-.06,.57-.13,1.33-.46,2.03-1.92,1.57-3.25-.37-1.05-1.35-1.71-2.41-1.71-.28,0-.56,.05-.84,.14-.11,.04-.21,.09-.31,.13-1.84-3.26-5.2-5.32-8.83-5.59,1.04-.26,2.09-.38,3.12-.38h0Zm0,.35c-.33,0-.67,.01-1,.04,2.85,.75,5.31,2.58,6.86,5.15,.02,0,.04-.01,.05-.02,.31-.11,.63-.16,.95-.16,1.23,0,2.33,.78,2.73,1.94,.26,.73,.21,1.52-.13,2.21-.34,.7-.92,1.22-1.65,1.47-.1,.04-.21,.07-.33,.09,0,.36,0,.73-.02,1.11,.09,.28,.16,.53,.22,.77,1.87,.39,3.48,1.49,4.53,3.06,.6-2.38,.49-4.86-.32-7.21-1.76-5.06-6.54-8.45-11.89-8.45h0Z"/><path d="M21.36,13.72s.08,0,.1,0c4.04,.05,7.37,3.06,7.91,6.96,3.16,.32,5.63,2.99,5.63,6.23s-2.57,6.02-5.83,6.24v.02H9.31v-.02c-2.68-.19-4.8-2.41-4.8-5.14,0-2.75,2.16-4.99,4.87-5.14,.77-1.82,2.36-3.2,4.31-3.66,1.08-3.19,4.11-5.49,7.66-5.49h0Zm0,.35c-3.32,0-6.27,2.11-7.34,5.26l-.06,.18-.19,.04c-1.82,.44-3.35,1.73-4.08,3.46l-.08,.2h-.22c-2.55,.15-4.54,2.26-4.54,4.81s1.97,4.62,4.48,4.8l.24,.02H28.82l.32-.02c3.09-.22,5.51-2.81,5.51-5.9s-2.29-5.58-5.31-5.89l-.27-.03-.04-.27c-.53-3.75-3.78-6.62-7.58-6.66h-.09Z"/></g></g></svg>