<?xml version="1.0" encoding="UTF-8"?><svg xmlns="http://www.w3.org/2000/svg" viewBox="0 0 40 40"><g id="a"/><g id="b"><g><path d="M19.29,28.68c.13,0,.23,.1,.23,.23v.33l.09-.09s.11-.07,.17-.07c.06,0,.12,.03,.16,.07l.24,.24s.07,.1,.07,.16-.02,.11-.07,.16l-.65,.65v.5l.46-.27,.24-.89c.03-.11,.12-.17,.22-.17h0s.05,0,.06,0l.32,.09c.11,.03,.17,.12,.17,.22,0,.02,0,.03,0,.06l-.04,.13,.24-.14s.09-.03,.12-.03h0c.08,0,.15,.04,.19,.11l.17,.29s.03,.07,.03,.11c0,.08-.04,.15-.12,.2l-.25,.15,.13,.04c.1,.03,.17,.12,.17,.22,0,.02,0,.04,0,.06l-.09,.32c-.03,.1-.12,.17-.22,.17-.02,0-.04,0-.06,0l-.89-.24-.46,.27,.46,.27,.89-.24h0s.05,0,.06,0h0c.1,0,.19,.07,.22,.17l.09,.34s0,.02,0,.04c0,.1-.06,.19-.17,.22l-.13,.03,.25,.15h0c.07,.04,.12,.12,.12,.2,0,.04-.01,.08-.03,.11l-.17,.29c-.04,.07-.12,.11-.2,.11h0s-.08,0-.11-.03l-.26-.15,.04,.14s0,.03,0,.05c0,.1-.06,.19-.17,.22l-.34,.09s-.02,0-.04,0c-.1,0-.19-.07-.22-.17l-.24-.89-.46-.27v.54l.66,.66s.07,.1,.07,.16-.02,.11-.07,.16l-.24,.24s-.1,.06-.16,.06c-.05,0-.12-.02-.16-.07l-.1-.09v.29c0,.13-.1,.23-.23,.23h-.33c-.12,0-.22-.1-.23-.23v-.29l-.1,.1s-.1,.06-.16,.06-.12-.02-.16-.07l-.24-.24s-.07-.1-.07-.16c0-.06,.02-.12,.07-.16l.65-.65v-.54l-.43,.25-.24,.9c-.03,.1-.12,.17-.22,.17-.01,0-.03,0-.06,0l-.32-.09c-.1-.03-.17-.12-.17-.22,0-.03,0-.05,0-.06l.04-.13-.29,.17s-.07,.03-.1,.03h0c-.07,0-.15-.04-.2-.11l-.17-.29s-.03-.08-.03-.11c0-.08,.04-.15,.11-.2l.29-.17-.13-.04c-.1-.03-.17-.12-.17-.22,0-.02,0-.04,0-.06l.09-.32c.03-.11,.12-.17,.22-.17,.02,0,.04,0,.06,0l.9,.24,.43-.25-.43-.25-.91,.24s-.02,0-.04,0c-.1,0-.19-.07-.22-.17l-.08-.32s-.01-.05-.01-.06c0-.1,.07-.19,.17-.22l.13-.04-.29-.17c-.07-.04-.11-.12-.11-.2,0-.04,.01-.08,.03-.11l.16-.28c.04-.08,.12-.12,.2-.12h0s.08,.01,.11,.03l.29,.17-.03-.12s-.01-.06-.01-.07c0-.1,.07-.19,.17-.22l.3-.08s.06-.01,.08-.01h0c.07,0,.15,.04,.19,.1-.02-.03-.03-.07-.03-.1,0-.06,.02-.12,.07-.16l.23-.23s.11-.07,.17-.07,.12,.03,.16,.07l.1,.1v-.33c0-.13,.1-.23,.23-.23h.33Zm-.56,2.17v-.49l-.65-.66s-.02-.02-.03-.03c0,.01,.01,.03,.02,.04l.24,.89,.43,.25h0Zm.44-1.82h-.1v1.05l-.59-.59h-.01l-.07,.06,.57,.57,.1,.1v1.24l-.52-.3-.43-.25-.12-.07-.04-.14-.21-.78-.09,.02v.02l.22,.8-.72-.42-.19-.11-.05,.08,.19,.11,.72,.42-.81,.22h-.02l.03,.1,.78-.21,.14-.04,.12,.07,.43,.25,.52,.3-.52,.3-.43,.25-.12,.07-.14-.04-.78-.21-.03,.1h.02l.81,.22-.72,.42-.19,.11,.05,.08,.19-.11,.72-.42-.22,.81v.02l.09,.03,.21-.78,.04-.14,.12-.07,.43-.25,.52-.3v1.28l-.1,.1-.57,.57,.07,.07h.01l.59-.6v1.01h.1v-1.01l.59,.59h.01l.07-.05-.57-.57-.1-.1v-1.28l.52,.3,.46,.27,.12,.07,.04,.14,.21,.78,.09-.02h0l-.22-.83,.73,.42,.15,.09,.05-.08-.15-.09-.72-.42,.81-.22h.02l-.03-.1-.78,.21-.14,.04-.12-.07-.46-.27-.52-.3,.52-.3,.46-.27,.12-.07,.14,.04,.78,.21,.03-.09h-.02l-.81-.22,.73-.42,.15-.09-.05-.08-.15,.09-.72,.42,.21-.81v-.02l-.09-.02-.21,.78-.04,.14-.12,.07-.46,.27-.52,.3v-1.24l.1-.1,.57-.57-.07-.07h-.01l-.59,.6v-1.05h0Z"/><path d="M11.66,20.76c.15,0,.28,.12,.28,.28v1.06l.47-.47c.06-.06,.13-.09,.2-.09s.14,.03,.2,.08l.46,.46c.05,.05,.08,.13,.08,.2s-.03,.14-.08,.2l-1.33,1.33v1.33l1.22-.7,.49-1.82c.03-.13,.15-.21,.27-.21,.03,0,.05,0,.07,0l.63,.17c.13,.03,.21,.15,.21,.27,0,.02,0,.04,0,.07l-.17,.65,.84-.49s.1-.04,.14-.04c.1,0,.19,.05,.24,.14l.33,.57s.04,.09,.04,.14c0,.09-.05,.19-.14,.24l-.85,.49,.65,.17c.12,.03,.21,.15,.21,.27,0,.02,0,.04,0,.07l-.17,.63c-.04,.12-.15,.21-.27,.21-.02,0-.04,0-.07,0l-1.82-.49-1.22,.71,1.22,.7,1.81-.49s.06-.01,.08-.01c.12,0,.24,.08,.27,.21l.17,.64s0,.04,0,.07c0,.12-.08,.24-.21,.27l-.65,.17,.85,.49c.09,.05,.14,.15,.14,.24,0,.04,0,.09-.04,.14l-.33,.57c-.05,.09-.14,.14-.24,.14-.04,0-.1-.01-.14-.04l-.85-.49,.18,.65s0,.04,0,.07c0,.12-.08,.24-.21,.27l-.64,.17s-.04,0-.07,0c-.12,0-.24-.08-.27-.21l-.49-1.82-1.22-.71v1.41l1.33,1.33c.05,.06,.08,.13,.08,.2s-.03,.14-.08,.2l-.47,.47c-.05,.05-.12,.08-.19,.08h0c-.07,0-.14-.03-.2-.08l-.47-.47v.98c0,.15-.12,.28-.28,.28h-.66c-.16,0-.28-.12-.28-.28v-.98l-.47,.47c-.05,.05-.12,.08-.2,.08h0c-.07,0-.14-.03-.19-.08l-.47-.46c-.05-.05-.08-.13-.08-.2s.03-.14,.08-.2l1.34-1.33v-1.41l-1.15,.67-.49,1.82c-.04,.12-.15,.21-.27,.21-.02,0-.04,0-.07,0l-.63-.17c-.12-.03-.21-.14-.21-.27,0-.03,0-.05,0-.07l.17-.65-.92,.53s-.09,.04-.14,.04c-.09,0-.19-.05-.24-.14l-.33-.57s-.04-.1-.04-.14c0-.1,.05-.19,.14-.24l.92-.53-.65-.17c-.12-.03-.21-.15-.21-.27,0-.03,0-.05,0-.07l.17-.63c.04-.13,.15-.21,.27-.21,.03,0,.05,0,.07,0l1.82,.49,1.15-.66-1.15-.67-1.83,.49s-.04,0-.06,0c-.12,0-.24-.08-.27-.21l-.17-.62s-.01-.06-.01-.08c0-.13,.08-.23,.21-.27l.65-.17-.92-.53c-.09-.05-.14-.14-.14-.24,0-.05,.01-.1,.04-.14l.33-.56c.05-.09,.15-.14,.24-.14h0s.1,.01,.14,.04l.92,.53-.17-.64s-.01-.06-.01-.08c0-.13,.08-.24,.21-.27l.62-.17s.06-.01,.09-.01c.12,0,.24,.08,.27,.21l.49,1.82,1.15,.66v-1.33l-1.34-1.33c-.05-.05-.08-.13-.08-.2s.03-.14,.08-.2l.46-.46c.05-.06,.13-.09,.2-.09s.15,.03,.2,.08l.47,.47v-1.06c0-.15,.12-.28,.28-.28h.66Zm-.07,.35h-.52v1.83l-.59-.59-.43-.43-.37,.37,1.29,1.29,.1,.1v2.07l-.52-.3-1.15-.66-.12-.07-.04-.14-.47-1.75-.51,.13,.16,.58,.22,.81-.72-.42-.86-.5-.26,.45,.86,.5,.73,.42-.81,.22-.58,.16,.13,.5,1.76-.47,.14-.04,.13,.07,1.15,.66,.52,.3-.52,.3-1.15,.66-.13,.07-.14-.04-1.76-.47-.13,.5,.58,.16,.81,.22-.72,.42-.86,.5,.26,.45,.86-.49,.72-.42-.22,.81-.16,.58,.51,.13,.47-1.76,.04-.14,.12-.07,1.15-.67,.52-.3v2.16l-.1,.1-1.29,1.29,.37,.37,.43-.43,.59-.59v1.75h.53v-1.75l.59,.59,.43,.43,.37-.37-1.29-1.29-.1-.1v-2.16l.52,.3,1.22,.7,.12,.07,.04,.14,.47,1.76,.51-.13-.16-.58-.22-.81,.73,.42,.79,.45,.26-.45-.79-.45-.72-.42,.81-.22,.58-.16-.13-.5-1.76,.47-.14,.04-.12-.07-1.22-.7-.52-.3,.52-.3,1.22-.7,.12-.07,.14,.04,1.76,.47,.13-.5-.58-.16-.81-.22,.72-.42,.79-.46-.26-.45-.79,.46-.72,.42,.22-.81,.16-.58-.51-.13-.47,1.76-.04,.14-.12,.07-1.22,.7-.52,.3v-2.07l.1-.1,1.29-1.29-.37-.37-.43,.43-.59,.59v-1.83h0Z"/><path d="M27.79,20.76c.15,0,.28,.12,.28,.28v1.06l.47-.47c.05-.06,.13-.09,.2-.09s.14,.03,.2,.08l.46,.46c.06,.05,.08,.13,.08,.2s-.03,.14-.08,.2l-1.33,1.33v1.33l1.22-.7,.49-1.82c.04-.13,.15-.21,.27-.21,.03,0,.05,0,.07,0l.63,.17c.13,.03,.21,.15,.21,.27,0,.02,0,.04,0,.07l-.18,.65,.84-.49s.1-.04,.14-.04c.1,0,.19,.05,.24,.14l.33,.57s.04,.09,.04,.14c0,.09-.05,.19-.14,.24l-.85,.49,.65,.17c.12,.03,.2,.14,.2,.27,0,.02,0,.04,0,.07l-.17,.63c-.04,.12-.14,.21-.27,.21-.02,0-.05,0-.07,0l-1.82-.49-1.22,.71,1.22,.7,1.81-.49s.06-.01,.08-.01c.13,0,.24,.08,.27,.21l.17,.64s0,.04,0,.07c0,.12-.08,.24-.2,.27l-.65,.17,.85,.49c.09,.05,.14,.15,.14,.24,0,.04-.01,.09-.04,.14l-.33,.57c-.05,.09-.14,.14-.24,.14-.04,0-.09-.01-.14-.04l-.85-.49,.18,.65s0,.04,0,.07c0,.12-.08,.24-.21,.27l-.64,.17s-.04,0-.07,0c-.12,0-.23-.08-.27-.21l-.49-1.82-1.22-.71v1.41l1.33,1.33c.06,.06,.08,.13,.08,.2s-.03,.14-.08,.2l-.46,.47c-.05,.05-.12,.08-.2,.08h0c-.07,0-.14-.03-.2-.08l-.47-.47v.98c0,.15-.12,.28-.28,.28h-.66c-.15,0-.28-.12-.28-.28v-.98l-.48,.47c-.05,.05-.12,.08-.2,.08h0c-.07,0-.14-.03-.19-.08l-.46-.46c-.05-.05-.08-.13-.08-.2s.03-.14,.08-.2l1.33-1.33v-1.41l-1.15,.67-.49,1.82c-.04,.12-.14,.21-.27,.21-.02,0-.04,0-.07,0l-.63-.17c-.12-.03-.21-.15-.21-.27,0-.03,0-.05,0-.07l.17-.65-.92,.53s-.09,.04-.14,.04c-.09,0-.19-.05-.24-.14l-.33-.57s-.04-.1-.04-.14c0-.1,.05-.19,.14-.24l.92-.53-.65-.17c-.12-.03-.21-.15-.21-.27,0-.03,0-.05,0-.07l.17-.63c.04-.13,.15-.21,.27-.21,.03,0,.05,0,.07,0l1.82,.49,1.15-.66-1.15-.67-1.83,.49s-.04,0-.07,0c-.12,0-.23-.08-.27-.21l-.17-.62s-.01-.06-.01-.08c0-.13,.08-.23,.21-.27l.65-.17-.92-.53c-.09-.05-.14-.14-.14-.24,0-.05,0-.1,.04-.14l.33-.56c.05-.09,.15-.14,.24-.14h0s.1,.01,.14,.04l.92,.53-.17-.64s-.01-.06-.01-.08c0-.13,.08-.24,.21-.27l.62-.17s.07-.01,.09-.01c.13,0,.24,.08,.27,.21l.49,1.82,1.15,.66v-1.33l-1.33-1.33c-.05-.05-.08-.13-.08-.2s.03-.14,.08-.2l.46-.46c.06-.06,.13-.09,.2-.09s.14,.03,.2,.08l.48,.47v-1.06c0-.15,.12-.28,.28-.28h.66Zm-.07,.35h-.52v1.83l-.59-.59-.43-.43-.37,.37,1.29,1.29,.1,.1v2.07l-.52-.3-1.15-.66-.12-.07-.04-.14-.47-1.75-.51,.13,.16,.58,.21,.81-.72-.42-.86-.5-.26,.45,.86,.5,.73,.42-.81,.22-.58,.16,.14,.5,1.76-.47,.14-.04,.12,.07,1.15,.66,.52,.3-.52,.3-1.15,.66-.12,.07-.14-.04-1.76-.47-.14,.51,.58,.16,.81,.22-.73,.42-.86,.5,.26,.45,.86-.5,.72-.42-.21,.81-.16,.58,.51,.13,.47-1.76,.04-.14,.12-.07,1.15-.67,.52-.3v2.15l-.1,.1-1.29,1.29,.37,.37,.43-.43,.59-.59v1.75h.52v-1.75l.59,.59,.43,.43,.37-.37-1.29-1.29-.1-.1v-2.15l.52,.3,1.22,.71,.12,.07,.04,.14,.47,1.76,.51-.13-.16-.58-.22-.81,.73,.42,.79,.45,.26-.45-.79-.45-.72-.42,.81-.22,.58-.16-.14-.5-1.76,.47-.14,.04-.13-.07-1.22-.7-.52-.3,.52-.3,1.22-.7,.13-.07,.14,.04,1.76,.47,.14-.5-.58-.16-.81-.22,.72-.42,.79-.45-.26-.45-.79,.46-.73,.42,.22-.81,.16-.58-.51-.13-.47,1.76-.04,.14-.12,.07-1.22,.7-.52,.3v-2.07l.1-.1,1.29-1.29-.37-.37-.43,.43-.59,.59v-1.83h0Z"/><path d="M21.68,5.61s.08,0,.1,0c4.22,.05,7.69,3.19,8.26,7.26,3.29,.33,5.87,3.11,5.87,6.49,0,2.3-1.19,4.32-2.99,5.48-.02-.1-.06-.19-.11-.27,.17-.18,.27-.42,.27-.67,0-.17-.04-.33-.13-.49l-.33-.57c-.17-.3-.49-.48-.84-.48-.08,0-.16,0-.23,.03-.12-.23-.34-.4-.6-.47l-.63-.17c-.09-.02-.17-.04-.25-.04-.02,0-.03,0-.05,0-.03-.04-.07-.08-.11-.12l-.46-.46c-.18-.18-.43-.28-.68-.28-.09-.44-.48-.78-.95-.78h-.66c-.47,0-.86,.34-.95,.78-.26,0-.52,.11-.69,.29l-.46,.46c-.05,.05-.1,.1-.13,.16-.08,0-.16,.02-.24,.04l-.6,.16c-.25,.07-.46,.23-.59,.45-.1-.03-.21-.05-.31-.05-.35,0-.67,.19-.84,.49l-.33,.57c-.09,.15-.13,.32-.13,.48,0,.28,.12,.55,.33,.74-.08,.14-.12,.31-.13,.49,0,.09,.01,.19,.04,.27l.13,.51h-5.62l.15-.58c.02-.08,.03-.16,.03-.25,0-.18-.05-.35-.14-.5,.17-.18,.27-.42,.27-.67,0-.17-.04-.33-.13-.49l-.33-.57c-.17-.3-.5-.48-.84-.48-.08,0-.16,0-.23,.03-.12-.23-.34-.4-.6-.47l-.63-.17c-.08-.02-.17-.04-.25-.04-.02,0-.03,0-.05,0-.03-.04-.07-.08-.11-.12l-.46-.47c-.18-.18-.43-.28-.68-.28-.09-.44-.48-.78-.96-.78h-.66c-.47,0-.86,.34-.95,.78-.27,0-.52,.11-.69,.29l-.46,.46c-.05,.05-.09,.1-.13,.16-.08,0-.16,.02-.24,.04l-.6,.16c-.26,.07-.46,.24-.59,.45-.1-.03-.21-.05-.31-.05-.35,0-.68,.19-.84,.49l-.32,.56c-.09,.15-.13,.32-.13,.49,0,.28,.12,.55,.33,.74,0,0,0,.01,0,.02-1.19-.98-1.94-2.47-1.94-4.13,0-2.87,2.25-5.21,5.08-5.36,.8-1.9,2.46-3.33,4.5-3.82,1.13-3.33,4.28-5.73,7.99-5.73h0Zm0,.35c-3.47,0-6.55,2.21-7.66,5.49l-.06,.18-.19,.04c-1.91,.45-3.5,1.81-4.26,3.62l-.09,.2h-.21c-2.66,.16-4.75,2.36-4.75,5.03,0,1.09,.35,2.13,.99,2.99,.03-.1,.07-.19,.12-.27l.32-.56c.23-.41,.67-.66,1.14-.66,.06,0,.11,0,.17,0,.17-.19,.4-.33,.65-.4l.6-.16s.09-.02,.14-.03c.02-.03,.05-.05,.07-.08l.46-.46c.18-.18,.41-.31,.67-.36,.2-.48,.67-.81,1.21-.81h.66c.54,0,1.02,.33,1.22,.81,.25,.05,.48,.17,.67,.35l.46,.47,.03,.03c.08,0,.15,.02,.23,.04l.63,.17c.26,.07,.5,.22,.67,.43,.02,0,.05,0,.07,0,.47,0,.91,.25,1.14,.66l.33,.57c.12,.21,.18,.43,.18,.66,0,.25-.07,.51-.21,.72,.05,.15,.08,.3,.08,.46,0,.11-.02,.22-.04,.33l-.04,.14h4.71l-.02-.07c-.03-.11-.05-.24-.05-.36,0-.14,.02-.29,.07-.42-.18-.23-.27-.52-.27-.81,0-.21,.06-.45,.18-.65l.33-.57c.23-.41,.67-.66,1.14-.66,.06,0,.11,0,.17,0,.17-.19,.39-.33,.64-.4l.6-.16s.09-.02,.14-.03c.03-.03,.05-.05,.08-.08l.46-.46c.17-.18,.41-.31,.67-.36,.2-.48,.68-.81,1.21-.81h.66c.54,0,1.01,.33,1.22,.81,.25,.05,.48,.17,.66,.36l.47,.47,.03,.03c.08,0,.15,.02,.23,.04l.63,.17c.26,.07,.5,.22,.67,.43,.02,0,.04,0,.07,0,.47,0,.91,.25,1.14,.66l.33,.57c.12,.21,.18,.43,.18,.66,0,.05,0,.09,0,.14,1.36-1.16,2.14-2.86,2.14-4.67,0-3.19-2.39-5.83-5.56-6.15l-.27-.03-.04-.27c-.55-3.92-3.95-6.91-7.91-6.96h-.04s-.03,0-.06,0h0Z"/></g></g></svg>