<?xml version="1.0" encoding="UTF-8"?><svg xmlns="http://www.w3.org/2000/svg" viewBox="0 0 40 40"><g id="a"/><g id="b"><g><path d="M8.15,26.42h11.53c.29,0,.53-.24,.53-.53v-.77c0-.29-.24-.53-.53-.53H8.15c-.29,0-.53,.24-.53,.53v.77c0,.29,.24,.53,.53,.53Zm11.53,6.71H8.15c-.29,0-.53,.24-.53,.53v.77c0,.29,.24,.53,.53,.53h11.53c.29,0,.53-.24,.53-.53v-.77c0-.29-.24-.53-.53-.53Zm-5.95-3.79v.77c0,.29,.24,.53,.53,.53h7.57c.29,0,.53-.24,.53-.53v-.77c0-.29-.24-.53-.53-.53h-7.57c-.29,0-.53,.24-.53,.53Zm16.28,8.02c-.17-.32-.23-.76-.35-1.6l-.17,.02,.17-.03c-.23-1.63-.9-2.54-1.15-2.83-.96-.97-1.92-1.3-2.75-1.3-1.27,0-2.24,.73-2.54,.96-1.09-.44-1.93-.52-2.39-.52-.23,0-.37,.02-.38,.02-.02,0-.04,0-.08,.02-.05,.02-.14,.1-.13,.2,0,.01,0,.04,0,.06,.01,.14,.2,.22,.27,.2,.02,0,.04,0,.04,0,.13,0,.24-.02,.36-.02,.88,0,1.69,.31,2.04,.46-.26,.6-.27,1-.28,1.2v.07c.02,2.25,2.46,2.64,2.69,2.69,.8,.12,4.17,.55,4.44,.62l.38,.1-.18-.35Z"/><path d="M29.74,16.93c-.57-4.07-4.04-7.21-8.25-7.26-.02,0-.05,0-.1,0-3.71,0-6.86,2.4-7.99,5.73-2.04,.48-3.71,1.92-4.5,3.82-2.83,.15-5.08,2.49-5.08,5.36s2.21,5.17,5.01,5.36v.02h4.21v-.61c0-.67,.55-1.22,1.22-1.22h7.57c.67,0,1.22,.55,1.22,1.22v.61h6.48v-.02c3.4-.23,6.08-3.05,6.08-6.51s-2.58-6.16-5.87-6.49Zm-8.83,8.96c0,.67-.55,1.22-1.22,1.23H8.15c-.67,0-1.22-.55-1.22-1.22v-.78c0-.67,.55-1.22,1.22-1.23h11.54c.67,0,1.22,.55,1.22,1.22v.77Z"/><path d="M35.42,11.43C33.08,4.72,26.03,1,19.27,2.69c3.83,.28,7.36,2.45,9.29,5.89,.11-.05,.21-.1,.33-.14,1.4-.49,2.93,.25,3.42,1.65,.49,1.4-.25,2.93-1.65,3.42-.2,.07-.4,.11-.6,.13,.03,.51,.02,1.02-.01,1.52,.12,.35,.22,.71,.3,1.07,2.29,.41,4.17,1.86,5.2,3.83,.87-2.71,.89-5.72-.12-8.62Z"/></g></g></svg>