<?xml version="1.0" encoding="UTF-8"?><svg xmlns="http://www.w3.org/2000/svg" viewBox="0 0 40 40"><g id="a"/><g id="b"><g><path d="M15.69,31.89h7.57c.29,0,.53,.24,.53,.53v.77c0,.29-.24,.53-.53,.53h-7.57c-.29,0-.53-.24-.53-.53v-.78c0-.29,.24-.53,.53-.53Z"/><path d="M16.24,24.56s-.01-.09-.04-.14l-.33-.57c-.05-.09-.14-.14-.24-.14-.04,0-.1,.01-.14,.04l-.84,.48,.17-.65s0-.05,0-.07c0-.12-.08-.24-.21-.27l-.63-.17s-.05,0-.07,0c-.12,0-.24,.08-.27,.21l-.49,1.82-1.22,.7v-1.33l1.33-1.33c.05-.05,.08-.13,.08-.2s-.03-.14-.08-.2l-.46-.46c-.05-.05-.13-.08-.2-.08s-.14,.03-.2,.08l-.47,.47v-1.06c0-.15-.12-.28-.28-.28h-.66c-.15,0-.28,.12-.28,.28v1.06l-.47-.47c-.05-.05-.13-.08-.2-.08s-.14,.03-.2,.08l-.46,.46c-.05,.06-.08,.13-.08,.2s.03,.14,.08,.2l1.34,1.33v1.33l-1.15-.66-.49-1.82c-.03-.12-.14-.21-.27-.21-.02,0-.05,0-.09,.01l-.62,.16c-.12,.03-.21,.14-.21,.27,0,.02,0,.05,.01,.08l.17,.64-.92-.53s-.09-.04-.14-.04c-.09,0-.19,.05-.24,.14l-.32,.57s-.04,.09-.04,.14c0,.1,.05,.19,.14,.24l.92,.53-.65,.17c-.12,.04-.21,.15-.21,.27,0,.02,0,.05,.01,.08l.17,.62c.04,.12,.15,.21,.27,.21,.03,0,.05,0,.07,0l1.83-.49,1.15,.66-1.15,.66-1.82-.49s-.05-.01-.07-.01c-.12,0-.24,.08-.27,.21l-.17,.63s0,.05,0,.07c0,.12,.08,.23,.21,.27l.65,.17-.92,.53c-.09,.05-.14,.15-.14,.24,0,.04,0,.09,.04,.14l.33,.57c.05,.09,.15,.14,.24,.14,.05,0,.1-.01,.14-.03l.92-.53-.17,.65s0,.05,0,.07c0,.12,.08,.24,.21,.27l.63,.17s.05,0,.07,0c.12,0,.24-.08,.27-.21l.49-1.82,1.15-.66v1.41l-1.34,1.33c-.05,.05-.08,.13-.08,.2s.03,.14,.08,.2l.46,.47c.05,.05,.13,.08,.2,.08s.14-.03,.2-.08l.47-.47v.98c0,.16,.12,.28,.28,.28h.66c.16,0,.28-.12,.28-.28v-.98l.47,.48c.05,.05,.13,.08,.2,.08s.14-.03,.2-.08l.47-.47c.05-.05,.08-.13,.08-.2s-.03-.14-.08-.2l-1.33-1.33v-1.41l1.22,.71,.49,1.82c.03,.12,.15,.21,.27,.21,.03,0,.05,0,.07,0l.64-.17c.13-.04,.21-.15,.21-.27,0-.02,0-.05,0-.07l-.18-.65,.85,.49s.09,.04,.14,.04c.1,0,.19-.05,.24-.14l.33-.57s.04-.09,.04-.14c0-.1-.05-.19-.14-.24l-.85-.49,.65-.17c.12-.03,.21-.15,.21-.27,0-.03,0-.05,0-.07l-.17-.64c-.04-.12-.15-.21-.27-.21-.02,0-.05,0-.08,.01l-1.81,.48-1.22-.7,1.22-.71,1.82,.49s.05,0,.07,0c.12,0,.23-.08,.27-.2l.17-.64s0-.05,0-.07c0-.12-.08-.24-.21-.27l-.65-.17,.85-.49c.09-.05,.14-.15,.14-.24Z"/><path d="M31.39,28.43l.65-.17c.12-.03,.21-.15,.21-.27,0-.03,0-.05,0-.07l-.17-.64c-.04-.12-.14-.21-.27-.21-.02,0-.05,0-.08,.01l-1.81,.48-1.22-.7,1.22-.71,1.82,.49s.05,0,.07,0c.13,0,.24-.08,.27-.2l.17-.64s0-.05,0-.07c0-.12-.08-.24-.21-.27l-.65-.17,.85-.49c.09-.05,.14-.15,.14-.24,0-.05-.01-.09-.04-.14l-.33-.57c-.05-.09-.14-.14-.24-.14-.05,0-.1,.01-.14,.04l-.84,.48,.18-.65s0-.05,0-.07c0-.12-.08-.24-.21-.27l-.63-.17s-.05,0-.07,0c-.12,0-.23,.08-.27,.21l-.49,1.82-1.22,.7v-1.33l1.33-1.33c.06-.05,.08-.13,.08-.2s-.03-.14-.08-.2l-.46-.46c-.05-.05-.12-.08-.2-.08s-.15,.03-.2,.08l-.47,.47v-1.06c0-.15-.13-.28-.28-.28h-.66c-.15,0-.28,.12-.28,.28v1.06l-.47-.47c-.05-.05-.13-.08-.2-.08s-.14,.03-.2,.08l-.46,.46c-.05,.06-.08,.13-.08,.2s.03,.14,.08,.2l1.33,1.33v1.33l-1.15-.66-.49-1.82c-.04-.12-.14-.21-.27-.21-.02,0-.05,0-.09,.01l-.62,.16c-.12,.03-.21,.14-.21,.27,0,.02,0,.05,.01,.08l.17,.64-.92-.53s-.09-.04-.14-.04c-.09,0-.19,.05-.24,.14l-.33,.57s-.04,.09-.04,.14c0,.1,.05,.19,.14,.24l.92,.53-.65,.17c-.12,.04-.21,.15-.21,.27,0,.02,0,.05,.01,.08l.17,.62c.04,.12,.14,.21,.27,.21,.03,0,.05,0,.07,0l1.83-.49,1.15,.66-1.15,.66-1.82-.49s-.05-.01-.07-.01c-.12,0-.23,.08-.27,.21l-.17,.63s0,.05,0,.07c0,.12,.08,.23,.21,.27l.65,.17-.92,.53c-.09,.05-.14,.15-.14,.24,0,.04,0,.09,.04,.14l.33,.57c.05,.09,.15,.14,.24,.14,.05,0,.1-.01,.13-.03l.92-.53-.17,.65s0,.05,0,.07c0,.12,.08,.24,.21,.27l.63,.17s.05,0,.07,0c.13,0,.24-.08,.27-.21l.49-1.82,1.15-.66v1.41l-1.33,1.33c-.05,.05-.08,.13-.08,.2s.03,.14,.08,.2l.46,.47c.05,.05,.13,.08,.2,.08s.14-.03,.2-.08l.47-.47v.98c0,.16,.12,.28,.28,.28h.66c.16,0,.28-.12,.28-.28v-.98l.47,.48c.05,.05,.13,.08,.2,.08s.14-.03,.2-.08l.46-.47c.05-.05,.08-.13,.08-.2s-.03-.14-.08-.2l-1.33-1.33v-1.41l1.22,.71,.49,1.82c.04,.12,.15,.21,.27,.21,.03,0,.05,0,.07,0l.64-.17c.13-.04,.2-.15,.2-.27,0-.02,0-.05,0-.07l-.18-.65,.85,.49s.09,.04,.14,.04c.1,0,.19-.05,.24-.14l.33-.57s.04-.09,.04-.14c0-.1-.05-.19-.14-.24l-.85-.49Z"/><path d="M30.03,13.54c-.57-4.07-4.04-7.21-8.25-7.26-.02,0-.05,0-.1,0-3.71,0-6.86,2.4-7.99,5.73-2.04,.49-3.7,1.92-4.5,3.82-2.83,.16-5.08,2.49-5.08,5.36,0,1.66,.76,3.14,1.94,4.13,0,0,0-.01,0-.02-.21-.19-.33-.46-.33-.74,0-.17,.04-.34,.13-.49l.32-.56c.17-.3,.49-.49,.84-.49,.11,0,.21,.02,.31,.05,.12-.21,.33-.38,.59-.45l.6-.16c.08-.02,.16-.04,.24-.04,.04-.06,.08-.11,.13-.16l.46-.46c.17-.18,.42-.29,.69-.29,.09-.44,.48-.78,.95-.78h.66c.47,0,.87,.34,.95,.78,.25,0,.5,.1,.68,.28l.46,.46s.07,.08,.11,.12c.02,0,.04,0,.05,0,.08,0,.17,.01,.25,.03l.63,.17c.26,.07,.47,.24,.6,.47,.07-.02,.15-.03,.23-.03,.35,0,.67,.19,.84,.49l.33,.57c.09,.15,.13,.32,.13,.49,0,.25-.1,.5-.27,.68,.09,.15,.14,.32,.14,.5,0,.08,0,.17-.03,.25l-.15,.58h5.62l-.13-.51c-.03-.09-.04-.18-.04-.27,0-.18,.05-.34,.13-.48-.21-.19-.33-.46-.33-.74,0-.16,.04-.33,.13-.48l.33-.57c.17-.3,.49-.49,.84-.49,.11,0,.21,.02,.31,.05,.13-.22,.33-.38,.59-.45l.6-.16c.08-.02,.16-.04,.24-.04,.04-.06,.08-.11,.13-.16l.46-.46c.17-.18,.42-.29,.69-.29,.09-.44,.48-.78,.95-.78h.66c.47,0,.87,.34,.95,.78,.26,0,.5,.1,.69,.28l.46,.46s.07,.08,.11,.12c.02,0,.03,0,.05,0,.08,0,.17,.01,.25,.03l.63,.17c.26,.07,.47,.24,.6,.47,.07-.02,.15-.03,.23-.03,.35,0,.67,.19,.84,.49l.33,.57c.09,.15,.13,.32,.13,.49,0,.25-.1,.5-.27,.68,.05,.08,.08,.18,.11,.27,1.8-1.16,2.99-3.18,2.99-5.48,0-3.38-2.57-6.16-5.87-6.49Z"/></g></g></svg>