<?xml version="1.0" encoding="UTF-8"?><svg xmlns="http://www.w3.org/2000/svg" viewBox="0 0 40 40"><g id="a"/><g id="b"><path d="M20,4.49c1.49,0,2.71,1.21,2.71,2.71v15.76c1.85,1.22,3.07,3.32,3.07,5.7,0,3.78-3.06,6.84-6.84,6.84s-6.84-3.06-6.84-6.84c0-2.38,1.22-4.48,3.07-5.7V7.2c0-1.49,1.22-2.71,2.71-2.71h2.14Zm-3.65,12.01h5.17V7.2c0-.83-.68-1.51-1.52-1.52h-2.14c-.83,0-1.51,.68-1.52,1.52v9.3h0Zm2.58,17.14c2.75,0,4.97-2.23,4.98-4.98,0-2.75-2.23-4.97-4.98-4.98-2.75,0-4.97,2.23-4.98,4.98,0,2.75,2.23,4.97,4.98,4.98h0ZM27.51,6.36h0c.22,0,.39,.18,.39,.4v1.28c0,.22-.18,.4-.39,.4h-3.28c-.22,0-.4-.18-.4-.4v-1.28c0-.22,.18-.4,.4-.4h3.28Zm-1.61,4.58c.22,0,.4,.18,.4,.4v1.28c0,.22-.18,.39-.4,.39h-1.67c-.22,0-.4-.18-.4-.39v-1.28c0-.22,.18-.4,.4-.4h1.67Zm0,4.58c.22,0,.4,.18,.4,.4v1.28c0,.22-.18,.39-.4,.4h-1.67c-.22,0-.4-.18-.4-.4v-1.28c0-.22,.18-.4,.4-.4h1.67Zm1.61,4.58c.22,0,.39,.18,.39,.4v1.28c0,.22-.18,.39-.39,.39h-3.28c-.22,0-.4-.18-.4-.39v-1.28c0-.22,.18-.4,.4-.4h3.28Zm-7.51-15.25h-2.14c-1.3,0-2.36,1.06-2.36,2.36v15.95l-.15,.1c-1.82,1.21-2.91,3.23-2.91,5.41,0,3.58,2.91,6.5,6.5,6.5s6.5-2.91,6.5-6.5c0-2.18-1.09-4.2-2.91-5.41l-.16-.1V7.2c0-1.3-1.06-2.36-2.36-2.36h0Zm-4,12.01V7.2c0-1.03,.84-1.86,1.86-1.86h2.14c1.03,0,1.86,.84,1.86,1.86v9.65h-5.86Zm2.93,17.14c-2.93,0-5.32-2.39-5.32-5.32,0-2.93,2.39-5.32,5.32-5.32,2.93,0,5.32,2.39,5.32,5.32,0,2.93-2.39,5.32-5.32,5.32h0ZM27.51,6.7h-3.28s-.05,.02-.05,.05v1.28s.02,.05,.05,.05h3.28s.05-.02,.05-.05v-1.28s-.02-.05-.05-.05h0Zm-1.61,4.58h-1.67s-.05,.02-.05,.05v1.28s.02,.05,.05,.05h1.67s.05-.02,.05-.05v-1.28s-.02-.05-.05-.05h0Zm0,4.58h-1.67s-.05,.02-.05,.05v1.28s.02,.05,.05,.05h1.67s.05-.02,.05-.05v-1.28s-.02-.05-.05-.05h0Zm1.61,4.58h-3.28s-.05,.02-.05,.05v1.28s.02,.05,.05,.05h3.28s.05-.02,.05-.05v-1.28s-.02-.05-.05-.05h0Z"/></g></svg>