<?xml version="1.0" encoding="UTF-8"?><svg xmlns="http://www.w3.org/2000/svg" viewBox="0 0 40 40"><g id="a"/><g id="b"><g><path d="M15.12,25.19c-.08-.08-.2-.12-.32-.12-.06,0-.12,0-.18,.03l-5.02,1.35-.43,.11c-.53,.17-1.03,.47-1.44,.88-.71,.71-1.06,1.64-1.06,2.57s.35,1.86,1.06,2.57c.71,.71,1.64,1.06,2.57,1.06s1.86-.36,2.57-1.06c.42-.42,.71-.91,.88-1.43l.12-.44,1.35-5.02c.01-.06,.02-.12,.02-.18,0-.12-.04-.24-.12-.32h0Z"/><path d="M31.11,26.23h0c-.09-.08-.2-.13-.32-.12-.06,0-.12,0-.18,.03l-5.02,1.35-.43,.12c-.53,.17-1.03,.47-1.44,.88-.71,.71-1.06,1.64-1.06,2.57s.35,1.86,1.06,2.57c.71,.71,1.64,1.07,2.57,1.07h0c.93,0,1.86-.36,2.57-1.07,.42-.42,.71-.91,.88-1.43l.12-.44,1.35-5.02c.02-.06,.03-.12,.03-.18,0-.12-.04-.24-.12-.32Z"/><path d="M22.22,32.72s-.06-.02-.08-.02c-.02,0-.16-.02-.38-.02-.46,0-1.31,.08-2.39,.52-.3-.23-1.27-.95-2.54-.95-.84,0-1.8,.32-2.74,1.28-.25,.3-.93,1.2-1.15,2.84-.11,.84-.18,1.28-.35,1.6l-.18,.35,.38-.1c.26-.07,3.64-.5,4.43-.62,.24-.05,2.69-.45,2.7-2.7v-.06c0-.21-.02-.62-.28-1.21,.35-.15,1.16-.46,2.04-.46,.11,0,.23,0,.34,.02h.06c.06,.02,.25-.07,.27-.2,0-.03,0-.04,0-.06,0-.1-.08-.19-.13-.2Z"/><path d="M29.72,16.39c-.57-4.07-4.04-7.21-8.26-7.26-.02,0-.05,0-.1,0-3.71,0-6.86,2.4-7.99,5.73-2.04,.49-3.7,1.92-4.5,3.82-2.83,.15-5.08,2.49-5.08,5.36,0,1.88,.96,3.53,2.43,4.49,.21-.59,.55-1.13,1.01-1.58,.48-.48,1.06-.83,1.72-1.05h.03l.43-.12,5.02-1.35c.11-.03,.23-.05,.35-.05,.32,0,.61,.12,.82,.33,.21,.22,.33,.51,.33,.82,0,.11-.02,.23-.05,.34l-.96,3.56h7.34c.22-.53,.54-1.02,.95-1.43,.48-.48,1.05-.83,1.71-1.05h.04l.42-.13,5.02-1.35c.1-.03,.23-.05,.36-.05,.31,0,.61,.12,.82,.33,.21,.21,.32,.5,.32,.81,0,.11-.02,.23-.05,.35l-.56,2.09c2.49-.92,4.27-3.3,4.27-6.11,0-3.38-2.57-6.16-5.87-6.49Z"/><path d="M35.44,10.82C33.1,4.11,26.05,.4,19.29,2.08c3.83,.28,7.36,2.45,9.29,5.89,.11-.05,.21-.1,.33-.14,1.4-.49,2.93,.25,3.42,1.65,.49,1.4-.25,2.93-1.65,3.41-.2,.07-.4,.11-.6,.13,.03,.51,.02,1.02-.02,1.52,.12,.35,.22,.71,.29,1.07,2.29,.41,4.18,1.86,5.2,3.83,.87-2.71,.89-5.72-.11-8.62Z"/></g></g></svg>