<?xml version="1.0" encoding="UTF-8"?><svg xmlns="http://www.w3.org/2000/svg" viewBox="0 0 40 40"><g id="a"/><g id="b"><g><path d="M29.16,20.84c-.55-3.9-3.88-6.91-7.92-6.96-.02,0-.05,0-.09,0-3.56,0-6.58,2.3-7.66,5.49-1.96,.47-3.55,1.84-4.31,3.66-2.72,.15-4.87,2.39-4.87,5.15s2.12,4.96,4.8,5.14v.02H28.96v-.02c3.26-.23,5.83-2.93,5.83-6.24,0-3.25-2.47-5.91-5.62-6.23Z"/><path d="M34.24,17.78h-1.19c-.28-1.4-.83-2.69-1.59-3.84l.84-.84c.28-.28,.43-.66,.43-1.03s-.14-.75-.43-1.03l-.97-.97-.12,.12,.12-.12c-.29-.28-.66-.43-1.04-.43s-.75,.14-1.04,.43l-.84,.84c-1.14-.76-2.44-1.31-3.84-1.59v-1.19c0-.81-.66-1.46-1.46-1.46h-1.37c-.81,0-1.46,.66-1.46,1.46v1.19c-1.39,.28-2.7,.83-3.84,1.59l-.84-.84c-.29-.29-.66-.43-1.04-.43-.37,0-.75,.14-1.04,.43h0l-.97,.97c-.29,.29-.43,.66-.43,1.03s.14,.75,.43,1.03l.84,.84c-.76,1.15-1.31,2.45-1.59,3.84h-1.19c-.81,0-1.46,.66-1.47,1.46v1.37c0,.26,.07,.5,.19,.7,.89-1.2,2.15-2.09,3.59-2.52,1.31-3.37,4.55-5.61,8.19-5.61,.04,0,.08,0,.1,0,4.12,.05,7.69,3.04,8.5,7.04,1.4,.25,2.64,.91,3.61,1.85h.88c.8,0,1.46-.66,1.46-1.46v-1.37c0-.81-.66-1.46-1.46-1.46Z"/></g></g></svg>