<?xml version="1.0" encoding="UTF-8"?><svg xmlns="http://www.w3.org/2000/svg" viewBox="0 0 40 40"><g id="a"/><g id="b"><g><path d="M15.07,22.89c.11,0,.22,.04,.3,.12h0c.08,.08,.12,.19,.12,.31,0,.05,0,.11-.02,.17l-1.28,4.75-.11,.42c-.16,.49-.44,.96-.83,1.35-.67,.67-1.55,1.01-2.43,1.01h0c-.88,0-1.76-.34-2.43-1.01-.67-.67-1.01-1.55-1.01-2.43s.34-1.76,1.01-2.43c.39-.39,.86-.67,1.37-.83l.4-.11,4.75-1.27c.06-.02,.12-.02,.17-.02h0Zm15.12,.98c.11,0,.22,.04,.3,.12h0c.08,.08,.12,.19,.12,.3,0,.05,0,.11-.02,.17l-1.28,4.75-.11,.42c-.16,.49-.44,.96-.83,1.35-.67,.67-1.55,1.01-2.43,1.01s-1.76-.34-2.43-1.01c-.67-.67-1.01-1.55-1.01-2.43s.34-1.76,1.01-2.43c.39-.39,.86-.67,1.36-.83l.4-.11,4.75-1.28c.06-.02,.11-.02,.17-.02h0Zm-15.12-.64h0s-.05,0-.07,.01l-4.75,1.28-.39,.11c-.47,.15-.87,.41-1.22,.75-.58,.58-.91,1.36-.91,2.19s.32,1.61,.91,2.19c.58,.58,1.36,.91,2.19,.91s1.6-.32,2.19-.91c.34-.34,.59-.74,.74-1.21l.11-.41,1.27-4.75s.01-.05,.01-.08c0-.03,0-.05-.02-.06,0,0-.03-.02-.06-.02h0Zm15.12,.98h0s-.05,0-.07,.01l-4.76,1.28-.39,.11c-.47,.15-.88,.41-1.22,.75-.58,.58-.91,1.36-.91,2.19s.32,1.6,.91,2.19c.58,.58,1.36,.91,2.19,.91s1.6-.32,2.19-.91c.34-.34,.59-.75,.74-1.21l.11-.41,1.28-4.75s.01-.05,.01-.08c0-.03,0-.05-.02-.06,0,0-.03-.02-.06-.02h0Z"/><path d="M20.51,27.67l-1.55,2.79h3.19l-6.45,8.75-.23-.16,1.86-6.09h-3.16l1.75-5.28h4.59Zm-.59,.35h-3.75l-1.52,4.59h3.15l-.13,.45-1.52,4.96,5.31-7.21h-3.09l.29-.51,1.26-2.28h0Z"/><path d="M21.29,7.83s.07,0,.09,0c3.99,.05,7.27,3.01,7.8,6.86,3.12,.31,5.55,2.94,5.55,6.14,0,2.66-1.69,4.91-4.04,5.78l.53-1.97c.03-.11,.05-.23,.05-.33,0-.3-.11-.58-.31-.77-.2-.2-.47-.31-.77-.31-.12,0-.24,.02-.34,.05l-4.75,1.27-.4,.11h-.04c-.62,.21-1.17,.55-1.62,1-.39,.39-.7,.86-.9,1.36h-6.94l.9-3.35c.03-.11,.04-.23,.04-.33,0-.3-.11-.57-.31-.77-.2-.2-.47-.31-.77-.31-.12,0-.23,.02-.34,.05l-4.75,1.28-.4,.11h-.04c-.62,.21-1.17,.55-1.62,1-.43,.43-.75,.94-.95,1.5-1.38-.91-2.3-2.46-2.3-4.24,0-2.71,2.13-4.92,4.8-5.07,.76-1.79,2.33-3.15,4.26-3.61,1.07-3.15,4.04-5.42,7.55-5.42h0Zm0,.35c-3.27,0-6.18,2.08-7.22,5.18l-.06,.18-.19,.04c-1.8,.43-3.3,1.7-4.02,3.41l-.09,.2h-.22c-2.51,.15-4.47,2.22-4.48,4.74,0,1.46,.67,2.81,1.8,3.71,.21-.45,.5-.85,.86-1.21,.49-.5,1.09-.86,1.76-1.08h.05l.41-.12,4.75-1.28c.13-.04,.28-.06,.43-.06,.39,0,.75,.15,1.02,.41s.41,.63,.41,1.02c0,.14-.02,.28-.06,.42l-.78,2.92h6.26c.22-.46,.51-.89,.88-1.25,.49-.49,1.09-.85,1.76-1.08h.04l.41-.12,4.75-1.27c.12-.04,.28-.06,.43-.06,.39,0,.75,.15,1.01,.41,.27,.27,.41,.63,.41,1.02,0,.14-.02,.29-.06,.43l-.34,1.27c1.92-.99,3.17-2.98,3.17-5.17,0-3-2.25-5.49-5.24-5.79l-.27-.03-.04-.27c-.52-3.7-3.73-6.52-7.46-6.57h-.04s-.03,0-.05,0h0Z"/><path d="M22.38,.8c5.35,0,10.36,3.35,12.22,8.69,.96,2.75,.93,5.61,.11,8.19-.97-1.87-2.76-3.25-4.94-3.64-.07-.35-.17-.69-.28-1.02,.04-.48,.04-.96,.01-1.44,.19-.02,.38-.06,.57-.12,1.33-.46,2.03-1.92,1.57-3.25-.37-1.05-1.35-1.71-2.41-1.71-.28,0-.56,.05-.84,.14-.11,.04-.21,.08-.31,.13-1.84-3.26-5.19-5.33-8.83-5.59,1.04-.26,2.09-.38,3.12-.38h0Zm0,.35c-.33,0-.67,.01-1,.04,2.85,.75,5.31,2.58,6.86,5.15,.02,0,.04-.01,.05-.02,.31-.11,.63-.16,.95-.16,1.23,0,2.33,.78,2.73,1.94,.25,.73,.21,1.52-.13,2.21-.34,.7-.92,1.22-1.65,1.47-.11,.04-.21,.07-.33,.09,0,.36,0,.73-.02,1.11,.09,.28,.16,.53,.22,.76,1.88,.39,3.48,1.49,4.54,3.06,.6-2.38,.49-4.86-.32-7.21-1.76-5.06-6.54-8.45-11.89-8.45h0Z"/></g></g></svg>