<?xml version="1.0" encoding="UTF-8"?><svg xmlns="http://www.w3.org/2000/svg" viewBox="0 0 40 40"><g id="a"/><g id="b"><path d="M21.68,9.85s.08,0,.1,0c4.22,.05,7.68,3.19,8.25,7.26,3.29,.33,5.87,3.11,5.87,6.49s-2.68,6.28-6.08,6.51v.03H9.11v-.02c-2.8-.19-5.01-2.51-5.01-5.36s2.25-5.21,5.08-5.36c.8-1.9,2.46-3.33,4.5-3.82,1.13-3.33,4.28-5.73,7.99-5.73h0Zm0,.35c-3.47,0-6.55,2.21-7.66,5.49l-.06,.18-.19,.04c-1.91,.46-3.5,1.81-4.27,3.62l-.08,.2h-.21c-2.67,.16-4.75,2.36-4.75,5.03s2.06,4.83,4.69,5.01l.28,.02H29.47l.32-.03c3.23-.22,5.76-2.93,5.76-6.16s-2.39-5.83-5.55-6.15l-.27-.03-.04-.27c-.55-3.92-3.95-6.91-7.91-6.96h-.04s-.03,0-.05,0h0Z"/></g></svg>