<?xml version="1.0" encoding="UTF-8"?><svg xmlns="http://www.w3.org/2000/svg" viewBox="0 0 40 40"><g id="a"/><g id="b"><g><path d="M23.13,3.49c.8,0,1.46,.66,1.46,1.46v1.19c1.39,.28,2.69,.83,3.84,1.59l.84-.84c.28-.28,.66-.43,1.03-.43h0c.37,0,.75,.14,1.03,.43l-.12,.12,.12-.12,.97,.97c.29,.28,.43,.66,.43,1.03s-.14,.75-.43,1.03l-.84,.84c.76,1.14,1.31,2.44,1.59,3.84h1.19c.81,0,1.46,.66,1.46,1.46v1.37c0,.81-.66,1.46-1.46,1.46h-.88c-.97-.94-2.21-1.6-3.61-1.85-.81-4-4.38-6.99-8.49-7.04-.03,0-.07,0-.12,0-3.64,0-6.88,2.24-8.19,5.61-1.44,.43-2.7,1.33-3.59,2.52-.12-.21-.19-.45-.19-.7v-1.37c0-.81,.66-1.46,1.46-1.46h1.19c.28-1.4,.83-2.69,1.59-3.84l-.84-.84c-.28-.29-.43-.66-.42-1.03,0-.37,.14-.75,.42-1.03l.97-.97c.28-.28,.66-.43,1.03-.43h0c.37,0,.75,.14,1.03,.43l.84,.84c1.15-.76,2.45-1.31,3.84-1.59v-1.19c0-.81,.66-1.46,1.46-1.46h1.37Zm0,.35h-1.37c-.62,0-1.12,.5-1.12,1.12v1.47l-.28,.06c-1.33,.27-2.58,.79-3.71,1.54l-.24,.16-.2-.2-.84-.84c-.21-.21-.49-.33-.79-.33s-.58,.12-.79,.33l-.97,.97c-.21,.21-.32,.49-.32,.79s.12,.58,.32,.79l.84,.84,.2,.2-.16,.24c-.75,1.14-1.27,2.39-1.54,3.72l-.05,.28h-1.47c-.61,0-1.12,.5-1.12,1.12v1.33c.86-.95,1.96-1.67,3.17-2.06,1.41-3.45,4.71-5.68,8.45-5.68,.05,0,.1,0,.13,0,4.18,.05,7.83,3.02,8.77,7.09,1.3,.27,2.49,.89,3.46,1.8h.74c.62,0,1.12-.5,1.12-1.12v-1.37c0-.61-.5-1.12-1.12-1.12h-1.47l-.05-.28c-.27-1.33-.79-2.58-1.54-3.71l-.16-.24,.2-.2,.84-.84c.21-.21,.32-.49,.32-.79s-.12-.58-.32-.79l-.97-.97c.07,.07,.15,.1,.24,.1,.03,0,.06,0,.09-.01l-.43-.42c-.03,.12,0,.24,.09,.33-.21-.21-.49-.32-.79-.32s-.58,.12-.79,.32l-.84,.84-.2,.2-.24-.16c-1.13-.75-2.39-1.27-3.72-1.54l-.28-.06v-1.47c0-.61-.5-1.11-1.12-1.12h0Z"/><path d="M21.15,10.7s.08,0,.09,0c4.04,.05,7.37,3.06,7.92,6.96,3.16,.32,5.63,2.99,5.63,6.23,0,2.68-1.69,4.96-4.06,5.85l.53-1.99c.03-.12,.05-.23,.05-.34,0-.31-.11-.59-.32-.81-.21-.21-.5-.33-.81-.33-.12,0-.25,.02-.35,.05l-4.81,1.29-.41,.11h-.04c-.64,.22-1.2,.56-1.66,1.03-.41,.41-.72,.89-.93,1.41h-6.96l.92-3.41c.03-.12,.04-.23,.04-.34,0-.31-.11-.6-.32-.81-.21-.21-.49-.33-.81-.33-.12,0-.25,.02-.35,.05l-4.82,1.29-.41,.11h-.04c-.63,.22-1.19,.56-1.66,1.02-.44,.44-.77,.96-.97,1.53-1.38-.92-2.3-2.5-2.3-4.29,0-2.75,2.16-5,4.87-5.15,.77-1.82,2.36-3.19,4.31-3.66,1.09-3.19,4.11-5.49,7.67-5.49h0Zm0,.35c-3.32,0-6.27,2.11-7.34,5.26l-.06,.18-.19,.04c-1.82,.43-3.35,1.73-4.07,3.46l-.09,.2h-.22c-2.55,.15-4.54,2.26-4.54,4.81,0,1.47,.67,2.84,1.8,3.75,.22-.46,.51-.87,.88-1.24,.51-.51,1.11-.88,1.8-1.1h.05l.41-.12,4.81-1.29c.14-.04,.29-.06,.44-.06,.4,0,.78,.15,1.05,.43,.28,.28,.43,.65,.43,1.05,0,.13-.02,.28-.05,.42l-.8,2.98h6.28c.22-.49,.53-.92,.91-1.3,.5-.5,1.11-.87,1.8-1.1h.03l.02-.02,.41-.11,4.81-1.29c.13-.04,.29-.06,.44-.06,.4,0,.78,.16,1.05,.43,.28,.28,.42,.66,.42,1.05,0,.14-.02,.28-.06,.43l-.35,1.29c1.94-1.01,3.19-3.03,3.19-5.24,0-3.04-2.28-5.58-5.31-5.88l-.27-.03-.04-.27c-.53-3.75-3.79-6.62-7.58-6.66,0,0-.03,0-.05,0h-.04Z"/><path d="M14.84,25.97c.12,0,.23,.04,.31,.12h0c.08,.08,.12,.2,.12,.31,0,.06,0,.11-.02,.17l-1.29,4.82-.12,.42c-.17,.5-.44,.97-.84,1.37-.68,.68-1.58,1.02-2.47,1.02h0c-.89,0-1.79-.34-2.47-1.02-.68-.68-1.02-1.58-1.02-2.47s.34-1.79,1.02-2.47c.4-.4,.87-.68,1.39-.85l.41-.11,4.81-1.29c.06-.02,.12-.02,.17-.02h0Zm15.33,1c.12,0,.23,.04,.31,.12h0c.08,.08,.12,.2,.12,.32,0,.05,0,.11-.02,.17l-1.29,4.81-.11,.42c-.17,.5-.45,.97-.85,1.37-.68,.68-1.58,1.02-2.47,1.02s-1.79-.34-2.47-1.02c-.68-.68-1.03-1.58-1.02-2.47,0-.89,.34-1.79,1.02-2.47,.4-.4,.87-.68,1.39-.85l.41-.11,4.81-1.29c.06-.02,.12-.03,.17-.03h0Zm-10.39,4.41c.08,0,.17,.03,.23,.09l-.12,.12,.12-.12c.06,.07,.09,.15,.09,.24,0,.04,0,.08-.02,.12l-.79,2.92-.07,.26c-.1,.31-.28,.61-.53,.86-.43,.43-.99,.64-1.55,.64s-1.12-.21-1.55-.64c-.42-.43-.64-.99-.64-1.55s.22-1.12,.64-1.55c.25-.25,.55-.43,.87-.53l.25-.07,2.92-.78s.09-.02,.12-.02h0Zm-4.94-5.05h0s-.05,0-.08,.01l-4.82,1.29-.4,.11c-.47,.16-.89,.41-1.24,.76-.59,.59-.92,1.39-.92,2.23s.33,1.63,.92,2.23c.6,.59,1.38,.92,2.22,.92s1.63-.33,2.23-.92c.34-.35,.6-.76,.76-1.23l.11-.42,1.29-4.82s0-.05,0-.08c0-.03,0-.06-.02-.07,0-.01-.03-.02-.07-.02h0Zm15.33,1h0s-.05,0-.08,.01l-4.82,1.29-.4,.11c-.48,.16-.89,.41-1.24,.76-.6,.59-.92,1.39-.92,2.23s.33,1.63,.92,2.23c.6,.59,1.39,.92,2.23,.92s1.63-.33,2.23-.92c.35-.34,.6-.76,.76-1.22l.11-.42,1.29-4.82s0-.05,0-.08c0-.03,0-.06-.02-.07,0,0-.03-.02-.07-.02h0Zm-10.41,4.41h0l-2.93,.79-.24,.06c-.28,.09-.52,.24-.72,.44-.35,.35-.54,.81-.54,1.3s.19,.96,.54,1.3c.35,.35,.81,.54,1.3,.54s.95-.19,1.3-.54c.2-.2,.35-.45,.44-.72l.06-.25,.79-2.92s0-.01,0-.01h0Z"/></g></g></svg>