<?xml version="1.0" encoding="UTF-8"?><svg xmlns="http://www.w3.org/2000/svg" viewBox="0 0 40 40"><g id="a"/><g id="b"><path d="M33.39,17.59h-1.37c-.32-1.59-.95-3.08-1.82-4.38l.97-.97c.32-.32,.48-.74,.48-1.16s-.16-.84-.48-1.16l-1.1-1.1-.12,.12,.12-.12c-.32-.32-.74-.48-1.16-.48s-.84,.16-1.16,.48l-.97,.97c-1.3-.87-2.79-1.5-4.38-1.82v-1.37c0-.9-.73-1.63-1.63-1.63h-1.55c-.9,0-1.64,.73-1.64,1.63v1.37c-1.59,.32-3.08,.94-4.38,1.82l-.97-.97c-.32-.32-.74-.48-1.16-.48s-.84,.16-1.15,.48h0l-1.1,1.1c-.32,.32-.48,.74-.48,1.16s.16,.84,.48,1.16l.97,.97c-.87,1.31-1.5,2.79-1.81,4.38h-1.37c-.9,0-1.64,.74-1.64,1.64v1.55c0,.9,.74,1.64,1.64,1.64h1.37c.32,1.59,.94,3.07,1.81,4.38l-.97,.97c-.32,.32-.48,.74-.48,1.16s.16,.84,.48,1.16l1.1,1.1c.32,.32,.74,.48,1.16,.48h0c.42,0,.84-.16,1.15-.48l.97-.97c1.3,.87,2.79,1.5,4.38,1.82v1.37c0,.9,.74,1.63,1.64,1.64h1.55c.9,0,1.63-.73,1.63-1.64v-1.37c1.6-.32,3.08-.94,4.38-1.82l.97,.97c.32,.32,.74,.48,1.16,.48,.42,0,.84-.16,1.16-.48l1.1-1.1c.32-.32,.48-.74,.48-1.16s-.16-.84-.48-1.16l-.97-.97c.87-1.31,1.5-2.79,1.82-4.38h1.37c.9,0,1.64-.74,1.64-1.64v-1.55c0-.9-.74-1.64-1.64-1.64Z"/></g></svg>