<?xml version="1.0" encoding="UTF-8"?><svg xmlns="http://www.w3.org/2000/svg" viewBox="0 0 40 40"><g id="a"/><g id="b"><g><path d="M15.04,25.82c.12,0,.23,.04,.31,.12h0c.08,.08,.12,.2,.12,.31,0,.05,0,.11-.02,.17l-1.29,4.81-.11,.42c-.17,.5-.45,.97-.84,1.37-.68,.68-1.57,1.02-2.46,1.02h0c-.89,0-1.78-.34-2.46-1.02-.68-.68-1.02-1.57-1.02-2.47s.34-1.79,1.02-2.46c.4-.4,.87-.68,1.38-.85l.41-.11,4.81-1.29c.06-.02,.12-.02,.17-.02h0Zm15.33,1c.11,0,.22,.04,.3,.12h0c.08,.08,.12,.19,.12,.31,0,.05,0,.11-.02,.17l-1.29,4.81-.11,.42c-.17,.5-.45,.97-.84,1.37-.68,.68-1.57,1.02-2.47,1.02s-1.79-.34-2.46-1.02c-.68-.68-1.02-1.57-1.02-2.47s.34-1.78,1.02-2.47c.4-.4,.87-.68,1.38-.85l.41-.11,4.81-1.29c.06-.02,.12-.02,.17-.02h0Zm-10.39,4.4c.08,0,.17,.03,.23,.09h0c.06,.07,.09,.15,.09,.23,0,.04,0,.08-.02,.12l-.79,2.92-.07,.26c-.1,.31-.28,.61-.53,.86-.43,.42-.98,.64-1.54,.64s-1.12-.21-1.54-.64c-.43-.43-.64-.99-.64-1.54s.21-1.12,.64-1.54c.25-.25,.54-.42,.87-.53l.25-.07,2.92-.78s.08-.02,.12-.02h0Zm-4.94-5.05h0s-.05,0-.08,0l-4.81,1.29-.4,.11c-.47,.16-.89,.41-1.24,.76-.59,.59-.92,1.38-.92,2.22s.33,1.63,.92,2.22c.59,.59,1.38,.92,2.22,.92s1.63-.33,2.22-.92c.34-.35,.6-.76,.75-1.22l.11-.41,1.29-4.81s0-.06,0-.08c0-.03,0-.05-.02-.06,0,0-.03-.02-.06-.02h0Zm15.33,1h0s-.05,0-.08,.01l-4.82,1.29-.4,.11c-.47,.16-.89,.41-1.23,.76-.59,.59-.92,1.38-.92,2.22s.33,1.63,.92,2.22c.59,.59,1.38,.92,2.22,.92s1.63-.33,2.22-.92c.34-.34,.6-.76,.76-1.22l.11-.41,1.29-4.81s.01-.05,.01-.08c0-.03,0-.06-.02-.06,0-.01-.03-.02-.06-.02h0Zm-10.42,4.41h0l-2.92,.79-.24,.06c-.28,.09-.52,.24-.73,.45-.35,.35-.54,.81-.54,1.3s.19,.95,.54,1.3,.81,.54,1.3,.54,.95-.19,1.3-.54c.2-.2,.35-.44,.44-.71l.06-.25,.79-2.92h0Z"/><path d="M22.55,3.66c5.36,0,10.36,3.35,12.22,8.69,.96,2.75,.93,5.61,.11,8.19-.97-1.87-2.76-3.25-4.94-3.64-.07-.35-.17-.69-.28-1.02,.03-.48,.04-.96,.01-1.44,.19-.02,.38-.06,.57-.13,1.33-.46,2.03-1.91,1.57-3.24-.37-1.05-1.35-1.71-2.41-1.71-.28,0-.56,.05-.84,.14-.11,.04-.21,.08-.31,.14-1.84-3.26-5.19-5.32-8.83-5.59,1.04-.26,2.08-.38,3.12-.38h0Zm0,.35c-.33,0-.67,.01-1,.04,2.85,.75,5.31,2.58,6.86,5.15,.02,0,.04-.01,.05-.02,.31-.11,.63-.16,.95-.16,1.23,0,2.33,.78,2.73,1.94,.26,.73,.21,1.51-.13,2.21-.34,.7-.93,1.22-1.65,1.47-.11,.04-.21,.07-.33,.09,.01,.36,0,.72-.02,1.1,.09,.28,.16,.53,.22,.77,1.87,.39,3.48,1.49,4.54,3.06,.6-2.38,.49-4.86-.33-7.21-1.76-5.06-6.54-8.45-11.9-8.45h0Z"/><path d="M21.34,10.55s.08,0,.09,0c4.04,.05,7.36,3.05,7.91,6.96,3.16,.32,5.62,2.98,5.62,6.22,0,2.69-1.71,4.98-4.09,5.85l.54-2c.03-.11,.05-.23,.05-.34,0-.3-.11-.58-.31-.78-.2-.2-.48-.31-.78-.31-.12,0-.24,.02-.34,.05l-4.81,1.29-.41,.11h-.04c-.63,.22-1.18,.56-1.64,1.02-.4,.4-.71,.87-.91,1.38h-7.04l.91-3.4c.03-.12,.05-.23,.05-.34,0-.3-.11-.58-.32-.78-.2-.2-.48-.31-.78-.31-.12,0-.23,.02-.34,.05l-4.81,1.29-.41,.11h-.04c-.63,.22-1.18,.56-1.64,1.02-.44,.44-.76,.95-.96,1.52-1.4-.92-2.33-2.5-2.33-4.3,0-2.75,2.15-4.99,4.87-5.14,.77-1.82,2.36-3.2,4.31-3.66,1.08-3.19,4.1-5.49,7.66-5.49h0Zm0,.35c-3.32,0-6.26,2.11-7.33,5.25l-.06,.18-.19,.04c-1.82,.43-3.35,1.73-4.08,3.46l-.08,.2h-.22c-2.55,.15-4.54,2.25-4.54,4.8,0,1.48,.68,2.86,1.83,3.76,.22-.46,.51-.87,.87-1.23,.5-.5,1.1-.87,1.78-1.09h.05l.41-.12,4.81-1.29c.13-.04,.28-.06,.43-.06,.4,0,.76,.15,1.03,.42,.27,.27,.42,.63,.41,1.03,0,.14-.02,.28-.06,.42l-.79,2.96h6.36c.22-.47,.52-.9,.89-1.27,.5-.5,1.1-.87,1.78-1.09h.02l.03-.02,.41-.11,4.81-1.29c.12-.04,.28-.06,.43-.06,.39,0,.76,.15,1.02,.41,.27,.27,.42,.64,.42,1.03,0,.14-.02,.29-.06,.43l-.35,1.3c1.95-1,3.22-3.03,3.23-5.25,0-3.04-2.29-5.57-5.31-5.88l-.27-.03-.04-.27c-.53-3.75-3.78-6.61-7.57-6.66h-.04s-.03,0-.05,0h0Z"/></g></g></svg>