<?xml version="1.0" encoding="UTF-8"?><svg xmlns="http://www.w3.org/2000/svg" viewBox="0 0 40 40"><g id="a"/><g id="b"><g><path d="M19.51,23.51v-.78c0-.29-.24-.53-.53-.53H7.45c-.29,0-.53,.24-.53,.53v.78c0,.29,.24,.53,.53,.53h11.53c.29,0,.53-.24,.53-.53Zm1.03,7.43H9.01c-.29,0-.53,.24-.53,.53v.77c0,.29,.24,.53,.53,.54h11.53c.29,0,.53-.24,.53-.54v-.77c0-.29-.24-.53-.53-.53Zm-.31-2.62h7.57c.29,0,.53-.24,.53-.53v-.77c0-.29-.24-.53-.53-.53h-7.57c-.29,0-.53,.24-.53,.53v.77c0,.29,.24,.53,.53,.53Zm11.45,2.62h-7.57c-.29,0-.53,.24-.53,.53v.77c0,.29,.24,.53,.53,.53h7.57c.29,0,.53-.24,.53-.53v-.77c0-.3-.24-.53-.53-.53Zm-20.37-4.46c-.29,0-.52,.23-.52,.52v.8c0,.29,.23,.52,.52,.52h4.56c.29,0,.52-.23,.52-.52v-.8c0-.29-.23-.52-.52-.52h-4.56Zm21.79-4.28h-4.57c-.29,0-.52,.23-.52,.52v.8c0,.29,.23,.52,.52,.52h4.57c.28,0,.52-.23,.52-.52v-.8c0-.29-.23-.52-.52-.52Zm-10.33,1.83h1.29c.29,0,.52-.23,.52-.52v-.8c0-.29-.23-.52-.52-.52h-1.29c-.29,0-.52,.23-.52,.52v.8c0,.29,.23,.52,.52,.52Z"/><path d="M30.03,14.49c-.57-4.07-4.04-7.21-8.25-7.26-.02,0-.06,0-.1,0-3.71,0-6.86,2.4-7.99,5.73-2.04,.49-3.71,1.92-4.5,3.82-2.83,.15-5.08,2.49-5.08,5.36,0,2.85,2.21,5.17,5.01,5.36v.02h.99v-.52c0-.67,.54-1.21,1.21-1.21h4.56c.67,0,1.21,.54,1.21,1.21v.52h1.92v-.51c0-.67,.55-1.22,1.22-1.22h7.57c.67,0,1.22,.55,1.22,1.22v.5h.79v-.02c3.4-.23,6.08-3.05,6.08-6.51s-2.57-6.16-5.87-6.49Zm-9.82,9.02c0,.67-.55,1.22-1.22,1.22H7.45c-.67,0-1.22-.55-1.22-1.22v-.78c0-.67,.55-1.22,1.22-1.22h11.53c.67,0,1.22,.55,1.22,1.22v.78Zm5.06,.01c0,.67-.54,1.21-1.21,1.21h-1.29c-.67,0-1.21-.54-1.21-1.21v-.8c0-.67,.54-1.21,1.21-1.21h1.29c.67,0,1.21,.54,1.21,1.21v.8Zm7.83,1.21h-4.57c-.67,0-1.21-.54-1.21-1.21v-.8c0-.67,.54-1.21,1.21-1.21h4.57c.66,0,1.21,.54,1.21,1.21v.8c0,.67-.54,1.21-1.21,1.21Z"/></g></g></svg>