<?xml version="1.0" encoding="UTF-8"?><svg xmlns="http://www.w3.org/2000/svg" viewBox="0 0 40 40"><g id="a"/><g id="b"><path d="M20.78,4.97c.9,0,1.63,.74,1.63,1.64v1.37c1.59,.32,3.08,.95,4.38,1.82l.97-.97c.32-.32,.74-.48,1.16-.48s.84,.16,1.16,.48l-.12,.12,.12-.12,1.1,1.1c.32,.32,.48,.74,.48,1.16,0,.42-.16,.84-.48,1.16l-.97,.97c.87,1.31,1.5,2.79,1.81,4.38h1.37c.9,0,1.64,.74,1.64,1.64v1.55c0,.9-.74,1.64-1.64,1.64h-1.37c-.32,1.59-.95,3.08-1.81,4.38l.97,.97c.32,.32,.48,.74,.48,1.16s-.16,.84-.48,1.16l-1.1,1.1c-.32,.32-.74,.48-1.16,.48h0c-.42,0-.84-.16-1.16-.48l-.97-.97c-1.31,.87-2.79,1.5-4.38,1.82v1.37c0,.9-.73,1.64-1.63,1.64h-1.55c-.9,0-1.64-.74-1.64-1.64v-1.37c-1.59-.32-3.07-.94-4.38-1.82l-.97,.97c-.32,.32-.73,.48-1.15,.48h0c-.42,0-.84-.16-1.16-.48l-1.1-1.1c-.32-.32-.48-.74-.48-1.16s.16-.84,.48-1.16l.97-.97c-.87-1.31-1.5-2.79-1.81-4.38h-1.37c-.9,0-1.64-.73-1.64-1.64v-1.55c0-.9,.73-1.64,1.64-1.64h1.37c.32-1.6,.95-3.08,1.82-4.38l-.97-.97c-.32-.32-.48-.74-.48-1.16s.16-.84,.48-1.16l1.1-1.1h0c.32-.32,.74-.48,1.16-.48s.84,.16,1.16,.48l.97,.97c1.3-.87,2.79-1.5,4.38-1.82v-1.37c0-.9,.74-1.63,1.64-1.64h1.55Zm0,.35h-1.55c-.71,0-1.29,.58-1.29,1.29v1.65l-.28,.05c-1.53,.31-2.96,.9-4.26,1.77l-.24,.16-.2-.2-.97-.97c-.24-.25-.57-.38-.91-.38s-.67,.13-.91,.38l-1.1,1.1c-.24,.24-.38,.57-.38,.91s.13,.67,.38,.91l.97,.97,.2,.2-.16,.24c-.87,1.3-1.46,2.73-1.77,4.26l-.05,.28h-1.65c-.71,0-1.29,.58-1.29,1.29v1.55c0,.71,.58,1.29,1.29,1.29h1.65l.05,.28c.3,1.53,.9,2.96,1.76,4.26l.16,.24-.2,.2-.97,.97c-.24,.24-.38,.57-.38,.91s.13,.67,.38,.91l1.1,1.1c.24,.24,.57,.37,.91,.37s.67-.13,.91-.37l.97-.97,.2-.2,.24,.16c1.3,.87,2.73,1.46,4.26,1.76l.28,.06v1.65c0,.71,.58,1.29,1.29,1.29h1.55c.71,0,1.29-.58,1.29-1.29v-1.65l.28-.06c1.53-.3,2.96-.9,4.26-1.77l.23-.16,.2,.2,.97,.97c.24,.24,.57,.38,.91,.38s.67-.13,.91-.38l1.1-1.1c.24-.24,.38-.57,.38-.91s-.13-.67-.38-.91l-.97-.97-.2-.2,.16-.24c.87-1.3,1.46-2.73,1.76-4.26l.05-.28h1.65c.71,0,1.29-.58,1.29-1.29v-1.55c0-.71-.58-1.29-1.29-1.29h-1.65l-.05-.28c-.3-1.53-.9-2.96-1.76-4.26l-.16-.24,.2-.2,.97-.97c.24-.24,.38-.57,.38-.91s-.13-.67-.38-.91l-1.1-1.1c.07,.07,.16,.1,.25,.1,.03,0,.06,0,.09-.01l-.43-.42c-.03,.12,0,.24,.09,.34-.24-.24-.57-.38-.91-.38s-.67,.13-.91,.38l-.97,.97-.2,.2-.24-.16c-1.3-.87-2.73-1.46-4.26-1.77l-.28-.05v-1.65c0-.71-.58-1.29-1.29-1.29h0Z"/></g></svg>