<?xml version="1.0" encoding="UTF-8"?><svg xmlns="http://www.w3.org/2000/svg" viewBox="0 0 40 40"><g id="a"/><g id="b"><g><path d="M15.09,21.34h.01c.12,0,.23,.04,.32,.12h0c.08,.08,.12,.2,.12,.32,0,.05,0,.11-.02,.17l-1.35,5.02-.12,.44c-.17,.52-.46,1.02-.88,1.43-.71,.71-1.64,1.06-2.57,1.06s-1.86-.35-2.57-1.06c-.71-.71-1.06-1.64-1.06-2.57s.36-1.86,1.06-2.57c.42-.42,.91-.71,1.44-.88l.43-.12,5.02-1.35c.06-.02,.12-.03,.17-.03h0Zm.01,.35h-.01s-.05,0-.08,.01l-5.03,1.35-.42,.11c-.49,.16-.93,.43-1.3,.79-.62,.62-.96,1.45-.96,2.33s.34,1.71,.96,2.33c.62,.62,1.45,.96,2.33,.96s1.71-.34,2.33-.96c.36-.36,.63-.79,.79-1.28l.12-.43,1.35-5.02s.01-.06,.01-.09c0-.04,0-.06-.02-.08-.02-.01-.04-.02-.07-.02h0Z"/><path d="M31.09,22.38c.12,0,.24,.04,.32,.13h0c.08,.08,.12,.2,.12,.32,0,.06,0,.12-.03,.18l-1.35,5.02-.12,.44c-.18,.52-.46,1.01-.88,1.43-.71,.71-1.64,1.06-2.57,1.06h0c-.93,0-1.86-.36-2.57-1.07-.71-.71-1.06-1.64-1.06-2.57s.36-1.86,1.06-2.57c.42-.41,.91-.71,1.44-.88l.43-.11,5.02-1.35c.06-.02,.13-.03,.18-.03h0Zm0,.35h0s-.05,0-.08,.01l-5.03,1.35-.42,.11c-.5,.17-.94,.43-1.3,.79-.62,.62-.96,1.45-.96,2.33s.34,1.71,.96,2.33c.62,.62,1.45,.96,2.32,.96s1.71-.34,2.33-.96c.36-.36,.62-.79,.79-1.28l.12-.43,1.35-5.02s.01-.06,.01-.09c0-.04,0-.06-.02-.08-.01-.01-.04-.02-.07-.02h0Z"/><path d="M17.13,28.53h0c1.26,0,2.23,.73,2.54,.96,1.08-.44,1.92-.52,2.38-.52h0c.22,0,.36,.02,.38,.02,.02,0,.04,0,.08,.02,.05,.02,.14,.1,.13,.2,0,.01,0,.03,0,.05-.01,.13-.17,.21-.25,.21h-.02s-.03,0-.06,0c-.11-.01-.23-.02-.34-.02-.88,0-1.69,.31-2.04,.46,.26,.59,.27,1,.28,1.21v.06c-.02,2.25-2.46,2.64-2.7,2.7-.79,.12-4.16,.55-4.43,.62l-.38,.1,.18-.34c.17-.32,.23-.76,.35-1.6,.23-1.63,.9-2.54,1.15-2.84,.94-.96,1.9-1.28,2.73-1.28h0Zm0,.35h0c-.87,0-1.71,.39-2.48,1.17-.32,.38-.87,1.22-1.07,2.65-.08,.63-.15,1.07-.26,1.41,.43-.07,1.24-.17,2.36-.32,.75-.1,1.46-.2,1.78-.24h.03c.89-.18,2.37-.72,2.38-2.36v-.06c0-.18-.02-.54-.25-1.08l-.11-.25-.05-.04c-.29-.22-1.18-.88-2.33-.88h0Z"/><path d="M21.68,5.4s.08,0,.1,0c4.22,.05,7.69,3.19,8.25,7.26,3.29,.33,5.87,3.11,5.87,6.49,0,2.81-1.78,5.19-4.27,6.11l.56-2.09c.03-.12,.05-.23,.05-.35,0-.32-.11-.61-.32-.81-.21-.21-.5-.33-.82-.33-.13,0-.26,.02-.36,.05l-5.02,1.35-.43,.12h-.04c-.66,.23-1.24,.58-1.71,1.06-.42,.42-.74,.9-.95,1.43h-7.34l.95-3.56c.03-.12,.05-.24,.05-.34,0-.31-.11-.6-.33-.82-.21-.21-.5-.33-.82-.33-.12,0-.25,.02-.35,.05l-5.02,1.35-.43,.12h-.03c-.66,.22-1.24,.58-1.72,1.06-.46,.46-.79,1-1.01,1.58-1.46-.96-2.43-2.61-2.43-4.49,0-2.87,2.25-5.21,5.08-5.36,.8-1.9,2.46-3.33,4.5-3.82,1.13-3.33,4.28-5.73,7.99-5.73h0Zm0,.35c-3.47,0-6.55,2.21-7.66,5.5l-.06,.18-.19,.04c-1.91,.45-3.5,1.81-4.26,3.62l-.09,.2h-.22c-2.67,.16-4.75,2.36-4.75,5.03,0,1.55,.71,3,1.93,3.95,.23-.48,.53-.91,.91-1.29,.52-.52,1.15-.91,1.85-1.13h.04l.02-.02,.42-.11,5.02-1.35c.14-.04,.29-.06,.44-.06,.41,0,.79,.15,1.07,.43,.28,.28,.43,.66,.43,1.06,0,.14-.02,.29-.06,.43l-.84,3.12h6.66c.23-.49,.54-.94,.94-1.33,.52-.52,1.14-.9,1.85-1.13h.03l.02-.02h.02l.41-.12,5.02-1.35c.13-.04,.29-.06,.45-.06,.41,0,.79,.16,1.06,.44,.27,.27,.43,.65,.42,1.06,0,.14-.02,.29-.06,.44l-.38,1.4c2.06-1.04,3.4-3.17,3.4-5.5,0-3.18-2.39-5.83-5.55-6.15l-.27-.03-.04-.27c-.55-3.92-3.95-6.91-7.91-6.96h-.04s-.03,0-.05,0h0Z"/></g></g></svg>