<?xml version="1.0" encoding="UTF-8"?><svg xmlns="http://www.w3.org/2000/svg" viewBox="0 0 40 40"><g id="a"/><g id="b"><path d="M13.12,29.26h0c0,1.09,.87,1.97,1.96,1.97,.98,0,1.79-.72,1.93-1.66,2.57-.19,4.94-1.13,6.87-2.62,0,.99,.81,1.79,1.79,1.79s1.79-.8,1.79-1.8-.75-1.74-1.7-1.79c1.2-1.39,2.1-3.03,2.61-4.84,.21,.05,.44,.08,.67,.08,1.63,0,2.95-1.32,2.95-2.94s-1.32-2.94-2.95-2.94c-.13,0-.26,.01-.39,.03-.77-4.26-3.64-7.78-7.51-9.46,7.62,.69,13.58,7.09,13.58,14.89,0,8.26-6.7,14.96-14.96,14.96-6.98,0-12.84-4.78-14.49-11.25,1.76,2.77,4.56,4.81,7.84,5.59Z"/></g></svg>