<?xml version="1.0" encoding="UTF-8"?><svg xmlns="http://www.w3.org/2000/svg" viewBox="0 0 40 40"><g id="a"/><g id="b"><path d="M21.14,5.08c7.62,.69,13.58,7.09,13.58,14.89,0,8.26-6.7,14.96-14.96,14.96-6.98,0-12.84-4.78-14.49-11.25,1.76,2.77,4.56,4.81,7.84,5.59h0c0,1.09,.87,1.97,1.96,1.97,.98,0,1.79-.72,1.93-1.66,2.58-.19,4.94-1.13,6.87-2.62,0,.99,.8,1.79,1.79,1.79s1.79-.8,1.79-1.79-.75-1.74-1.7-1.79c1.19-1.39,2.09-3.03,2.61-4.84,.22,.05,.44,.08,.67,.08,1.63,0,2.95-1.32,2.95-2.95s-1.32-2.94-2.95-2.94c-.13,0-.26,.01-.39,.03-.77-4.26-3.64-7.79-7.51-9.46h0Zm2.02,.68c2.96,1.9,5.06,4.91,5.78,8.41,.04,0,.07,0,.11,0,1.81,0,3.29,1.48,3.29,3.29s-1.48,3.29-3.29,3.29c-.14,0-.29,0-.43-.03-.48,1.54-1.22,2.96-2.22,4.22,.83,.3,1.41,1.09,1.41,2.01,0,1.18-.96,2.14-2.14,2.14-.96,0-1.78-.64-2.05-1.52-1.87,1.32-4.04,2.12-6.33,2.33-.27,.99-1.16,1.68-2.21,1.68-1.18,0-2.16-.9-2.29-2.04-2.54-.65-4.8-2.04-6.52-3.98,2.23,5.4,7.52,9.02,13.5,9.02,8.05,0,14.61-6.55,14.61-14.61,0-3.67-1.37-7.17-3.85-9.87-1.99-2.17-4.56-3.67-7.37-4.34h0Z"/></g></svg>