<?xml version="1.0" encoding="UTF-8"?><svg xmlns="http://www.w3.org/2000/svg" viewBox="0 0 40 40"><g id="a"/><g id="b"><g><path d="M15.38,35.57h7.57c.29,0,.53,.24,.53,.53v.78c0,.29-.24,.53-.53,.53h-7.57c-.29,0-.53-.24-.53-.53v-.78c0-.29,.24-.53,.53-.53h0Zm0,.34c-.1,0-.19,.08-.19,.19v.77c0,.1,.08,.18,.19,.18h7.57c.1,0,.18-.08,.18-.18v-.78c0-.1-.08-.18-.18-.18h-7.57Z"/><path d="M11.35,25.1c.16,0,.28,.13,.28,.28v1.06l.47-.47c.06-.06,.13-.09,.2-.09s.14,.03,.2,.08l.46,.46c.06,.05,.08,.13,.08,.2s-.03,.14-.08,.2l-1.33,1.33v1.33l1.22-.71,.49-1.82c.03-.12,.14-.21,.27-.21,.03,0,.05,0,.07,.01l.63,.17c.13,.03,.21,.15,.21,.27,0,.02,0,.04,0,.07l-.17,.65,.84-.48s.1-.04,.14-.04c.1,0,.19,.05,.24,.14l.33,.57s.04,.09,.04,.14c0,.09-.05,.19-.14,.24l-.85,.49,.65,.17c.12,.03,.21,.15,.21,.27,0,.02,0,.04,0,.07l-.17,.63c-.04,.12-.14,.21-.27,.21-.02,0-.04,0-.07,0l-1.82-.49-1.22,.7,1.22,.71,1.81-.49s.06-.01,.08-.01c.12,0,.24,.08,.27,.21l.17,.64s0,.04,0,.07c0,.12-.08,.24-.21,.27l-.65,.17,.85,.49c.09,.05,.14,.15,.14,.24,0,.04-.01,.09-.04,.14l-.33,.57c-.05,.09-.14,.14-.24,.14-.05,0-.1-.01-.14-.04l-.85-.49,.18,.65s0,.04,0,.07c0,.12-.08,.23-.21,.27l-.64,.17s-.04,0-.07,0c-.12,0-.24-.08-.27-.21l-.49-1.82-1.22-.71v1.41l1.33,1.33c.06,.05,.08,.13,.08,.2s-.03,.14-.08,.2l-.47,.47c-.05,.05-.12,.08-.19,.08h0c-.07,0-.14-.03-.2-.08l-.47-.48v.98c0,.16-.12,.28-.28,.28h-.65c-.16,0-.28-.12-.28-.28v-.98l-.47,.48c-.05,.05-.13,.08-.2,.08h0c-.07,0-.14-.03-.2-.08l-.46-.47c-.05-.06-.08-.13-.08-.2s.03-.14,.08-.2l1.33-1.33v-1.41l-1.15,.67-.49,1.82c-.04,.12-.15,.21-.27,.21-.02,0-.04,0-.07-.01l-.63-.17c-.12-.04-.21-.15-.21-.27,0-.03,0-.05,0-.07l.17-.65-.92,.53s-.09,.03-.13,.03c-.1,0-.19-.05-.24-.14l-.33-.57s-.04-.09-.04-.14c0-.1,.05-.19,.14-.24l.92-.53-.65-.17c-.12-.03-.21-.15-.21-.27,0-.03,0-.05,0-.07l.17-.63c.03-.12,.15-.21,.27-.21,.03,0,.05,0,.07,.01l1.82,.49,1.15-.67-1.15-.66-1.83,.49s-.04,0-.07,0c-.12,0-.23-.08-.27-.21l-.17-.63s-.01-.06-.01-.08c0-.12,.08-.24,.21-.27l.65-.17-.92-.53c-.09-.05-.14-.15-.14-.24,0-.05,.01-.1,.04-.14l.33-.57c.05-.09,.15-.14,.24-.14h0s.1,.01,.14,.04l.92,.53-.17-.64s-.01-.06,0-.08c0-.13,.08-.24,.21-.27l.62-.16s.07-.01,.09-.01c.12,0,.24,.08,.27,.21l.49,1.82,1.15,.66v-1.33l-1.34-1.33c-.05-.06-.08-.13-.08-.2s.03-.14,.08-.2l.46-.46c.06-.06,.13-.09,.2-.09s.15,.03,.2,.08l.47,.47v-1.06c0-.16,.12-.28,.28-.28h.65Zm-.06,.35h-.52v1.83l-.59-.59-.43-.43-.37,.37,1.29,1.29,.1,.1v2.07l-.52-.3-1.15-.67-.12-.07-.04-.14-.47-1.75-.51,.13,.16,.58,.22,.81-.72-.42-.86-.5-.26,.45,.86,.5,.72,.42-.81,.22-.58,.16,.13,.5,1.76-.47,.14-.04,.12,.07,1.15,.66,.52,.3-.52,.3-1.15,.66-.12,.07-.14-.04-1.76-.47-.13,.5,.58,.16,.81,.22-.72,.42-.86,.5,.26,.45,.86-.5,.72-.42-.22,.81-.16,.58,.51,.14,.47-1.76,.04-.14,.12-.07,1.15-.66,.52-.3v2.16l-.1,.1-1.29,1.29,.37,.37,.43-.42,.59-.59v1.75h.52v-1.75l.59,.59,.43,.43,.37-.37-1.29-1.29-.1-.1v-2.15l.52,.3,1.22,.71,.12,.07,.04,.14,.47,1.76,.5-.13-.16-.58-.22-.81,.73,.42,.79,.45,.26-.45-.79-.45-.72-.42,.8-.22,.58-.16-.13-.5-1.76,.47-.14,.04-.12-.07-1.22-.7-.52-.3,.52-.3,1.22-.71,.12-.07,.14,.04,1.76,.47,.13-.5-.58-.16-.81-.22,.72-.42,.79-.46-.26-.45-.79,.46-.72,.42,.22-.81,.16-.58-.5-.14-.47,1.76-.04,.14-.12,.07-1.22,.7-.52,.3v-2.07l.1-.1,1.29-1.29-.37-.37-.43,.43-.59,.59v-1.83h0Z"/><path d="M27.49,25.1c.16,0,.28,.13,.28,.28v1.06l.47-.47c.05-.06,.13-.09,.2-.09,.07,0,.14,.03,.2,.08l.46,.46c.06,.05,.08,.13,.08,.2s-.03,.14-.08,.2l-1.33,1.33v1.33l1.22-.71,.49-1.82c.03-.12,.15-.21,.27-.21,.03,0,.05,0,.07,.01l.63,.17c.13,.03,.21,.15,.21,.27,0,.02,0,.04,0,.07l-.17,.65,.84-.48s.1-.04,.14-.04c.1,0,.19,.05,.24,.14l.33,.57s.04,.09,.04,.14c0,.09-.05,.19-.14,.24l-.85,.49,.65,.17c.12,.03,.21,.15,.21,.27,0,.02,0,.04,0,.07l-.17,.63c-.03,.12-.14,.21-.27,.21-.02,0-.04,0-.07,0l-1.82-.49-1.22,.7,1.22,.71,1.81-.49s.06-.01,.08-.01c.12,0,.24,.08,.27,.21l.17,.64s0,.04,0,.07c0,.12-.08,.24-.21,.27l-.65,.17,.85,.49c.09,.05,.14,.15,.14,.24,0,.04,0,.09-.04,.14l-.33,.57c-.05,.09-.14,.14-.24,.14-.05,0-.09-.01-.14-.04l-.85-.49,.18,.65s0,.04,0,.07c0,.12-.08,.23-.21,.27l-.64,.17s-.04,0-.06,0c-.12,0-.24-.08-.27-.21l-.49-1.82-1.22-.71v1.41l1.33,1.33c.06,.05,.09,.13,.09,.2s-.03,.14-.08,.2l-.46,.47c-.06,.05-.12,.08-.2,.08h0c-.07,0-.14-.03-.19-.08l-.48-.48v.98c0,.16-.12,.28-.28,.28h-.66c-.16,0-.28-.12-.28-.28v-.98l-.47,.48c-.05,.05-.12,.08-.2,.08h0c-.07,0-.14-.03-.2-.08l-.46-.47c-.05-.06-.08-.13-.08-.2s.03-.14,.08-.2l1.33-1.33v-1.41l-1.15,.67-.49,1.82c-.03,.12-.15,.21-.27,.21-.02,0-.04,0-.07-.01l-.63-.17c-.12-.04-.21-.15-.21-.27,0-.03,0-.05,0-.07l.17-.65-.92,.53s-.09,.03-.13,.03c-.1,0-.19-.05-.24-.14l-.33-.57s-.04-.09-.04-.14c0-.1,.05-.19,.14-.24l.92-.53-.65-.17c-.12-.03-.21-.15-.21-.27,0-.03,0-.05,0-.07l.17-.63c.03-.12,.15-.21,.27-.21,.02,0,.05,0,.07,.01l1.82,.49,1.15-.67-1.15-.66-1.83,.49s-.04,0-.06,0c-.13,0-.24-.08-.27-.21l-.17-.63s-.01-.06-.01-.08c0-.12,.08-.24,.21-.27l.65-.17-.92-.53c-.09-.05-.14-.15-.14-.24,0-.05,.01-.1,.04-.14l.33-.57c.05-.09,.15-.14,.24-.14h0s.1,.01,.14,.04l.92,.53-.17-.64s-.01-.06-.01-.08c0-.13,.08-.24,.21-.27l.62-.16s.06-.01,.09-.01c.12,0,.24,.08,.27,.21l.49,1.82,1.15,.66v-1.33l-1.33-1.33c-.05-.06-.08-.13-.08-.2s.03-.14,.08-.2l.46-.46c.05-.06,.13-.09,.2-.09,.07,0,.14,.03,.2,.08l.47,.47v-1.06c0-.16,.12-.28,.28-.28h.66Zm-.07,.35h-.52v1.83l-.59-.59-.43-.43-.37,.37,1.29,1.29,.1,.1v2.07l-.52-.3-1.15-.67-.12-.07-.04-.14-.47-1.76-.5,.14,.16,.58,.21,.81-.72-.42-.86-.5-.26,.45,.86,.5,.72,.42-.81,.22-.58,.16,.13,.5,1.76-.47,.14-.04,.12,.07,1.15,.66,.52,.3-.52,.3-1.15,.66-.12,.07-.14-.04-1.76-.47-.13,.5,.58,.16,.81,.22-.72,.42-.86,.5,.26,.45,.86-.5,.73-.42-.22,.81-.16,.58,.5,.14,.47-1.76,.04-.14,.12-.07,1.15-.66,.52-.3v2.15l-.1,.1-1.29,1.29,.37,.37,.43-.42,.59-.59v1.75h.52v-1.75l.59,.59,.43,.43,.37-.37-1.29-1.29-.1-.1v-2.15l.52,.3,1.22,.71,.12,.07,.04,.14,.47,1.76,.5-.13-.16-.58-.22-.81,.73,.42,.79,.45,.26-.45-.79-.45-.72-.42,.81-.22,.58-.16-.13-.5-1.76,.47-.14,.04-.12-.07-1.22-.7-.52-.3,.52-.3,1.22-.71,.12-.07,.14,.04,1.76,.47,.13-.5-.58-.16-.81-.22,.72-.42,.79-.46-.26-.45-.79,.46-.73,.42,.22-.81,.16-.58-.5-.14-.47,1.76-.04,.14-.12,.07-1.22,.7-.52,.3v-2.07l.1-.1,1.29-1.29-.37-.37-.43,.43-.59,.59v-1.83h0Z"/><path d="M21.38,9.96s.08,0,.1,0c4.21,.05,7.68,3.19,8.25,7.26,3.29,.33,5.87,3.11,5.87,6.49,0,2.3-1.19,4.32-2.99,5.48-.02-.1-.06-.19-.11-.27,.17-.18,.27-.42,.27-.67,0-.17-.04-.34-.13-.49l-.33-.57c-.18-.3-.5-.49-.84-.49-.08,0-.16,.01-.23,.03-.12-.22-.34-.4-.6-.47l-.63-.17c-.08-.02-.17-.03-.25-.03-.02,0-.03,0-.05,0-.03-.04-.07-.09-.11-.12l-.47-.46c-.18-.18-.43-.28-.68-.28-.09-.44-.48-.78-.95-.78h-.66c-.47,0-.86,.34-.95,.78-.26,0-.52,.11-.69,.29l-.46,.46c-.05,.05-.09,.11-.13,.16-.08,0-.16,.02-.24,.04l-.6,.16c-.25,.07-.46,.23-.59,.45-.1-.03-.21-.05-.32-.05-.35,0-.67,.19-.84,.49l-.33,.57c-.09,.15-.13,.32-.13,.48,0,.28,.12,.55,.33,.74-.08,.14-.13,.31-.13,.48,0,.09,.01,.19,.04,.28l.14,.51h-5.62l.15-.57c.02-.08,.03-.16,.03-.25,0-.18-.05-.35-.14-.5,.17-.18,.27-.42,.27-.67,0-.17-.04-.34-.13-.49l-.33-.57c-.17-.3-.5-.49-.84-.49-.08,0-.16,.01-.23,.03-.13-.22-.34-.4-.6-.47l-.63-.17c-.08-.02-.17-.03-.25-.03-.02,0-.03,0-.05,0-.03-.04-.07-.09-.11-.12l-.46-.47c-.18-.18-.43-.28-.68-.28-.09-.44-.48-.78-.96-.78h-.66c-.47,0-.86,.34-.95,.78-.26,0-.52,.11-.69,.29l-.46,.46c-.05,.05-.09,.11-.13,.16-.08,0-.16,.02-.24,.04l-.61,.16c-.25,.07-.46,.24-.59,.45-.1-.03-.21-.05-.31-.05-.35,0-.68,.19-.85,.49l-.32,.56c-.09,.15-.13,.32-.13,.49,0,.28,.12,.55,.33,.74,0,0,0,.01,0,.02-1.18-.98-1.94-2.46-1.94-4.13,0-2.87,2.25-5.21,5.08-5.36,.8-1.9,2.46-3.33,4.5-3.82,1.13-3.33,4.28-5.73,7.99-5.73h0Zm0,.35c-3.47,0-6.55,2.21-7.66,5.49l-.06,.18-.19,.04c-1.91,.45-3.5,1.81-4.26,3.62l-.08,.2h-.22c-2.66,.16-4.75,2.36-4.75,5.03,0,1.09,.35,2.13,.99,2.98,.03-.1,.07-.19,.12-.28l.32-.56c.23-.41,.67-.66,1.14-.66,.05,0,.11,0,.17,0,.17-.19,.39-.33,.64-.4l.61-.16s.09-.02,.14-.03c.02-.03,.05-.05,.07-.08l.46-.46c.17-.18,.41-.31,.67-.36,.2-.48,.68-.81,1.21-.81h.66c.54,0,1.02,.33,1.22,.81,.25,.05,.48,.17,.66,.35l.47,.47s.02,.02,.03,.03c.07,0,.15,.02,.22,.04l.63,.17c.26,.07,.5,.22,.67,.43h.07c.47,0,.91,.25,1.14,.66l.33,.57c.12,.21,.18,.43,.18,.66,0,.25-.07,.5-.21,.72,.05,.15,.08,.3,.08,.46,0,.11-.01,.22-.04,.34l-.04,.14h4.71l-.02-.07c-.03-.11-.05-.24-.05-.36,0-.14,.02-.28,.07-.42-.17-.23-.27-.51-.27-.8,0-.21,.06-.45,.17-.65l.33-.57c.23-.41,.67-.66,1.14-.66,.06,0,.12,0,.17,0,.17-.19,.39-.33,.64-.4l.6-.16s.09-.02,.14-.03c.02-.03,.05-.05,.07-.08l.46-.46c.18-.18,.41-.31,.67-.36,.2-.48,.68-.8,1.21-.81h.66c.54,0,1.01,.33,1.21,.81,.25,.05,.48,.17,.67,.36l.47,.46s.02,.02,.03,.03c.08,0,.15,.02,.23,.04l.63,.17c.26,.07,.5,.22,.67,.43h.07c.47,0,.91,.25,1.14,.66l.33,.57c.12,.21,.18,.43,.18,.66,0,.04,0,.09,0,.14,1.36-1.17,2.14-2.86,2.14-4.67,0-3.18-2.39-5.83-5.55-6.15l-.27-.03-.04-.27c-.55-3.92-3.95-6.92-7.91-6.96h-.03s-.04,0-.06,0h0Z"/><path d="M22.57,2.59c5.63,0,10.9,3.52,12.87,9.14,1.01,2.9,.98,5.91,.11,8.62-1.02-1.97-2.9-3.42-5.2-3.83-.07-.37-.18-.72-.29-1.07,.04-.5,.04-1.01,.02-1.52,.2-.02,.4-.06,.6-.13,1.4-.49,2.14-2.02,1.65-3.42-.38-1.1-1.42-1.8-2.53-1.8-.29,0-.59,.05-.88,.15-.12,.04-.22,.09-.33,.14-1.94-3.43-5.47-5.61-9.29-5.89,1.09-.27,2.2-.4,3.28-.4h0Zm0,.35c-.39,0-.78,.02-1.16,.05,3.05,.77,5.68,2.71,7.32,5.45,.02-.01,.05-.02,.07-.03,.32-.11,.66-.17,1-.17,1.29,0,2.44,.82,2.86,2.03,.27,.76,.22,1.59-.13,2.32-.35,.73-.97,1.28-1.73,1.54-.12,.04-.23,.07-.35,.1,0,.38,0,.78-.02,1.18,.1,.3,.17,.56,.23,.82,1.99,.42,3.69,1.58,4.8,3.25,.65-2.53,.54-5.15-.33-7.64-1.86-5.33-6.89-8.91-12.54-8.91h0Z"/></g></g></svg>