<?xml version="1.0" encoding="UTF-8"?><svg xmlns="http://www.w3.org/2000/svg" viewBox="0 0 40 40"><g id="a"/><g id="b"><g><path d="M8.44,20.9h11.53c.29,0,.53,.24,.53,.53v.78c0,.29-.24,.53-.53,.53H8.44c-.29,0-.53-.24-.53-.53v-.78c0-.29,.24-.53,.53-.53h0Zm6.11,4.23h7.57c.29,0,.53,.24,.53,.53v.77c0,.29-.24,.53-.53,.53h-7.57c-.29,0-.53-.24-.53-.53v-.77c0-.29,.23-.53,.53-.53h0Zm11.51,2.83c.84,0,1.79,.33,2.75,1.29,.24,.29,.92,1.19,1.14,2.83l-.17,.02,.17-.02c.11,.84,.18,1.28,.35,1.6l.18,.35-.38-.1c-.27-.07-3.64-.5-4.44-.62-.23-.05-2.68-.45-2.69-2.69v-.07c0-.2,.02-.61,.28-1.2-.35-.15-1.16-.46-2.04-.46-.11,0-.23,0-.36,.02,0,0-.02,0-.04,0h-.02c-.07,0-.24-.08-.25-.2,0-.02,0-.05,0-.06,0-.1,.08-.19,.13-.2,.03-.01,.06-.02,.08-.02,.02,0,.15-.02,.38-.02,.46,0,1.31,.08,2.39,.53,.3-.23,1.27-.96,2.54-.96h0Zm-6.09,1.49c.29,0,.53,.24,.53,.53v.77c0,.29-.24,.53-.53,.53H8.44c-.29,0-.53-.24-.53-.53v-.77c0-.29,.24-.53,.53-.53h11.53Zm-11.53-8.2c-.1,0-.19,.08-.19,.19v.77c0,.1,.08,.18,.18,.18h11.53c.1,0,.18-.08,.18-.18v-.77c0-.1-.08-.18-.18-.18H8.44Zm6.11,4.23c-.1,0-.19,.08-.19,.19v.77c0,.1,.08,.18,.18,.18h7.57c.1,0,.18-.08,.19-.18v-.77c0-.1-.08-.18-.19-.18h-7.57Zm11.51,2.82h0c-1.15,0-2.04,.67-2.33,.89l-.05,.04-.11,.25c-.23,.54-.24,.89-.25,1.08v.06c0,1.63,1.49,2.17,2.37,2.35h.03c.32,.06,1.05,.15,1.81,.26,1.11,.15,1.9,.25,2.33,.32-.11-.33-.17-.76-.26-1.41,.01,.09,.06,.17,.13,.23,.03,.02,.05,.03,.08,.04l-.08-.59s-.04,.04-.06,.06c-.05,.07-.08,.16-.07,.26-.2-1.48-.8-2.33-1.06-2.64-.78-.78-1.62-1.18-2.49-1.18h0Zm-6.09,1.5H8.44c-.1,0-.18,.08-.18,.19v.77c0,.1,.08,.19,.19,.19h11.53c.1,0,.18-.08,.18-.19v-.77c0-.1-.08-.19-.18-.19h0Z"/><path d="M21.67,5.98s.08,0,.1,0c4.22,.05,7.68,3.19,8.25,7.26,3.29,.33,5.87,3.11,5.87,6.49s-2.68,6.27-6.08,6.51v.03h-6.48v-.61c0-.67-.55-1.22-1.22-1.22h-7.57c-.67,0-1.22,.55-1.22,1.22v.61h-4.21v-.02c-2.8-.19-5.01-2.51-5.01-5.36s2.25-5.21,5.08-5.36c.8-1.9,2.46-3.33,4.5-3.82,1.13-3.33,4.28-5.73,7.99-5.73h0Zm-1.7,17.45h0c.67,0,1.22-.55,1.22-1.22v-.78c0-.67-.55-1.22-1.22-1.22H8.43c-.67,0-1.22,.55-1.22,1.23v.78c0,.67,.55,1.22,1.22,1.22h11.53Zm1.7-17.1c-3.47,0-6.55,2.21-7.66,5.5l-.06,.18-.19,.04c-1.91,.46-3.5,1.81-4.26,3.62l-.08,.2h-.22c-2.67,.16-4.75,2.36-4.75,5.03s2.06,4.83,4.68,5.01l.24,.02h3.59v-.26c0-.86,.71-1.57,1.57-1.57h7.57c.87,0,1.57,.7,1.57,1.57v.26h5.78l.32-.02c3.23-.22,5.76-2.93,5.76-6.16s-2.39-5.83-5.55-6.15l-.27-.03-.04-.27c-.55-3.92-3.95-6.91-7.91-6.96h-.04s-.03,0-.06,0h0Zm-1.7,17.45H8.44c-.87,0-1.57-.7-1.57-1.57v-.78c0-.86,.7-1.57,1.57-1.57h11.54c.87,0,1.57,.71,1.57,1.57v.78c0,.86-.7,1.57-1.56,1.57h0Z"/></g></g></svg>