<?xml version="1.0" encoding="UTF-8"?><svg xmlns="http://www.w3.org/2000/svg" viewBox="0 0 40 40"><g id="a"/><g id="b"><g><path d="M14.8,25.06c.12,0,.23,.04,.32,.12h0c.08,.08,.12,.2,.12,.32,0,.06,0,.12-.03,.18l-1.35,5.02-.12,.44c-.17,.52-.46,1.02-.88,1.43-.71,.71-1.64,1.06-2.57,1.06s-1.86-.36-2.57-1.06c-.71-.71-1.07-1.65-1.07-2.57s.36-1.86,1.07-2.57c.41-.42,.91-.71,1.44-.88l.43-.12,5.02-1.35c.06-.02,.12-.03,.18-.03h.01Zm0,.34h-.01s-.05,0-.08,.01l-5.03,1.35-.42,.11c-.49,.16-.93,.43-1.29,.79-.62,.62-.96,1.45-.96,2.33s.34,1.71,.96,2.33c.62,.62,1.45,.96,2.33,.96s1.71-.34,2.33-.96c.36-.36,.63-.79,.79-1.28l.12-.43,1.35-5.02s.01-.06,.01-.08c0-.04,0-.06-.02-.08-.01-.01-.04-.02-.07-.02h0Z"/><path d="M30.79,26.1c.12,0,.24,.04,.32,.12h0c.08,.08,.12,.2,.12,.32,0,.06,0,.11-.02,.18l-1.35,5.02-.12,.44c-.17,.52-.46,1.01-.88,1.43-.71,.71-1.64,1.07-2.57,1.07h0c-.93,0-1.86-.36-2.57-1.07-.71-.71-1.07-1.64-1.07-2.57s.36-1.86,1.07-2.57c.41-.42,.91-.71,1.44-.88l.43-.12,5.02-1.35c.06-.02,.13-.03,.18-.03h0Zm0,.35h0s-.06,0-.08,.01l-5.03,1.35-.42,.11c-.5,.16-.94,.43-1.3,.79-.62,.62-.96,1.45-.96,2.33s.34,1.7,.96,2.33c.62,.62,1.45,.96,2.33,.96s1.71-.34,2.33-.96c.36-.36,.63-.79,.79-1.29l.11-.43,1.35-5.02s.01-.06,.01-.09c0-.03,0-.06-.02-.08-.01-.01-.04-.02-.07-.02h0Z"/><path d="M16.82,32.25h0c1.26,0,2.23,.73,2.54,.95,1.08-.44,1.93-.52,2.39-.52h0c.22,0,.36,.02,.38,.02,.02,0,.04,0,.08,.02,.05,.01,.13,.1,.13,.2,0,.01,0,.03,0,.05-.01,.13-.17,.21-.25,.21h-.07c-.11-.02-.23-.02-.34-.02-.88,0-1.69,.31-2.04,.46,.26,.59,.27,1,.28,1.21v.06c-.02,2.25-2.46,2.65-2.7,2.7-.79,.12-4.16,.55-4.43,.62l-.37,.1,.18-.35c.17-.32,.23-.76,.35-1.6,.23-1.64,.9-2.54,1.15-2.84,.94-.96,1.9-1.28,2.73-1.28h0Zm0,.35h0c-.87,0-1.7,.39-2.47,1.17-.32,.38-.87,1.22-1.07,2.66-.09,.65-.15,1.07-.25,1.41,.43-.06,1.23-.17,2.35-.32,.76-.1,1.47-.2,1.79-.24h.03c.88-.18,2.37-.72,2.38-2.36v-.06c0-.18-.02-.54-.25-1.08l-.11-.25-.05-.04c-.29-.22-1.18-.88-2.33-.88h0Z"/><path d="M21.37,9.13s.08,0,.1,0c4.22,.05,7.69,3.19,8.25,7.26,3.29,.33,5.87,3.11,5.87,6.49,0,2.81-1.78,5.19-4.27,6.11l.56-2.09c.03-.12,.04-.24,.04-.35,0-.32-.11-.61-.32-.81-.21-.21-.5-.33-.81-.33-.13,0-.26,.02-.36,.05l-5.02,1.35-.43,.11h-.04c-.66,.23-1.24,.58-1.72,1.06-.41,.41-.74,.9-.95,1.43h-7.34l.96-3.56c.03-.12,.04-.23,.04-.34,0-.31-.11-.6-.32-.82-.21-.21-.5-.33-.82-.33-.12,0-.24,.02-.35,.05l-5.02,1.35-.43,.11h-.04c-.66,.22-1.23,.58-1.72,1.06-.46,.46-.79,1-1.01,1.58-1.46-.96-2.43-2.61-2.43-4.49,0-2.87,2.25-5.21,5.08-5.36,.8-1.9,2.46-3.34,4.5-3.82,1.13-3.33,4.28-5.73,7.99-5.73h0Zm0,.35c-3.47,0-6.55,2.21-7.66,5.49l-.06,.18-.19,.04c-1.91,.45-3.5,1.81-4.26,3.62l-.08,.2h-.22c-2.66,.16-4.75,2.36-4.75,5.03,0,1.55,.71,3,1.93,3.95,.23-.48,.54-.91,.91-1.29,.52-.52,1.15-.9,1.86-1.13h.04l.02-.02,.42-.12,5.02-1.35c.14-.04,.29-.06,.44-.06,.41,0,.79,.15,1.07,.43,.28,.28,.43,.66,.43,1.07,0,.14-.02,.28-.06,.43l-.84,3.13h6.66c.23-.5,.54-.94,.93-1.33,.52-.52,1.14-.9,1.85-1.13h.05l.02-.02,.41-.11,5.02-1.35c.13-.04,.29-.06,.45-.06,.4,0,.79,.16,1.06,.44,.27,.27,.42,.65,.42,1.06,0,.14-.02,.29-.06,.44l-.38,1.4c2.06-1.04,3.4-3.17,3.4-5.51,0-3.18-2.39-5.83-5.55-6.15l-.27-.03-.04-.27c-.55-3.92-3.95-6.91-7.91-6.96h-.04s-.03,0-.05,0h0Z"/><path d="M22.57,1.68c5.63,0,10.9,3.52,12.86,9.14,1.01,2.9,.98,5.91,.12,8.62-1.02-1.97-2.9-3.42-5.2-3.83-.07-.37-.18-.72-.29-1.07,.04-.5,.04-1.01,.01-1.52,.2-.02,.4-.06,.6-.13,1.4-.49,2.14-2.02,1.65-3.41-.38-1.11-1.42-1.8-2.53-1.8-.29,0-.59,.05-.88,.15-.11,.04-.22,.09-.32,.14-1.94-3.43-5.47-5.61-9.3-5.88,1.09-.27,2.19-.4,3.28-.4h0Zm0,.35c-.39,0-.78,.02-1.16,.05,3.04,.77,5.68,2.71,7.32,5.45,.02,0,.05-.02,.07-.03,.32-.11,.66-.17,1-.17,1.29,0,2.44,.82,2.86,2.03,.27,.77,.22,1.59-.13,2.32-.35,.73-.96,1.28-1.73,1.54-.12,.04-.23,.07-.36,.1,.01,.38,0,.77-.02,1.18,.1,.3,.17,.57,.23,.82,1.99,.41,3.69,1.58,4.8,3.25,.64-2.53,.53-5.15-.33-7.64-1.86-5.33-6.9-8.91-12.54-8.91h0Z"/></g></g></svg>