<?xml version="1.0" encoding="UTF-8"?><svg xmlns="http://www.w3.org/2000/svg" viewBox="0 0 40 40"><g id="a"/><g id="b"><g><path d="M18.98,22.2c.29,0,.53,.24,.53,.53v.78c0,.29-.24,.53-.53,.53H7.45c-.29,0-.53-.24-.53-.53v-.78c0-.29,.24-.53,.53-.53h11.53Zm9.55,0h4.57c.29,0,.52,.23,.52,.52v.8c0,.29-.23,.52-.52,.52h-4.57c-.29,0-.52-.23-.52-.52v-.8c0-.29,.23-.52,.52-.52h0Zm-4.48,0c.29,0,.52,.23,.52,.52v.8c0,.29-.23,.52-.52,.52h-1.29c-.29,0-.52-.23-.52-.52v-.8c0-.29,.23-.52,.52-.52h1.29Zm3.74,4.28c.29,0,.53,.24,.53,.53v.77c0,.29-.24,.53-.53,.53h-7.57c-.29,0-.53-.24-.53-.53v-.77c0-.29,.24-.53,.53-.53h7.57Zm-11.92,0c.29,0,.52,.23,.52,.52v.8c0,.29-.23,.52-.52,.52h-4.56c-.29,0-.52-.23-.52-.52v-.8c0-.29,.23-.52,.52-.52h4.56Zm4.66,4.45c.29,0,.53,.24,.53,.53v.77c0,.29-.24,.53-.53,.53H9.01c-.29,0-.53-.24-.53-.53v-.77c0-.29,.24-.53,.53-.53h11.53Zm11.14,0c.29,0,.53,.24,.53,.53v.77c0,.29-.24,.53-.53,.53h-7.57c-.29,0-.53-.24-.53-.53v-.77c0-.29,.24-.53,.53-.53h7.57Zm-12.7-8.39H7.45c-.1,0-.18,.08-.18,.18v.78c0,.1,.08,.18,.18,.18h11.53c.1,0,.18-.08,.18-.18v-.77c0-.1-.08-.18-.19-.18h0Zm9.56,0c-.1,0-.17,.08-.17,.17v.8c0,.09,.08,.17,.17,.17h4.56c.09,0,.17-.08,.17-.17v-.8c0-.09-.08-.17-.17-.17h-4.56Zm-4.48,0h-1.29c-.09,0-.17,.08-.17,.17v.8c0,.1,.08,.17,.17,.17h1.29c.09,0,.17-.08,.17-.17v-.8c0-.09-.08-.17-.17-.17h0Zm3.74,4.28h-7.57c-.1,0-.18,.08-.18,.18v.77c0,.1,.08,.18,.18,.18h7.57c.1,0,.18-.08,.18-.18v-.77c0-.1-.08-.18-.18-.18h0Zm-11.92,0h-4.56c-.1,0-.17,.08-.17,.17v.8c0,.09,.08,.17,.17,.17h4.56c.1,0,.17-.08,.17-.17v-.8c0-.09-.08-.17-.17-.17h0Zm4.66,4.45H9.01c-.1,0-.18,.08-.18,.19v.77c0,.1,.08,.19,.18,.19h11.53c.1,0,.18-.08,.18-.19v-.77c0-.1-.08-.18-.18-.18h0Zm11.14,0h-7.57c-.1,0-.18,.08-.18,.18v.77c0,.1,.08,.18,.19,.18h7.57c.1,0,.18-.08,.18-.18v-.77c0-.1-.08-.18-.19-.18h0Z"/><path d="M21.68,7.23s.08,0,.1,0c4.22,.05,7.68,3.19,8.25,7.26,3.29,.33,5.87,3.11,5.87,6.49s-2.68,6.27-6.08,6.51v.02h-.79v-.5c0-.68-.55-1.22-1.22-1.22h-7.57c-.67,0-1.22,.55-1.22,1.22v.51h-1.92v-.52c0-.67-.54-1.21-1.21-1.21h-4.56c-.67,0-1.21,.55-1.21,1.21v.52h-.99v-.02c-2.8-.19-5.01-2.51-5.01-5.36s2.25-5.21,5.08-5.36c.8-1.9,2.46-3.34,4.5-3.82,1.13-3.33,4.28-5.73,7.99-5.73h0ZM7.45,24.73h11.54c.67,0,1.22-.55,1.22-1.22v-.78c0-.67-.55-1.22-1.22-1.22H7.45c-.67,0-1.22,.55-1.22,1.22v.78c0,.67,.55,1.22,1.22,1.22h0Zm21.09,0h4.57c.66,0,1.21-.54,1.21-1.21v-.8c0-.67-.54-1.21-1.21-1.21h-4.57c-.66,0-1.21,.54-1.21,1.21v.8c0,.67,.54,1.21,1.21,1.21h0Zm-5.77,0h1.29c.67,0,1.21-.54,1.21-1.21v-.8c0-.67-.54-1.21-1.21-1.21h-1.29c-.67,0-1.21,.54-1.21,1.21v.8c0,.67,.54,1.21,1.21,1.21h0Zm-1.09-17.15c-3.47,0-6.55,2.21-7.66,5.49l-.06,.18-.19,.04c-1.91,.46-3.5,1.81-4.27,3.62l-.09,.2h-.21c-2.67,.16-4.75,2.36-4.75,5.03s2.06,4.83,4.68,5.01l.26,.02h.36v-.17c0-.86,.7-1.56,1.56-1.56h4.57c.86,0,1.55,.7,1.56,1.56v.17h1.23v-.16c0-.87,.71-1.57,1.57-1.57h7.57c.87,0,1.57,.7,1.57,1.57v.16h.1l.32-.02c3.23-.22,5.76-2.93,5.76-6.16s-2.39-5.83-5.56-6.15l-.27-.03-.04-.27c-.55-3.92-3.95-6.92-7.91-6.96h-.04s-.03,0-.05,0h0ZM7.45,25.08c-.87,0-1.57-.7-1.57-1.57v-.78c0-.86,.7-1.57,1.57-1.57h11.54c.86,0,1.57,.71,1.57,1.57v.78c0,.87-.71,1.57-1.57,1.57H7.45Zm21.09,0c-.86,0-1.56-.7-1.56-1.56v-.8c0-.86,.7-1.55,1.55-1.56h4.57c.86,0,1.56,.7,1.56,1.56v.8c0,.86-.7,1.56-1.55,1.56h-4.57Zm-5.77,0c-.86,0-1.56-.7-1.56-1.56v-.8c0-.86,.7-1.56,1.56-1.56h1.29c.86,0,1.56,.7,1.56,1.56v.8c0,.86-.7,1.56-1.56,1.56h-1.29Z"/></g></g></svg>