<?xml version="1.0" encoding="UTF-8"?><svg xmlns="http://www.w3.org/2000/svg" viewBox="0 0 40 40"><g id="a"/><g id="b"><path d="M22.71,22.96V7.2c0-1.49-1.21-2.71-2.71-2.71h-2.14c-1.49,0-2.71,1.22-2.71,2.71v15.76c-1.85,1.23-3.07,3.32-3.07,5.7,0,3.78,3.06,6.84,6.84,6.84s6.84-3.06,6.84-6.84c0-2.38-1.22-4.48-3.07-5.7ZM17.87,5.68h2.14c.83,0,1.51,.68,1.51,1.52v9.3h-5.17V7.2c0-.83,.68-1.51,1.51-1.52Zm1.07,27.96c-2.75,0-4.97-2.23-4.97-4.98,0-2.75,2.23-4.97,4.97-4.98,2.75,0,4.97,2.23,4.98,4.98,0,2.75-2.23,4.97-4.98,4.98ZM27.51,6.36h-3.28c-.22,0-.39,.18-.39,.4v1.28c0,.22,.18,.4,.39,.4h3.28c.22,0,.39-.18,.39-.4v-1.28c0-.22-.18-.4-.39-.4Zm-1.61,4.58h-1.67c-.22,0-.39,.18-.39,.4v1.28c0,.22,.18,.39,.39,.39h1.67c.22,0,.39-.18,.39-.39v-1.28c0-.22-.17-.4-.39-.4Zm0,4.58h-1.67c-.22,0-.39,.18-.39,.4v1.28c0,.22,.18,.39,.39,.4h1.67c.22,0,.4-.18,.4-.4v-1.28c0-.22-.18-.4-.4-.4Zm1.61,4.58h-3.28c-.22,0-.39,.18-.39,.4v1.28c0,.22,.18,.39,.39,.39h3.28c.22,0,.39-.18,.39-.39v-1.28c0-.22-.17-.4-.39-.4Z"/></g></svg>