<?xml version="1.0" encoding="UTF-8"?><svg xmlns="http://www.w3.org/2000/svg" viewBox="0 0 40 40"><g id="a"/><g id="b"><path d="M20.8,6.38v-.67h0v-.23h-.04c-.1-.28-.36-.49-.67-.49s-.58,.21-.67,.49h-.05v.89c-7.07,.3-12.79,5.5-13.5,12.12l.34,.06c.36-1.49,1.69-2.6,3.29-2.6,1.64,0,3,1.17,3.31,2.72l.03,.14h.35l.03-.14c.31-1.55,1.67-2.73,3.31-2.73,1.21,0,2.26,.64,2.86,1.59v12.89h0v1.7c0,.81-.62,1.43-1.34,1.43-.71,0-1.33-.62-1.33-1.43,0-.4-.32-.72-.72-.72-.34,0-.62,.23-.7,.55h-.02v.17c0,1.56,1.22,2.86,2.78,2.87,1.56,0,2.77-1.31,2.78-2.87v-1.7h0v-13.08c.61-.85,1.6-1.4,2.73-1.4,1.64,0,3,1.17,3.31,2.72l.03,.14h.35l.03-.14c.31-1.55,1.66-2.73,3.31-2.73,1.54,0,2.84,1.03,3.25,2.45l.34-.07c-.78-6.49-6.4-11.58-13.34-11.94Z"/></g></svg>