<?xml version="1.0" encoding="UTF-8"?><svg xmlns="http://www.w3.org/2000/svg" viewBox="0 0 40 40"><g id="a"/><g id="b"><g><path d="M30.03,14.25c-.57-4.07-4.04-7.21-8.25-7.26-.02,0-.05,0-.1,0-3.71,0-6.86,2.4-7.99,5.73-2.04,.48-3.7,1.92-4.5,3.82-2.83,.16-5.08,2.49-5.08,5.36,0,1.53,.64,2.9,1.67,3.88-.09-.15-.15-.33-.15-.51,0-.15,.04-.32,.12-.46l.33-.58c.16-.3,.49-.49,.84-.49,.11,0,.21,.02,.31,.05,.13-.22,.34-.38,.59-.45l.6-.16c.08-.02,.16-.04,.24-.04,.04-.06,.08-.12,.13-.17l.46-.46c.18-.18,.42-.29,.69-.29,.09-.45,.49-.78,.96-.78h.66c.47,0,.87,.34,.95,.78,.25,0,.51,.1,.69,.29l.46,.46s.07,.08,.1,.12h.05c.09,0,.18,.01,.26,.04l.62,.17c.26,.07,.47,.25,.6,.47,.07-.02,.15-.03,.23-.03,.35,0,.67,.19,.84,.49l.33,.57c.09,.15,.13,.32,.13,.48,0,.25-.1,.49-.27,.67,.09,.15,.14,.32,.14,.5,0,.09,0,.17-.03,.25l-.16,.58h6.06c.21-.53,.53-1.02,.95-1.43,.48-.48,1.06-.83,1.72-1.05h.04l.43-.12,5.02-1.35c.11-.03,.23-.05,.36-.05,.31,0,.61,.12,.81,.33,.21,.22,.33,.51,.33,.82,0,.11-.02,.23-.05,.35l-.56,2.09c2.49-.92,4.27-3.3,4.27-6.11,0-3.38-2.57-6.16-5.87-6.49Z"/><path d="M31.41,24.09c-.08-.08-.2-.12-.32-.12-.06,0-.12,0-.18,.03l-5.02,1.35-.43,.11c-.53,.18-1.03,.47-1.44,.88-.71,.71-1.07,1.64-1.07,2.57s.36,1.86,1.07,2.57c.71,.71,1.64,1.07,2.57,1.07h0c.93,0,1.86-.36,2.57-1.07,.42-.42,.7-.91,.88-1.43l.12-.44,1.35-5.02c.02-.06,.02-.12,.02-.18,0-.12-.04-.24-.12-.32h0Z"/><path d="M16.14,25.28s-.01-.09-.04-.14l-.33-.57c-.05-.09-.15-.14-.24-.14-.04,0-.1,0-.14,.04l-.84,.48,.17-.65s0-.05,0-.07c0-.12-.08-.24-.21-.27l-.63-.17s-.05-.01-.07,0c-.12,0-.24,.08-.27,.21l-.49,1.82-1.22,.71v-1.33l1.33-1.33c.05-.06,.08-.13,.08-.2,0-.07-.03-.14-.08-.2l-.46-.46c-.06-.06-.13-.08-.2-.08s-.14,.03-.2,.08l-.47,.47v-1.06c0-.16-.13-.28-.28-.28h-.66c-.16,0-.28,.12-.28,.28v1.06l-.47-.47c-.05-.06-.13-.08-.2-.08s-.14,.03-.2,.08l-.46,.46c-.05,.05-.08,.12-.08,.2s.03,.14,.08,.2l1.33,1.33v1.33l-1.15-.67-.49-1.82c-.03-.13-.14-.21-.27-.21-.02,0-.05,0-.09,.01l-.62,.17c-.12,.03-.21,.15-.21,.27,0,.02,0,.05,.01,.08l.17,.64-.92-.53s-.09-.04-.14-.04c-.09,0-.19,.05-.24,.14l-.33,.56s-.04,.09-.04,.14c0,.09,.05,.19,.14,.24l.92,.53-.65,.17c-.13,.03-.21,.15-.21,.27,0,.02,0,.05,.01,.08l.17,.62c.04,.12,.14,.21,.27,.21,.02,0,.05,0,.06,0l1.83-.49,1.15,.66-1.15,.66-1.82-.49s-.05,0-.07,0c-.13,0-.24,.08-.27,.21l-.17,.63s0,.04,0,.07c0,.12,.08,.24,.21,.27l.65,.17-.92,.53c-.09,.05-.14,.14-.14,.24,0,.04,0,.1,.04,.14l.33,.57c.05,.09,.14,.14,.24,.14,.05,0,.1-.01,.14-.03l.92-.53-.17,.65s0,.04,0,.07c0,.12,.08,.24,.21,.27l.63,.17s.05,0,.07,0c.12,0,.23-.08,.27-.2l.49-1.83,1.15-.66v1.41l-1.33,1.33c-.05,.05-.08,.13-.08,.2s.03,.14,.08,.2l.46,.46c.05,.05,.12,.08,.2,.08s.14-.03,.2-.08l.47-.48v.98c0,.15,.12,.28,.28,.28h.66c.15,0,.28-.12,.28-.28v-.98l.47,.47c.05,.05,.13,.08,.2,.08s.14-.03,.2-.08l.46-.47c.05-.05,.08-.13,.08-.2,0-.07-.03-.14-.08-.2l-1.33-1.33v-1.41l1.22,.7,.49,1.82c.04,.12,.15,.21,.27,.21,.02,0,.05,0,.07,0l.64-.17c.13-.03,.21-.15,.21-.27,0-.03,0-.05,0-.06l-.18-.66,.85,.49s.09,.04,.14,.04c.1,0,.19-.05,.24-.14l.33-.57s.04-.1,.04-.14c0-.1-.05-.19-.14-.24l-.85-.49,.65-.17c.12-.03,.21-.15,.21-.27,0-.03,0-.05,0-.07l-.17-.64c-.03-.12-.14-.21-.27-.21-.02,0-.05,0-.08,.01l-1.81,.48-1.22-.7,1.22-.71,1.82,.49s.05,0,.07,0c.12,0,.23-.08,.27-.21l.17-.64s0-.05,0-.07c0-.13-.08-.24-.2-.27l-.65-.17,.85-.49c.09-.05,.14-.15,.14-.24Z"/></g></g></svg>