<?xml version="1.0" encoding="UTF-8"?><svg xmlns="http://www.w3.org/2000/svg" viewBox="0 0 40 40"><g id="a"/><g id="b"><g><path d="M18.65,25.97c.29,0,.53,.24,.53,.53v.78c0,.29-.24,.53-.53,.53H7.12c-.29,0-.53-.24-.53-.53v-.78c0-.29,.23-.53,.53-.53h11.53Zm9.55,0h4.56c.29,0,.52,.23,.52,.52v.8c0,.29-.23,.52-.52,.52h-4.56c-.29,0-.52-.23-.52-.52v-.8c0-.29,.23-.52,.52-.52h0Zm-4.48,0c.29,0,.52,.23,.52,.52v.8c0,.29-.23,.52-.52,.52h-1.29c-.29,0-.52-.23-.52-.52v-.8c0-.29,.23-.52,.52-.52h1.29Zm3.74,4.28c.29,0,.53,.24,.53,.53v.77c0,.29-.24,.53-.53,.53h-7.57c-.29,0-.53-.24-.53-.53v-.77c0-.29,.24-.53,.53-.53h7.57Zm-11.92,0c.29,0,.52,.23,.52,.52v.8c0,.29-.23,.52-.52,.52h-4.56c-.29,0-.52-.23-.52-.52v-.8c0-.29,.23-.52,.52-.52h4.56Zm4.66,4.45c.29,0,.53,.24,.53,.53v.77c0,.29-.24,.53-.53,.53H8.68c-.29,0-.53-.24-.53-.53v-.77c0-.29,.24-.53,.53-.53h11.53Zm11.14,0c.29,0,.53,.24,.53,.53v.77c0,.29-.24,.53-.53,.53h-7.57c-.29,0-.53-.24-.53-.53v-.77c0-.29,.24-.53,.53-.53h7.57Zm-12.7-8.39H7.12c-.1,0-.18,.08-.18,.18v.78c0,.1,.08,.18,.18,.18h11.53c.1,0,.18-.08,.18-.18v-.77c0-.1-.08-.18-.19-.18h0Zm9.55,0c-.09,0-.17,.08-.17,.17v.8c0,.09,.08,.17,.17,.17h4.56c.1,0,.17-.08,.17-.17v-.8c0-.1-.08-.17-.17-.17h-4.56Zm-4.48,0h-1.29c-.1,0-.17,.08-.17,.17v.8c0,.09,.07,.17,.17,.17h1.29c.09,0,.17-.08,.17-.17v-.8c0-.09-.08-.17-.17-.17h0Zm3.74,4.28h-7.57c-.1,0-.18,.08-.18,.18v.77c0,.1,.08,.18,.18,.18h7.57c.1,0,.18-.08,.18-.18v-.77c0-.1-.08-.18-.18-.18h0Zm-11.92,0h-4.56c-.09,0-.17,.08-.17,.17v.8c0,.09,.08,.17,.17,.17h4.56c.1,0,.17-.08,.17-.17v-.8c0-.09-.08-.17-.17-.17h0Zm4.66,4.45H8.68c-.1,0-.18,.08-.18,.19v.77c0,.1,.08,.19,.19,.19h11.53c.1,0,.18-.09,.18-.19v-.77c0-.1-.08-.19-.19-.19h0Zm11.14,0h-7.57c-.1,0-.18,.08-.18,.18v.77c0,.1,.08,.18,.19,.18h7.57c.1,0,.18-.08,.18-.18v-.77c0-.1-.08-.18-.18-.18h0Z"/><path d="M21.35,11s.08,0,.1,0c4.21,.05,7.68,3.19,8.25,7.26,3.29,.33,5.87,3.11,5.87,6.49s-2.68,6.28-6.08,6.51v.02h-.79v-.51c0-.68-.55-1.22-1.22-1.22h-7.57c-.67,0-1.22,.55-1.22,1.22v.51h-1.92v-.52c0-.67-.55-1.21-1.21-1.21h-4.57c-.67,0-1.21,.55-1.21,1.21v.52h-.99v-.02c-2.8-.19-5.01-2.51-5.01-5.36s2.25-5.21,5.08-5.36c.8-1.9,2.46-3.33,4.51-3.82,1.12-3.33,4.27-5.73,7.99-5.73h0ZM7.12,28.5h11.53c.67,0,1.22-.55,1.22-1.22v-.78c0-.67-.55-1.22-1.22-1.22H7.12c-.67,0-1.22,.55-1.22,1.22v.78c0,.67,.55,1.22,1.23,1.22h0Zm21.08,0h4.57c.66,0,1.21-.54,1.21-1.21v-.8c0-.67-.54-1.21-1.21-1.21h-4.57c-.67,0-1.21,.55-1.21,1.21v.8c0,.66,.54,1.21,1.21,1.21h0Zm-5.77,0h1.29c.67,0,1.21-.54,1.21-1.21v-.8c0-.67-.54-1.21-1.21-1.21h-1.29c-.67,0-1.21,.54-1.21,1.21v.8c0,.67,.54,1.21,1.21,1.21h0Zm-1.09-17.16c-3.47,0-6.55,2.21-7.66,5.5l-.06,.18-.19,.05c-1.91,.45-3.5,1.81-4.27,3.62l-.08,.2h-.22c-2.66,.16-4.75,2.36-4.75,5.03s2.06,4.83,4.69,5.01l.26,.02h.36v-.17c0-.86,.7-1.56,1.55-1.56h4.57c.86,0,1.55,.7,1.56,1.55v.17h1.23v-.16c0-.87,.7-1.57,1.57-1.57h7.57c.87,0,1.57,.71,1.57,1.57v.16h.1l.32-.02c3.23-.22,5.76-2.93,5.76-6.16s-2.39-5.83-5.56-6.15l-.27-.03-.04-.27c-.55-3.92-3.95-6.91-7.91-6.96h-.04s-.03,0-.05,0h0ZM7.12,28.85c-.87,0-1.57-.7-1.57-1.57v-.78c0-.86,.71-1.57,1.57-1.57h11.54c.86,0,1.57,.71,1.57,1.57v.78c0,.86-.71,1.57-1.57,1.57H7.12Zm21.08,0c-.86,0-1.56-.7-1.56-1.56v-.8c0-.86,.7-1.56,1.55-1.56h4.57c.86,0,1.56,.7,1.56,1.56v.8c0,.86-.7,1.55-1.55,1.56h-4.57Zm-5.77,0c-.86,0-1.56-.7-1.56-1.56v-.8c0-.86,.7-1.56,1.56-1.56h1.29c.86,0,1.56,.7,1.56,1.56v.8c0,.86-.7,1.56-1.56,1.56h-1.29Z"/><path d="M22.6,3.46c5.63,0,10.9,3.52,12.87,9.14,1.01,2.9,.98,5.91,.12,8.62-1.02-1.97-2.91-3.42-5.2-3.83-.07-.37-.18-.72-.29-1.07,.04-.5,.04-1.01,.01-1.52,.2-.02,.4-.06,.6-.13,1.4-.49,2.14-2.02,1.65-3.42-.39-1.11-1.42-1.8-2.53-1.8-.29,0-.59,.05-.88,.15-.11,.04-.22,.09-.33,.14-1.94-3.43-5.47-5.61-9.29-5.89,1.1-.27,2.2-.4,3.29-.4h0Zm0,.35c-.39,0-.78,.02-1.16,.05,3.04,.77,5.68,2.71,7.32,5.45,.02-.01,.05-.02,.07-.03,.32-.11,.66-.17,1-.17,1.29,0,2.44,.82,2.86,2.03,.27,.76,.22,1.59-.13,2.32-.35,.73-.97,1.28-1.73,1.54-.12,.04-.23,.07-.36,.1,0,.38,0,.78-.02,1.18,.1,.3,.17,.57,.23,.82,1.99,.41,3.69,1.58,4.8,3.25,.65-2.52,.53-5.15-.33-7.63-1.86-5.33-6.9-8.91-12.54-8.91h0Z"/></g></g></svg>