<?xml version="1.0" encoding="UTF-8"?><svg xmlns="http://www.w3.org/2000/svg" viewBox="0 0 40 40"><g id="a"/><g id="b"><path d="M20.08,5c.32,0,.58,.21,.67,.49h.04v.23h0v.67c6.94,.36,12.56,5.45,13.34,11.94l-.34,.07c-.41-1.41-1.71-2.44-3.25-2.44-1.64,0-3,1.17-3.31,2.73l-.03,.14h-.35l-.03-.14c-.31-1.55-1.66-2.73-3.3-2.73h0c-1.13,0-2.12,.55-2.73,1.4v13.08h0v1.7c0,1.56-1.22,2.86-2.78,2.87-1.56,0-2.77-1.31-2.78-2.87v-.17h.02c.08-.31,.36-.55,.7-.55,.4,0,.72,.32,.72,.72,0,.81,.62,1.43,1.34,1.43,.71,0,1.34-.62,1.34-1.43v-1.7h0v-12.89c-.6-.95-1.65-1.59-2.85-1.59-1.64,0-3,1.17-3.31,2.73l-.03,.14h-.35l-.03-.14c-.31-1.55-1.66-2.73-3.3-2.73h0c-1.6,0-2.93,1.11-3.29,2.6l-.34-.06c.71-6.62,6.43-11.82,13.5-12.12v-.89h.04c.1-.28,.36-.49,.67-.49h0Zm0,.35c-.18,0-.3,.13-.35,.25l-.03,.08v1.03h-.33c-3.33,.16-6.5,1.43-8.92,3.61-2.07,1.86-3.48,4.28-4.05,6.9,.68-.99,1.81-1.62,3.07-1.62h0c1.59,0,2.99,1.03,3.51,2.5,.52-1.48,1.92-2.5,3.51-2.5,1.29,0,2.46,.66,3.15,1.75l.05,.08v14.69c0,.98-.76,1.78-1.68,1.78-.92,0-1.68-.8-1.68-1.78,0-.2-.17-.37-.37-.37-.17,0-.32,.12-.36,.28v.09c0,1.39,1.08,2.52,2.42,2.52,1.33,0,2.42-1.13,2.43-2.52v-14.89l.07-.09c.7-.97,1.82-1.54,3.01-1.54,1.59,0,2.99,1.03,3.51,2.5,.52-1.48,1.92-2.5,3.51-2.5,1.23,0,2.36,.61,3.04,1.58-1.26-5.81-6.46-10.13-12.81-10.46l-.33-.02v-1.04l-.03-.08c-.04-.13-.16-.25-.34-.25h0Z"/></g></svg>