<?xml version="1.0" encoding="UTF-8"?><svg xmlns="http://www.w3.org/2000/svg" viewBox="0 0 40 40"><g id="a"/><g id="b"><g><path d="M8.44,22.73h11.53c.29,0,.53-.23,.53-.53v-.77c0-.29-.24-.53-.53-.53H8.44c-.29,0-.53,.24-.53,.53v.77c0,.29,.24,.53,.53,.53Zm11.53,6.71H8.44c-.29,0-.53,.24-.53,.53v.77c0,.29,.23,.53,.53,.53h11.53c.29,0,.53-.24,.53-.53v-.77c0-.29-.24-.53-.53-.53Zm-5.96-3.79v.78c0,.29,.24,.53,.53,.53h7.57c.29,0,.53-.24,.53-.53v-.78c0-.29-.24-.53-.53-.53h-7.57c-.29,0-.53,.24-.53,.53Zm16.29,8.02c-.17-.32-.23-.76-.35-1.6l-.17,.02,.17-.02c-.23-1.63-.9-2.54-1.14-2.83-.96-.97-1.92-1.3-2.75-1.3-1.26,0-2.23,.73-2.54,.96-1.08-.44-1.93-.52-2.39-.52-.23,0-.36,.02-.38,.02-.02,0-.04,0-.07,.02-.05,.02-.14,.1-.13,.2,0,.01,0,.04,0,.06,.01,.14,.2,.22,.27,.2,.02,0,.04,0,.04,0,.13-.01,.25-.02,.36-.02,.88,0,1.69,.31,2.04,.46-.26,.59-.27,1-.28,1.2v.07c.02,2.25,2.46,2.64,2.69,2.69,.8,.12,4.17,.55,4.44,.62l.38,.1-.18-.35Z"/><path d="M30.03,13.24c-.57-4.07-4.04-7.21-8.25-7.26-.02,0-.05,0-.1,0-3.71,0-6.86,2.4-7.99,5.73-2.04,.49-3.7,1.92-4.5,3.82-2.83,.15-5.08,2.49-5.08,5.36s2.21,5.17,5.01,5.36v.02h4.21v-.61c0-.67,.55-1.22,1.22-1.22h7.57c.67,0,1.22,.55,1.22,1.22v.61h6.48v-.02c3.4-.23,6.08-3.05,6.08-6.51s-2.57-6.16-5.87-6.49Zm-8.83,8.96c0,.67-.55,1.22-1.22,1.23H8.44c-.67,0-1.22-.55-1.22-1.22v-.78c0-.67,.55-1.22,1.22-1.22h11.54c.67,0,1.22,.55,1.22,1.22v.78Z"/></g></g></svg>