<?xml version="1.0" encoding="UTF-8"?><svg xmlns="http://www.w3.org/2000/svg" viewBox="0 0 40 40"><g id="a"/><g id="b"><g><path d="M21.39,10.65s.08,0,.1,0c4.22,.05,7.69,3.19,8.25,7.26,3.29,.33,5.87,3.11,5.87,6.49,0,2.81-1.78,5.19-4.27,6.11l.56-2.09c.03-.12,.05-.24,.05-.35,0-.31-.11-.6-.33-.82-.21-.21-.5-.33-.81-.33-.13,0-.25,.02-.36,.05l-5.02,1.35-.43,.12h-.04c-.66,.23-1.24,.58-1.72,1.06-.42,.41-.74,.9-.95,1.43h-6.06l.16-.59c.02-.08,.03-.16,.03-.25,0-.18-.05-.35-.14-.49,.17-.18,.27-.42,.27-.67,0-.17-.04-.33-.13-.48l-.33-.57c-.17-.3-.49-.49-.85-.49-.08,0-.16,0-.23,.03-.12-.22-.34-.4-.6-.47l-.62-.17c-.08-.02-.17-.04-.26-.04-.02,0-.04,0-.05,0-.03-.04-.06-.08-.1-.12l-.46-.46c-.18-.18-.43-.28-.69-.28-.09-.45-.48-.78-.95-.78h-.66c-.47,0-.86,.34-.95,.78-.27,0-.52,.11-.69,.29l-.46,.46c-.05,.05-.1,.11-.13,.16-.08,0-.16,.02-.24,.04l-.6,.16c-.26,.07-.46,.23-.59,.45-.1-.03-.21-.05-.31-.05-.36,0-.68,.19-.84,.49l-.33,.58c-.08,.15-.12,.31-.12,.46,0,.19,.05,.36,.15,.51-1.03-.98-1.67-2.35-1.67-3.88,0-2.87,2.25-5.21,5.08-5.36,.8-1.9,2.46-3.33,4.5-3.82,1.13-3.33,4.28-5.73,7.99-5.73h0Zm0,.35c-3.47,0-6.55,2.21-7.66,5.49l-.06,.18-.18,.04c-1.91,.46-3.5,1.81-4.27,3.62l-.09,.2h-.21c-2.67,.16-4.75,2.36-4.75,5.03,0,1.05,.32,2.05,.92,2.89,.02-.05,.05-.11,.08-.16l.34-.58c.22-.41,.66-.66,1.14-.66,.05,0,.11,0,.17,.01,.17-.19,.39-.33,.65-.4l.6-.16s.09-.03,.14-.03c.03-.03,.05-.06,.08-.09l.46-.45c.18-.18,.41-.31,.67-.36,.2-.48,.68-.81,1.21-.81h.66c.54,0,1.02,.33,1.22,.81,.25,.05,.48,.18,.67,.36l.46,.46s.01,.01,.02,.02c.08,0,.17,.02,.24,.04l.62,.17c.26,.07,.5,.22,.67,.43,.02,0,.05,0,.07,0,.47,0,.91,.25,1.15,.66l.33,.57c.11,.2,.17,.43,.17,.66,0,.26-.07,.5-.21,.72,.05,.14,.08,.29,.08,.45,0,.12-.01,.22-.04,.33l-.04,.16h5.38c.23-.5,.54-.94,.93-1.33,.52-.52,1.15-.9,1.86-1.13h.04l.02-.02,.43-.11,5.02-1.35c.13-.04,.29-.06,.45-.06,.4,0,.79,.16,1.06,.43,.28,.29,.43,.66,.43,1.07,0,.14-.02,.29-.06,.44l-.37,1.4c2.06-1.04,3.4-3.17,3.4-5.51,0-3.18-2.39-5.83-5.55-6.15l-.27-.03-.04-.27c-.55-3.92-3.95-6.92-7.91-6.96h-.04s-.03,0-.05,0h0Z"/><path d="M30.81,27.63c.12,0,.24,.04,.32,.12h0c.08,.08,.12,.2,.12,.32,0,.06,0,.12-.02,.18l-1.35,5.02-.12,.44c-.17,.52-.46,1.01-.88,1.43-.71,.71-1.64,1.07-2.57,1.07h0c-.93,0-1.86-.36-2.57-1.07s-1.06-1.64-1.06-2.57,.36-1.86,1.06-2.57c.42-.42,.91-.71,1.44-.88l.43-.11,5.02-1.35c.06-.02,.12-.02,.18-.02h0Zm0,.35h0s-.05,0-.08,.01l-5.03,1.35-.42,.11c-.5,.17-.93,.43-1.29,.8-.62,.62-.96,1.45-.96,2.33s.34,1.71,.96,2.33c.62,.62,1.44,.96,2.32,.96s1.71-.34,2.33-.96c.36-.36,.62-.79,.79-1.29l.11-.43,1.35-5.02s.01-.06,.01-.09c0-.03,0-.06-.03-.08,0-.01-.04-.02-.07-.02h0Z"/><path d="M11.27,25.8c.15,0,.28,.12,.28,.28v1.06l.47-.47c.05-.06,.13-.08,.2-.08s.14,.03,.2,.08l.46,.46c.06,.06,.08,.13,.08,.2s-.03,.14-.08,.2l-1.33,1.33v1.33l1.22-.71,.49-1.82c.03-.13,.15-.21,.27-.21h0s.05,0,.07,.01l.63,.17c.12,.04,.21,.15,.21,.27,0,.02,0,.04,0,.07l-.17,.65,.84-.48s.1-.04,.14-.04h0c.1,0,.19,.05,.24,.14l.33,.57s.04,.09,.04,.14c0,.1-.05,.19-.14,.24l-.85,.49,.65,.17c.12,.04,.2,.14,.2,.27,0,.02,0,.04,0,.07l-.17,.64c-.03,.12-.14,.2-.27,.21-.02,0-.05,0-.07,0l-1.82-.49-1.22,.71,1.22,.7,1.81-.48s.06-.01,.09-.01c.12,0,.23,.08,.27,.21l.17,.64s0,.04,0,.07c0,.12-.08,.24-.21,.27l-.65,.17,.85,.49c.09,.05,.14,.14,.14,.24,0,.04,0,.09-.04,.14l-.33,.57c-.05,.09-.14,.14-.24,.14h0s-.09-.01-.13-.04l-.85-.49,.18,.66s0,.04,0,.06c0,.12-.08,.24-.21,.27l-.64,.17s-.04,0-.07,0c-.12,0-.24-.08-.27-.21l-.49-1.82-1.22-.71v1.41l1.33,1.33c.05,.06,.08,.13,.08,.2s-.03,.14-.08,.2l-.46,.47c-.05,.05-.12,.08-.2,.08-.07,0-.14-.03-.2-.08l-.47-.47v.98c0,.16-.12,.28-.28,.28h-.65c-.16,0-.28-.12-.28-.28v-.98l-.47,.48c-.05,.05-.12,.08-.2,.08s-.14-.03-.2-.08l-.46-.46c-.06-.05-.08-.13-.08-.2s.03-.15,.08-.2l1.33-1.33v-1.41l-1.15,.66-.49,1.83c-.04,.12-.15,.2-.27,.2-.02,0-.04,0-.07,0l-.63-.17c-.12-.04-.21-.15-.21-.27,0-.03,0-.06,0-.07l.18-.65-.92,.53s-.09,.03-.13,.03c-.1,0-.19-.05-.24-.14l-.33-.57s-.04-.1-.04-.14c0-.1,.05-.19,.14-.24l.92-.53-.65-.17c-.12-.03-.21-.15-.21-.27,0-.03,0-.05,0-.07l.17-.63c.03-.13,.14-.21,.27-.21,.03,0,.05,0,.07,0l1.82,.49,1.15-.66-1.15-.66-1.83,.49s-.04,0-.06,0h0c-.13,0-.24-.08-.27-.21l-.17-.62s-.01-.07-.01-.08c0-.12,.08-.24,.21-.27l.65-.17-.92-.53c-.09-.05-.14-.15-.14-.24,0-.05,.01-.1,.04-.14l.33-.56c.05-.09,.15-.14,.24-.14h0s.09,.01,.14,.04l.92,.53-.17-.64s-.01-.06-.01-.08c0-.12,.08-.24,.21-.27l.62-.17s.06-.01,.09-.01c.12,0,.24,.08,.27,.21l.49,1.82,1.15,.66v-1.33l-1.33-1.33c-.06-.06-.08-.13-.08-.2s.03-.15,.08-.2l.46-.46c.06-.06,.13-.08,.2-.08s.14,.03,.2,.08l.47,.48v-1.06c0-.16,.13-.28,.28-.28h.65Zm-.07,.35h-.52v1.83l-.59-.59-.43-.43-.37,.37,1.29,1.29,.1,.1v2.07l-.52-.3-1.15-.66-.13-.07-.04-.14-.47-1.76-.51,.13,.16,.58,.21,.81-.73-.42-.86-.5-.26,.45,.86,.5,.72,.42-.81,.22-.58,.16,.14,.5,1.75-.47,.14-.04,.12,.07,1.15,.66,.52,.3-.52,.3-1.15,.66-.12,.07-.14-.04-1.76-.47-.14,.5,.58,.16,.81,.22-.72,.42-.86,.5,.26,.45,.86-.5,.73-.42-.22,.81-.16,.58,.51,.14,.47-1.76,.04-.14,.13-.07,1.15-.66,.52-.3v2.15l-.1,.1-1.29,1.29,.37,.37,.43-.43,.59-.59v1.75h.52v-1.75l.59,.59,.43,.43,.37-.37-1.29-1.29-.1-.1v-2.15l.52,.3,1.22,.71,.12,.07,.04,.14,.47,1.76,.5-.13-.16-.58-.22-.81,.73,.42,.79,.46,.26-.45-.79-.46-.73-.42,.81-.22,.58-.16-.13-.5-1.76,.47-.14,.04-.12-.07-1.22-.7-.52-.3,.52-.3,1.22-.71,.12-.07,.14,.04,1.76,.47,.13-.5-.58-.16-.81-.22,.73-.42,.79-.46-.26-.45-.79,.45-.72,.42,.22-.81,.16-.58-.5-.13-.47,1.75-.04,.14-.12,.07-1.22,.71-.52,.3v-2.07l.1-.1,1.29-1.29-.37-.37-.43,.43-.59,.59v-1.83h0Z"/><path d="M22.55,3.32c5.64,0,10.91,3.52,12.87,9.14,1.01,2.9,.98,5.91,.12,8.62-1.02-1.97-2.91-3.42-5.2-3.83-.07-.37-.18-.72-.29-1.07,.04-.5,.05-1.01,.01-1.52,.2-.02,.41-.06,.6-.13,1.4-.49,2.14-2.02,1.65-3.41-.39-1.11-1.42-1.8-2.53-1.8-.29,0-.59,.05-.88,.15-.12,.04-.22,.09-.33,.14-1.94-3.43-5.47-5.6-9.3-5.88,1.09-.27,2.2-.4,3.28-.4h0Zm0,.35c-.39,0-.78,.02-1.16,.05,3.04,.78,5.68,2.71,7.32,5.45,.02,0,.05-.02,.07-.03,.32-.11,.66-.17,1-.17,1.29,0,2.43,.82,2.86,2.03,.27,.76,.22,1.58-.13,2.31-.35,.73-.97,1.28-1.73,1.54-.11,.04-.23,.07-.36,.1,.01,.38,0,.77-.02,1.18,.1,.3,.17,.56,.23,.82,1.98,.41,3.69,1.58,4.79,3.25,.65-2.53,.54-5.15-.33-7.64-1.86-5.33-6.9-8.91-12.54-8.91h0Z"/></g></g></svg>