<?xml version="1.0" encoding="UTF-8"?><svg xmlns="http://www.w3.org/2000/svg" viewBox="0 0 40 40"><g id="a"/><g id="b"><g><path d="M15.35,25.94c-.08-.08-.19-.12-.31-.12-.05,0-.11,0-.17,.02l-4.81,1.29-.41,.11c-.51,.17-.98,.45-1.38,.85-.68,.68-1.02,1.57-1.02,2.47s.34,1.78,1.02,2.46c.68,.68,1.57,1.02,2.46,1.02h0c.89,0,1.78-.34,2.46-1.02,.4-.4,.68-.87,.84-1.37l.11-.42,1.29-4.81c.01-.06,.02-.11,.02-.17,0-.12-.04-.23-.12-.31h0Zm15.32,1c-.08-.08-.19-.12-.31-.12-.05,0-.11,0-.17,.02l-4.81,1.29-.41,.11c-.51,.17-.98,.45-1.38,.85-.68,.68-1.02,1.58-1.02,2.47s.34,1.78,1.02,2.47c.68,.68,1.57,1.02,2.46,1.02s1.79-.34,2.47-1.02c.4-.4,.68-.87,.84-1.37l.11-.42,1.29-4.81c.02-.06,.02-.11,.02-.17,0-.12-.04-.23-.12-.31h0Zm-10.46,4.37h0c-.06-.07-.15-.09-.23-.09-.04,0-.08,0-.12,.02l-2.92,.78-.25,.07c-.32,.11-.62,.28-.87,.53-.43,.42-.64,.99-.64,1.54s.21,1.12,.64,1.54c.43,.43,.99,.64,1.54,.64s1.12-.21,1.54-.64c.25-.25,.43-.54,.53-.86l.07-.26,.79-2.92s.02-.08,.02-.12c0-.08-.02-.17-.09-.23h0Z"/><path d="M34.77,12.34c-2.22-6.37-8.92-9.9-15.34-8.3,3.63,.27,6.99,2.33,8.83,5.59,.1-.05,.2-.1,.31-.13,1.33-.46,2.78,.24,3.25,1.57,.46,1.33-.24,2.78-1.57,3.25-.19,.07-.38,.11-.57,.13,.03,.48,.02,.96-.01,1.44,.11,.33,.21,.67,.28,1.02,2.18,.39,3.97,1.77,4.94,3.64,.82-2.58,.85-5.44-.11-8.19Z"/><path d="M29.35,17.51c-.54-3.9-3.87-6.91-7.91-6.96-.02,0-.05,0-.09,0-3.56,0-6.57,2.3-7.66,5.49-1.95,.47-3.55,1.84-4.31,3.66-2.71,.15-4.87,2.39-4.87,5.14,0,1.8,.93,3.38,2.33,4.3,.2-.56,.53-1.08,.96-1.52,.46-.46,1.01-.8,1.64-1.01h.03l.41-.12,4.81-1.29c.11-.03,.22-.05,.34-.05,.3,0,.58,.11,.78,.31,.21,.21,.31,.48,.31,.78,0,.11-.02,.22-.05,.34l-.91,3.4h7.04c.2-.51,.51-.97,.91-1.37,.46-.46,1.01-.8,1.64-1.01h.04l.41-.12,4.81-1.29c.1-.03,.22-.05,.34-.05,.3,0,.58,.11,.78,.31,.2,.2,.32,.48,.31,.78,0,.11-.02,.23-.05,.34l-.54,2c2.39-.88,4.09-3.16,4.09-5.86,0-3.24-2.46-5.9-5.62-6.22Z"/></g></g></svg>