<?xml version="1.0" encoding="UTF-8"?><svg xmlns="http://www.w3.org/2000/svg" viewBox="0 0 40 40"><g id="a"/><g id="b"><g><path d="M8.15,24.58h11.53c.29,0,.53,.24,.53,.53v.77c0,.29-.24,.53-.53,.53H8.15c-.29,0-.53-.24-.53-.53v-.77c0-.29,.24-.53,.53-.53h0Zm6.11,4.23h7.57c.29,0,.53,.24,.53,.53v.77c0,.29-.24,.53-.53,.53h-7.57c-.29,0-.53-.24-.53-.53v-.77c0-.29,.24-.53,.53-.53h0Zm11.51,2.82c.83,0,1.79,.33,2.75,1.29,.24,.29,.92,1.19,1.15,2.83l-.17,.02,.17-.02c.11,.84,.18,1.28,.35,1.6l.18,.35-.38-.1c-.27-.08-3.64-.5-4.44-.62-.23-.05-2.68-.44-2.7-2.69v-.07c0-.21,.02-.61,.28-1.2-.35-.15-1.16-.46-2.04-.46-.11,0-.23,0-.36,.02,0,0-.02,0-.04,0h-.02c-.07,0-.24-.08-.25-.2,0-.02,0-.05,0-.06,0-.1,.08-.19,.13-.2,.04-.01,.06-.02,.08-.02,.02,0,.15-.02,.38-.02,.46,0,1.3,.08,2.39,.53,.3-.23,1.28-.96,2.54-.96h0Zm-6.09,1.5c.3,0,.53,.24,.53,.53v.77c0,.29-.24,.53-.53,.53H8.15c-.29,0-.53-.24-.53-.53v-.77c0-.29,.24-.53,.53-.53h11.53Zm-11.53-8.21c-.1,0-.19,.08-.19,.19v.77c0,.1,.08,.18,.18,.18h11.53c.1,0,.18-.08,.18-.18v-.77c0-.1-.08-.18-.18-.19H8.15Zm6.11,4.23c-.1,0-.18,.08-.18,.18v.77c0,.1,.08,.18,.18,.18h7.57c.1,0,.18-.08,.18-.18v-.77c0-.1-.08-.18-.18-.18h-7.57Zm11.51,2.82h0c-1.15,0-2.04,.67-2.33,.88l-.05,.04-.11,.25c-.23,.54-.24,.89-.25,1.08v.06c.01,1.63,1.49,2.17,2.37,2.35h.03c.32,.06,1.04,.15,1.82,.25,1.1,.15,1.9,.25,2.33,.32-.11-.34-.17-.78-.26-1.41,.01,.09,.06,.17,.13,.23,.02,.02,.05,.03,.08,.04l-.08-.6s-.04,.04-.06,.07c-.05,.07-.08,.17-.06,.26-.21-1.48-.8-2.33-1.06-2.64-.78-.78-1.61-1.18-2.49-1.18h0Zm-6.09,1.5H8.15c-.1,0-.18,.09-.18,.19v.77c0,.1,.08,.18,.18,.18h11.53c.1,0,.18-.08,.18-.19v-.77c0-.1-.08-.19-.18-.19h0Z"/><path d="M21.39,9.67s.08,0,.1,0c4.21,.05,7.68,3.19,8.25,7.26,3.29,.33,5.87,3.11,5.87,6.49s-2.68,6.27-6.08,6.51v.03h-6.48v-.61c0-.67-.55-1.22-1.22-1.22h-7.57c-.67,0-1.22,.55-1.22,1.22v.61h-4.21v-.02c-2.8-.19-5.01-2.51-5.01-5.36s2.25-5.21,5.08-5.36c.8-1.9,2.46-3.34,4.5-3.82,1.13-3.33,4.28-5.73,7.99-5.73h0Zm-1.71,17.45h0c.67,0,1.22-.55,1.22-1.22v-.78c0-.67-.55-1.22-1.22-1.22H8.15c-.67,0-1.22,.55-1.22,1.22v.78c0,.67,.55,1.22,1.22,1.22h11.53Zm1.71-17.1c-3.47,0-6.55,2.21-7.66,5.5l-.06,.18-.19,.04c-1.91,.46-3.5,1.81-4.26,3.62l-.08,.2h-.22c-2.67,.15-4.75,2.36-4.75,5.03s2.06,4.83,4.69,5.01l.25,.02h3.59v-.26c0-.87,.71-1.57,1.57-1.57h7.57c.87,0,1.57,.7,1.57,1.57v.26h5.78l.32-.02c3.23-.22,5.76-2.93,5.76-6.16s-2.39-5.83-5.55-6.15l-.27-.03-.04-.27c-.55-3.92-3.95-6.91-7.91-6.96h-.04s-.03,0-.06,0h0Zm-1.71,17.45H8.15c-.86,0-1.57-.71-1.57-1.57v-.78c0-.86,.7-1.57,1.57-1.57h11.54c.87,0,1.57,.71,1.57,1.57v.78c0,.86-.7,1.57-1.56,1.57h0Z"/><path d="M22.56,2.29c5.63,0,10.9,3.52,12.86,9.14,1.01,2.9,.99,5.91,.12,8.62-1.02-1.97-2.91-3.42-5.2-3.83-.08-.37-.18-.72-.29-1.07,.04-.5,.04-1.01,.01-1.52,.2-.02,.4-.07,.6-.13,1.4-.49,2.14-2.02,1.65-3.42-.39-1.11-1.42-1.8-2.54-1.8-.29,0-.59,.05-.88,.15-.12,.04-.22,.09-.33,.14-1.94-3.43-5.47-5.61-9.29-5.89,1.09-.27,2.2-.4,3.28-.4h0Zm0,.35c-.39,0-.78,.02-1.16,.05,3.04,.77,5.68,2.71,7.32,5.45l.07-.03c.32-.11,.66-.17,1-.17,1.29,0,2.44,.82,2.86,2.03,.27,.76,.22,1.59-.13,2.31-.35,.73-.97,1.28-1.73,1.54-.12,.04-.23,.07-.36,.1,0,.38,0,.77-.03,1.18,.1,.3,.17,.56,.23,.82,1.99,.42,3.69,1.58,4.79,3.25,.65-2.53,.54-5.15-.33-7.64-1.86-5.33-6.9-8.91-12.54-8.91h0Z"/></g></g></svg>