<?xml version="1.0" encoding="UTF-8"?><svg xmlns="http://www.w3.org/2000/svg" viewBox="0 0 40 40"><g id="a"/><g id="b"><g><path d="M15.1,19.34c.12,0,.24,.04,.32,.12h0c.08,.09,.12,.2,.12,.32,0,.06,0,.12-.03,.18l-1.35,5.02-.12,.44c-.17,.52-.46,1.02-.88,1.43-.71,.71-1.64,1.06-2.57,1.06h0c-.93,0-1.86-.36-2.57-1.06-.71-.71-1.07-1.64-1.07-2.58s.36-1.86,1.07-2.57c.42-.42,.91-.71,1.44-.88l.43-.11,5.02-1.35c.06-.02,.12-.03,.18-.03h0Zm15.99,1.04c.12,0,.24,.04,.32,.12h0c.09,.08,.12,.2,.12,.32,0,.06,0,.12-.03,.18l-1.35,5.02-.12,.44c-.17,.52-.46,1.01-.88,1.43-.71,.71-1.64,1.07-2.57,1.07s-1.86-.36-2.57-1.07c-.71-.71-1.07-1.64-1.07-2.57s.36-1.86,1.07-2.57c.42-.42,.91-.71,1.44-.88l.43-.11,5.03-1.35c.06-.02,.12-.03,.18-.03h0Zm-15.99-.69h0s-.06,0-.09,.01l-5.03,1.35-.41,.11c-.5,.16-.94,.43-1.3,.79-.62,.62-.97,1.45-.97,2.33s.34,1.71,.96,2.33c.62,.62,1.45,.96,2.32,.96s1.71-.34,2.33-.96c.36-.36,.63-.79,.79-1.29l.11-.43,1.35-5.02s.01-.06,.01-.09c0-.03,0-.06-.02-.08-.01,0-.04-.02-.08-.02h0Zm15.99,1.04h0s-.05,0-.08,.01l-5.03,1.35-.42,.11c-.5,.16-.93,.43-1.29,.79-.62,.62-.96,1.45-.96,2.33s.34,1.71,.96,2.33c.62,.62,1.45,.96,2.33,.96s1.71-.34,2.33-.96c.36-.36,.63-.79,.79-1.29l.11-.43,1.35-5.02s.01-.06,.01-.09c0-.04,0-.06-.02-.08-.01-.02-.04-.02-.08-.02h0Z"/><path d="M20.85,24.39l-1.64,2.95h3.37l-6.82,9.25-.24-.17,1.97-6.44h-3.34l1.85-5.59h4.86Zm-.59,.35h-4.02l-1.62,4.89h3.33l-.14,.45-1.64,5.36,5.72-7.75h-3.27l.29-.51,1.35-2.44h0Z"/><path d="M21.68,3.41s.08,0,.1,0c4.22,.05,7.69,3.19,8.25,7.26,3.29,.33,5.87,3.11,5.87,6.49,0,2.81-1.78,5.19-4.28,6.11l.56-2.09c.03-.12,.05-.24,.05-.35,0-.32-.12-.61-.33-.82-.21-.21-.5-.33-.81-.33-.13,0-.25,.02-.36,.05l-5.02,1.35-.43,.11h-.04c-.65,.23-1.23,.58-1.71,1.06-.41,.42-.74,.9-.95,1.43h-7.34l.95-3.55c.04-.12,.05-.24,.05-.35,0-.31-.12-.6-.33-.82-.21-.21-.5-.33-.82-.33-.12,0-.24,.01-.36,.05l-5.02,1.35-.42,.11h-.04c-.66,.23-1.24,.58-1.72,1.06-.46,.46-.79,1-1.01,1.58-1.46-.96-2.43-2.61-2.43-4.49,0-2.87,2.25-5.21,5.08-5.36,.8-1.9,2.46-3.33,4.5-3.82,1.13-3.33,4.27-5.73,7.99-5.73h0Zm0,.35c-3.47,0-6.55,2.21-7.66,5.49l-.06,.18-.19,.04c-1.91,.45-3.5,1.81-4.26,3.62l-.09,.2h-.21c-2.66,.16-4.75,2.36-4.75,5.03,0,1.55,.71,3,1.93,3.95,.23-.48,.53-.92,.91-1.29,.52-.52,1.14-.9,1.85-1.13h.03l.03-.02,.42-.11,5.02-1.35c.14-.04,.29-.06,.45-.06,.41,0,.79,.15,1.06,.43,.28,.28,.43,.66,.43,1.06,0,.14-.02,.29-.06,.44l-.83,3.11h6.66c.23-.49,.54-.94,.93-1.33,.52-.52,1.14-.9,1.86-1.13h.05l.43-.13,5.02-1.35c.13-.04,.29-.06,.45-.06,.41,0,.78,.15,1.06,.43,.28,.28,.43,.66,.43,1.07,0,.15-.02,.3-.06,.44l-.37,1.39c2.06-1.04,3.41-3.17,3.41-5.51,0-3.18-2.39-5.83-5.56-6.15l-.27-.03-.04-.27c-.55-3.92-3.95-6.91-7.91-6.96h-.09Z"/></g></g></svg>