<?xml version="1.0" encoding="UTF-8"?><svg xmlns="http://www.w3.org/2000/svg" viewBox="0 0 40 40"><g id="a"/><g id="b"><g><path d="M34.77,15.5c-2.22-6.37-8.92-9.9-15.34-8.3,3.63,.27,6.99,2.33,8.83,5.59,.1-.05,.2-.1,.31-.14,1.33-.46,2.78,.24,3.24,1.57,.46,1.33-.24,2.78-1.57,3.25-.19,.07-.38,.11-.57,.13,.03,.48,.02,.96-.01,1.44,.11,.33,.21,.67,.28,1.02,2.18,.39,3.97,1.77,4.94,3.64,.82-2.58,.85-5.44-.11-8.19Z"/><path d="M29.37,20.68c-.55-3.9-3.87-6.91-7.92-6.96-.02,0-.05,0-.09,0-3.56,0-6.58,2.3-7.66,5.49-1.95,.47-3.55,1.84-4.32,3.66-2.71,.15-4.87,2.39-4.87,5.15s2.12,4.96,4.8,5.14v.02H29.17v-.03c3.25-.23,5.83-2.93,5.83-6.24s-2.47-5.91-5.63-6.23Z"/></g></g></svg>