<?xml version="1.0" encoding="UTF-8" standalone="no"?>
<!DOCTYPE svg PUBLIC "-//W3C//DTD SVG 1.1//EN" "http://www.w3.org/Graphics/SVG/1.1/DTD/svg11.dtd">
<svg width="100%" height="100%" viewBox="0 0 40 40" version="1.1" xmlns="http://www.w3.org/2000/svg" xmlns:xlink="http://www.w3.org/1999/xlink" xml:space="preserve" xmlns:serif="http://www.serif.com/" style="fill-rule:evenodd;clip-rule:evenodd;stroke-linejoin:round;stroke-miterlimit:2;">
    <g transform="matrix(1,0,0,1,-90,0)">
        <g id="svg_rain_and_sun" transform="matrix(1,0,0,1,90,0)">
            <rect x="0" y="0" width="40" height="40" style="fill:none;"/>
            <g id="Weather-Icons" serif:id="Weather Icons">
                <g transform="matrix(1,0,0,1,34.2442,7.782)">
                    <path d="M0,6.822L-1.187,6.822C-1.469,5.427 -2.018,4.13 -2.779,2.984L-1.937,2.143C-1.654,1.858 -1.51,1.482 -1.51,1.109C-1.51,0.734 -1.654,0.359 -1.937,0.075L-2.906,-0.894L-3.027,-0.772L-2.906,-0.895C-3.191,-1.179 -3.566,-1.321 -3.941,-1.32C-4.314,-1.321 -4.691,-1.179 -4.975,-0.894L-5.814,-0.053C-6.963,-0.814 -8.258,-1.364 -9.654,-1.645L-9.654,-2.833C-9.654,-3.639 -10.311,-4.294 -11.117,-4.295L-12.486,-4.295C-13.293,-4.294 -13.947,-3.639 -13.947,-2.833L-13.947,-1.645C-15.344,-1.364 -16.641,-0.815 -17.787,-0.053L-18.629,-0.895C-18.914,-1.179 -19.289,-1.322 -19.664,-1.321C-20.037,-1.322 -20.414,-1.179 -20.697,-0.895L-21.666,0.074C-21.951,0.358 -22.092,0.734 -22.092,1.107C-22.092,1.481 -21.951,1.857 -21.666,2.142L-20.826,2.983C-21.586,4.13 -22.135,5.427 -22.416,6.823L-23.604,6.823C-24.408,6.823 -25.066,7.478 -25.066,8.285L-25.066,9.655C-25.066,9.911 -24.996,10.15 -24.879,10.358C-23.988,9.164 -22.732,8.266 -21.291,7.838C-19.982,4.464 -16.738,2.225 -13.1,2.225C-13.049,2.225 -13.01,2.227 -12.981,2.23C-8.867,2.276 -5.301,5.265 -4.488,9.265C-3.086,9.515 -1.846,10.178 -0.877,11.117L0,11.117C0.805,11.116 1.461,10.461 1.461,9.654L1.461,8.285C1.461,7.479 0.805,6.823 0,6.822" style="fill:rgb(235,203,139);fill-rule:nonzero;"/>
                </g>
                <g transform="matrix(1,0,0,1,29.1582,23.1996)">
                    <path d="M0,-5.537C-0.547,-9.438 -3.871,-12.448 -7.916,-12.496C-7.936,-12.496 -7.967,-12.5 -8.014,-12.5C-11.572,-12.5 -14.592,-10.198 -15.678,-7.006C-17.629,-6.539 -19.223,-5.161 -19.99,-3.344C-22.705,-3.194 -24.863,-0.951 -24.863,1.802C-24.863,3.593 -23.947,5.165 -22.561,6.089C-22.354,5.521 -22.027,4.997 -21.588,4.559C-21.119,4.092 -20.562,3.751 -19.928,3.544L-19.91,3.538L-19.893,3.532L-19.484,3.424L-14.67,2.13C-14.563,2.1 -14.439,2.082 -14.316,2.082C-14.006,2.082 -13.721,2.197 -13.512,2.407C-13.301,2.617 -13.186,2.904 -13.188,3.215C-13.188,3.323 -13.203,3.435 -13.232,3.553L-14.146,6.963L-7.187,6.963C-6.98,6.443 -6.668,5.964 -6.26,5.555C-5.793,5.091 -5.234,4.748 -4.6,4.54L-4.564,4.53L-4.154,4.42L0.658,3.127C0.764,3.096 0.889,3.078 1.012,3.078C1.32,3.078 1.613,3.197 1.818,3.405C2.031,3.622 2.143,3.907 2.143,4.214C2.143,4.325 2.127,4.442 2.096,4.559L1.561,6.544C3.936,5.654 5.625,3.378 5.625,0.695C5.625,-2.551 3.158,-5.215 0,-5.537" style="fill:rgb(46,52,64);fill-rule:nonzero;"/>
                </g>
                <g transform="matrix(1,0,0,1,19.8945,30.8953)">
                    <path d="M0,0.697L0.121,0.574C0.055,0.508 -0.035,0.479 -0.119,0.48C-0.158,0.48 -0.197,0.485 -0.242,0.497L-3.162,1.281L-3.412,1.347C-3.734,1.454 -4.033,1.629 -4.283,1.882C-4.709,2.308 -4.926,2.869 -4.926,3.427C-4.926,3.988 -4.709,4.55 -4.283,4.976C-3.855,5.404 -3.295,5.618 -2.734,5.618C-2.176,5.618 -1.613,5.404 -1.187,4.977C-0.936,4.725 -0.76,4.429 -0.658,4.116L-0.588,3.856L0.197,0.933C0.209,0.892 0.215,0.851 0.213,0.81C0.215,0.726 0.186,0.639 0.123,0.575L0,0.697ZM10.59,-3.803C10.51,-3.885 10.393,-3.925 10.275,-3.924C10.221,-3.924 10.162,-3.916 10.102,-3.9L5.289,-2.606L4.881,-2.496C4.369,-2.329 3.895,-2.049 3.496,-1.65C2.813,-0.968 2.471,-0.071 2.471,0.822C2.471,1.716 2.813,2.612 3.496,3.295C4.178,3.976 5.072,4.317 5.967,4.317C6.859,4.317 7.756,3.975 8.438,3.295C8.836,2.895 9.115,2.423 9.283,1.921L9.395,1.498L10.688,-3.316C10.705,-3.376 10.711,-3.432 10.711,-3.487C10.713,-3.604 10.672,-3.718 10.592,-3.8L10.59,-3.803ZM-4.738,-4.798C-4.82,-4.881 -4.937,-4.921 -5.053,-4.92C-5.107,-4.92 -5.168,-4.912 -5.227,-4.895L-10.041,-3.603L-10.449,-3.492C-10.959,-3.325 -11.434,-3.047 -11.836,-2.647C-12.518,-1.964 -12.859,-1.07 -12.859,-0.174C-12.859,0.719 -12.518,1.614 -11.836,2.297C-11.152,2.979 -10.258,3.32 -9.363,3.32L-9.359,3.32C-8.469,3.32 -7.574,2.978 -6.891,2.297C-6.492,1.897 -6.213,1.425 -6.047,0.924L-5.934,0.501L-4.641,-4.315C-4.625,-4.374 -4.617,-4.43 -4.617,-4.485C-4.617,-4.601 -4.656,-4.716 -4.738,-4.797L-4.738,-4.798Z" style="fill:rgb(76,86,106);fill-rule:nonzero;"/>
                </g>
            </g>
        </g>
    </g>
</svg>
