<?xml version="1.0" encoding="UTF-8" standalone="no"?>
<!DOCTYPE svg PUBLIC "-//W3C//DTD SVG 1.1//EN" "http://www.w3.org/Graphics/SVG/1.1/DTD/svg11.dtd">
<svg width="100%" height="100%" viewBox="0 0 40 40" version="1.1" xmlns="http://www.w3.org/2000/svg" xmlns:xlink="http://www.w3.org/1999/xlink" xml:space="preserve" xmlns:serif="http://www.serif.com/" style="fill-rule:evenodd;clip-rule:evenodd;stroke-linejoin:round;stroke-miterlimit:2;">
    <g transform="matrix(1,0,0,1,-135,-45)">
        <g id="svg_slush_night" transform="matrix(1,0,0,1,135,45)">
            <rect x="0" y="0" width="40" height="40" style="fill:none;"/>
            <g id="svg_slush_night1" serif:id="svg_slush_night">
                <g transform="matrix(1,0,0,1,29.745,23.6768)">
                    <path d="M0,-5.759C-0.568,-9.831 -4.037,-12.971 -8.254,-13.019C-8.273,-13.02 -8.307,-13.024 -8.354,-13.024C-12.064,-13.024 -15.213,-10.624 -16.342,-7.293C-18.383,-6.807 -20.045,-5.369 -20.846,-3.472C-23.674,-3.318 -25.924,-0.98 -25.924,1.888C-25.924,3.418 -25.281,4.794 -24.258,5.769C-24.35,5.617 -24.406,5.441 -24.402,5.256C-24.402,5.101 -24.359,4.937 -24.279,4.791L-23.947,4.216C-23.783,3.919 -23.459,3.725 -23.104,3.725C-22.996,3.725 -22.891,3.744 -22.791,3.776C-22.664,3.56 -22.455,3.394 -22.199,3.325L-21.6,3.166C-21.521,3.141 -21.443,3.128 -21.359,3.123C-21.32,3.064 -21.277,3.009 -21.227,2.958L-20.77,2.501C-20.594,2.319 -20.346,2.214 -20.08,2.214C-19.988,1.766 -19.596,1.43 -19.127,1.43L-18.471,1.43C-17.998,1.43 -17.604,1.767 -17.516,2.214C-17.262,2.214 -17.012,2.318 -16.83,2.497L-16.367,2.963C-16.33,3 -16.295,3.04 -16.264,3.084C-16.246,3.082 -16.23,3.082 -16.213,3.082C-16.123,3.082 -16.031,3.095 -15.949,3.117L-15.326,3.285C-15.064,3.357 -14.854,3.53 -14.729,3.754C-14.652,3.735 -14.572,3.725 -14.494,3.725C-14.146,3.725 -13.824,3.913 -13.65,4.214L-13.322,4.782C-13.238,4.931 -13.193,5.097 -13.193,5.265C-13.193,5.518 -13.293,5.76 -13.465,5.94C-13.377,6.085 -13.326,6.254 -13.324,6.434C-13.324,6.521 -13.336,6.602 -13.354,6.682L-13.512,7.265L-7.451,7.265C-7.234,6.735 -6.916,6.248 -6.498,5.832C-6.018,5.35 -5.437,4.997 -4.779,4.782L-4.764,4.776L-4.744,4.77L-4.316,4.656L0.703,3.307C0.809,3.276 0.934,3.259 1.062,3.259C1.373,3.259 1.668,3.378 1.877,3.586C2.09,3.804 2.203,4.093 2.203,4.404C2.203,4.517 2.188,4.635 2.158,4.754L1.594,6.843C4.086,5.926 5.867,3.545 5.867,0.733C5.867,-2.651 3.293,-5.426 0,-5.759" style="fill:rgb(46,52,64);fill-rule:nonzero;"/>
                </g>
                <g transform="matrix(1,0,0,1,31.1318,36.0867)">
                    <path d="M0,-8.333C-0.086,-8.418 -0.205,-8.459 -0.324,-8.458C-0.381,-8.458 -0.441,-8.45 -0.504,-8.433L-5.525,-7.084L-5.951,-6.97C-6.484,-6.794 -6.979,-6.503 -7.395,-6.088C-8.104,-5.377 -8.461,-4.447 -8.461,-3.514C-8.461,-2.584 -8.104,-1.651 -7.395,-0.94C-6.684,-0.231 -5.752,0.126 -4.82,0.125L-4.816,0.125C-3.887,0.125 -2.957,-0.231 -2.246,-0.94C-1.83,-1.356 -1.541,-1.849 -1.369,-2.371L-1.25,-2.812L0.1,-7.833C0.115,-7.894 0.123,-7.955 0.123,-8.011C0.123,-8.131 0.082,-8.248 0,-8.332L0,-8.333Z" style="fill:rgb(76,86,106);fill-rule:nonzero;"/>
                </g>
                <g transform="matrix(1,0,0,1,15.8564,33.5352)">
                    <path d="M0,-4.593C0,-4.64 -0.012,-4.687 -0.035,-4.73L-0.363,-5.3C-0.414,-5.391 -0.512,-5.44 -0.606,-5.439C-0.652,-5.439 -0.703,-5.429 -0.752,-5.398L-1.592,-4.913L-1.42,-5.562C-1.41,-5.591 -1.408,-5.615 -1.408,-5.633C-1.408,-5.758 -1.49,-5.869 -1.615,-5.904L-2.25,-6.073C-2.272,-6.079 -2.297,-6.083 -2.324,-6.083C-2.445,-6.083 -2.563,-6.001 -2.594,-5.87L-3.082,-4.054L-4.303,-3.35L-4.303,-4.679L-2.969,-6.011C-2.914,-6.067 -2.889,-6.14 -2.889,-6.208C-2.889,-6.28 -2.914,-6.352 -2.969,-6.407L-3.432,-6.87C-3.488,-6.926 -3.561,-6.95 -3.631,-6.95C-3.701,-6.95 -3.774,-6.926 -3.832,-6.866L-4.303,-6.396L-4.303,-7.454C-4.303,-7.611 -4.428,-7.734 -4.582,-7.734L-5.238,-7.734C-5.393,-7.734 -5.516,-7.611 -5.518,-7.454L-5.518,-6.394L-5.992,-6.87C-6.047,-6.926 -6.119,-6.95 -6.19,-6.95C-6.262,-6.95 -6.334,-6.926 -6.391,-6.866L-6.85,-6.405C-6.904,-6.354 -6.934,-6.28 -6.934,-6.208C-6.934,-6.139 -6.906,-6.064 -6.85,-6.01L-5.518,-4.679L-5.518,-3.349L-6.666,-4.014L-7.156,-5.835C-7.19,-5.96 -7.303,-6.042 -7.426,-6.042C-7.447,-6.042 -7.477,-6.04 -7.512,-6.029L-8.131,-5.862C-8.256,-5.829 -8.34,-5.715 -8.34,-5.591C-8.34,-5.574 -8.338,-5.546 -8.328,-5.512L-8.156,-4.872L-9.074,-5.402C-9.119,-5.427 -9.164,-5.439 -9.213,-5.439C-9.309,-5.44 -9.404,-5.391 -9.457,-5.295L-9.783,-4.732C-9.807,-4.69 -9.82,-4.643 -9.82,-4.593C-9.82,-4.497 -9.772,-4.402 -9.682,-4.351L-8.764,-3.82L-9.412,-3.647C-9.535,-3.612 -9.619,-3.5 -9.619,-3.376C-9.619,-3.359 -9.617,-3.324 -9.608,-3.291L-9.441,-2.671C-9.404,-2.546 -9.295,-2.463 -9.17,-2.463C-9.145,-2.463 -9.121,-2.466 -9.106,-2.472L-7.275,-2.961L-6.125,-2.296L-7.274,-1.631L-9.096,-2.121C-9.119,-2.127 -9.145,-2.13 -9.17,-2.13C-9.293,-2.13 -9.408,-2.047 -9.441,-1.919L-9.609,-1.289C-9.613,-1.27 -9.619,-1.243 -9.619,-1.217C-9.619,-1.093 -9.535,-0.981 -9.412,-0.947L-8.764,-0.773L-9.682,-0.243C-9.77,-0.193 -9.82,-0.1 -9.82,-0.001C-9.82,0.043 -9.811,0.095 -9.781,0.142L-9.455,0.707C-9.404,0.796 -9.311,0.847 -9.213,0.847C-9.164,0.847 -9.119,0.834 -9.078,0.811L-8.156,0.279L-8.33,0.927C-8.334,0.944 -8.34,0.968 -8.34,0.999C-8.342,1.121 -8.258,1.237 -8.131,1.27L-7.5,1.44C-7.473,1.446 -7.449,1.449 -7.428,1.449C-7.303,1.448 -7.193,1.368 -7.158,1.245L-6.666,-0.578L-5.518,-1.243L-5.518,0.166L-6.85,1.5C-6.904,1.552 -6.934,1.626 -6.934,1.696C-6.934,1.767 -6.906,1.842 -6.85,1.896L-6.387,2.359C-6.334,2.414 -6.262,2.441 -6.19,2.441C-6.117,2.441 -6.045,2.413 -5.992,2.359L-5.518,1.883L-5.518,2.862C-5.516,3.015 -5.393,3.141 -5.238,3.141L-4.582,3.141C-4.428,3.141 -4.303,3.017 -4.303,2.862L-4.303,1.884L-3.828,2.359C-3.774,2.413 -3.701,2.441 -3.631,2.441C-3.559,2.441 -3.486,2.413 -3.434,2.36L-2.969,1.895C-2.914,1.839 -2.889,1.767 -2.889,1.696C-2.889,1.626 -2.914,1.554 -2.969,1.5L-4.303,0.166L-4.303,-1.243L-3.082,-0.538L-2.594,1.282C-2.559,1.407 -2.447,1.489 -2.324,1.489C-2.297,1.489 -2.274,1.487 -2.254,1.482L-1.615,1.31C-1.488,1.276 -1.408,1.161 -1.408,1.041C-1.408,1.014 -1.412,0.993 -1.416,0.978L-1.592,0.32L-0.746,0.808C-0.701,0.835 -0.654,0.847 -0.606,0.846C-0.51,0.846 -0.418,0.796 -0.365,0.708L-0.035,0.138C-0.01,0.091 0,0.043 0,-0.001C0,-0.1 -0.049,-0.191 -0.139,-0.243L-0.986,-0.733L-0.336,-0.905C-0.209,-0.941 -0.129,-1.052 -0.129,-1.176C-0.129,-1.201 -0.133,-1.225 -0.137,-1.243L-0.311,-1.881C-0.344,-2.007 -0.453,-2.089 -0.58,-2.089C-0.6,-2.088 -0.625,-2.088 -0.662,-2.076L-2.475,-1.592L-3.693,-2.296L-2.475,-3.001L-0.652,-2.513C-0.625,-2.506 -0.602,-2.503 -0.58,-2.503C-0.453,-2.505 -0.344,-2.587 -0.311,-2.71L-0.139,-3.345C-0.131,-3.376 -0.129,-3.4 -0.129,-3.417C-0.131,-3.543 -0.211,-3.652 -0.334,-3.687L-0.986,-3.861L-0.139,-4.351C-0.049,-4.403 0,-4.495 0,-4.593" style="fill:rgb(76,86,106);fill-rule:nonzero;"/>
                </g>
                <g transform="matrix(1,0,0,1,35.4169,10.6647)">
                    <path d="M0,1.801C-2.336,-4.905 -9.389,-8.623 -16.148,-6.937C-12.322,-6.656 -8.791,-4.484 -6.851,-1.052C-6.748,-1.104 -6.639,-1.153 -6.523,-1.193C-5.125,-1.681 -3.596,-0.942 -3.109,0.457C-2.623,1.856 -3.359,3.384 -4.76,3.873C-4.959,3.943 -5.16,3.985 -5.361,4.004C-5.332,4.515 -5.34,5.021 -5.375,5.524C-5.258,5.873 -5.156,6.228 -5.08,6.596C-2.789,7.003 -0.904,8.454 0.115,10.424C0.982,7.709 1.01,4.7 0,1.801" style="fill:rgb(199,146,96);fill-rule:nonzero;"/>
                </g>
            </g>
        </g>
    </g>
</svg>
