<?xml version="1.0" encoding="UTF-8" standalone="no"?>
<!DOCTYPE svg PUBLIC "-//W3C//DTD SVG 1.1//EN" "http://www.w3.org/Graphics/SVG/1.1/DTD/svg11.dtd">
<svg width="100%" height="100%" viewBox="0 0 41 41" version="1.1" xmlns="http://www.w3.org/2000/svg" xmlns:xlink="http://www.w3.org/1999/xlink" xml:space="preserve" xmlns:serif="http://www.serif.com/" style="fill-rule:evenodd;clip-rule:evenodd;stroke-linejoin:round;stroke-miterlimit:2;">
    <g transform="matrix(1,0,0,1,-180,-44)">
        <g id="svg_cloudy" transform="matrix(1,0,0,1,180.044,44.9565)">
            <rect x="0" y="0" width="40" height="40" style="fill:none;"/>
            <g transform="matrix(1,0,0,1,30.0264,22.8801)">
                <g id="Weather-Icons" serif:id="Weather Icons">
                    <path d="M0,-5.761C-0.568,-9.834 -4.035,-12.973 -8.252,-13.022C-8.273,-13.022 -8.309,-13.025 -8.352,-13.025C-12.064,-13.025 -15.211,-10.626 -16.34,-7.295C-18.379,-6.81 -20.045,-5.371 -20.844,-3.473C-23.674,-3.32 -25.922,-0.982 -25.922,1.887C-25.922,4.733 -23.711,7.055 -20.912,7.245L-20.912,7.264L-0.211,7.264L-0.211,7.238C3.186,7.007 5.869,4.185 5.869,0.731C5.869,-2.652 3.295,-5.43 0,-5.761" style="fill:rgb(76,86,106);fill-rule:nonzero;"/>
                </g>
            </g>
        </g>
    </g>
</svg>
