<?xml version="1.0" encoding="UTF-8" standalone="no"?>
<!DOCTYPE svg PUBLIC "-//W3C//DTD SVG 1.1//EN" "http://www.w3.org/Graphics/SVG/1.1/DTD/svg11.dtd">
<svg width="100%" height="100%" viewBox="0 0 41 41" version="1.1" xmlns="http://www.w3.org/2000/svg" xmlns:xlink="http://www.w3.org/1999/xlink" xml:space="preserve" xmlns:serif="http://www.serif.com/" style="fill-rule:evenodd;clip-rule:evenodd;stroke-linejoin:round;stroke-miterlimit:2;">
    <g transform="matrix(1,0,0,1,-314,-45)">
        <g id="svg_rain_and_lightning_night" transform="matrix(1,0,0,1,314.7,45.3002)">
            <rect x="0" y="0" width="40" height="40" style="fill:none;"/>
            <g id="Weather-Icons" serif:id="Weather Icons">
                <g transform="matrix(1,0,0,1,30.4942,30.8897)">
                    <path d="M0,-6.894C-0.078,-6.974 -0.191,-7.013 -0.305,-7.012C-0.359,-7.012 -0.416,-7.005 -0.475,-6.988L-5.221,-5.712L-5.627,-5.605C-6.129,-5.44 -6.596,-5.164 -6.99,-4.771C-7.662,-4.099 -7.998,-3.218 -7.998,-2.338C-7.998,-1.458 -7.662,-0.576 -6.99,0.094C-6.318,0.767 -5.437,1.102 -4.557,1.102C-3.676,1.102 -2.795,0.767 -2.123,0.094C-1.73,-0.298 -1.453,-0.763 -1.291,-1.256L-1.182,-1.673L0.094,-6.421C0.109,-6.48 0.117,-6.535 0.117,-6.589C0.117,-6.703 0.082,-6.815 0,-6.894M-15.119,-7.878C-15.199,-7.958 -15.313,-7.996 -15.426,-7.996C-15.48,-7.996 -15.535,-7.988 -15.592,-7.972L-20.342,-6.697L-20.746,-6.589C-21.248,-6.423 -21.715,-6.148 -22.107,-5.755C-22.779,-5.084 -23.117,-4.202 -23.117,-3.321C-23.117,-2.442 -22.781,-1.56 -22.107,-0.888C-21.437,-0.219 -20.557,0.119 -19.678,0.118L-19.674,0.118C-18.795,0.118 -17.914,-0.219 -17.242,-0.888C-16.85,-1.281 -16.578,-1.746 -16.412,-2.241L-16.299,-2.657L-15.025,-7.406C-15.01,-7.463 -15.002,-7.519 -15.002,-7.572C-15.002,-7.687 -15.041,-7.797 -15.119,-7.877L-15.119,-7.878Z" style="fill:rgb(76,86,106);fill-rule:nonzero;"/>
                </g>
                <g transform="matrix(1,0,0,1,20.504,39.2016)">
                    <path d="M0,-11.536L-4.592,-11.536L-6.342,-6.253L-3.182,-6.253L-5.041,-0.165L-4.812,0L1.639,-8.744L-1.547,-8.744L0,-11.536Z" style="fill:rgb(208,135,112);fill-rule:nonzero;"/>
                </g>
                <g transform="matrix(1,0,0,1,29.1837,20.1429)">
                    <path d="M0,-5.447C-0.539,-9.297 -3.814,-12.264 -7.803,-12.31C-7.822,-12.311 -7.854,-12.314 -7.895,-12.314C-11.406,-12.314 -14.381,-10.047 -15.449,-6.897C-17.377,-6.438 -18.951,-5.08 -19.705,-3.285C-22.383,-3.138 -24.508,-0.927 -24.51,1.785C-24.508,3.562 -23.596,5.12 -22.211,6.027C-22.012,5.471 -21.693,4.958 -21.262,4.528C-20.807,4.073 -20.262,3.739 -19.639,3.535L-19.621,3.531L-19.604,3.525L-19.201,3.417L-14.453,2.142C-14.346,2.111 -14.23,2.096 -14.115,2.096C-13.816,2.096 -13.543,2.206 -13.344,2.407C-13.145,2.607 -13.033,2.881 -13.035,3.178C-13.035,3.285 -13.051,3.398 -13.084,3.512L-13.982,6.867L-7.041,6.867C-6.84,6.367 -6.537,5.907 -6.143,5.512C-5.687,5.059 -5.143,4.724 -4.521,4.52L-4.502,4.513L-4.484,4.507L-4.08,4.401L0.666,3.125C0.764,3.097 0.885,3.079 1.006,3.079C1.303,3.079 1.574,3.189 1.773,3.389C1.975,3.588 2.086,3.863 2.082,4.162C2.082,4.271 2.068,4.384 2.037,4.496L1.508,6.469C3.863,5.601 5.547,3.349 5.549,0.692C5.547,-2.508 3.115,-5.132 0,-5.447" style="fill:rgb(46,52,64);fill-rule:nonzero;"/>
                </g>
                <g transform="matrix(1,0,0,1,34.6016,7.772)">
                    <path d="M0,1.712C-2.219,-4.66 -8.918,-8.191 -15.342,-6.59C-11.705,-6.322 -8.35,-4.26 -6.51,-0.997C-6.408,-1.048 -6.307,-1.096 -6.199,-1.133C-4.869,-1.596 -3.416,-0.894 -2.953,0.436C-2.49,1.764 -3.191,3.217 -4.521,3.68C-4.711,3.746 -4.902,3.786 -5.092,3.806C-5.064,4.289 -5.072,4.772 -5.107,5.249C-4.996,5.58 -4.896,5.918 -4.826,6.267C-2.648,6.654 -0.857,8.033 0.109,9.903C0.934,7.323 0.961,4.466 0,1.712" style="fill:rgb(199,146,96);fill-rule:nonzero;"/>
                </g>
            </g>
        </g>
    </g>
</svg>
