<?xml version="1.0" encoding="UTF-8" standalone="no"?>
<!DOCTYPE svg PUBLIC "-//W3C//DTD SVG 1.1//EN" "http://www.w3.org/Graphics/SVG/1.1/DTD/svg11.dtd">
<svg width="100%" height="100%" viewBox="0 0 40 40" version="1.1" xmlns="http://www.w3.org/2000/svg" xmlns:xlink="http://www.w3.org/1999/xlink" xml:space="preserve" xmlns:serif="http://www.serif.com/" style="fill-rule:evenodd;clip-rule:evenodd;stroke-linejoin:round;stroke-miterlimit:2;">
    <g transform="matrix(1,0,0,1,0,-45)">
        <g id="svg_snow" transform="matrix(1,0,0,1,0,45)">
            <rect x="0" y="0" width="40" height="40" style="fill:none;"/>
            <g id="Weather-Icons" serif:id="Weather Icons">
                <g transform="matrix(1,0,0,1,18.7266,32.218)">
                    <path d="M0,-1.367L-0.428,-1.613L-0.666,-2.507C-0.67,-2.522 -0.676,-2.537 -0.684,-2.551C-0.676,-2.538 -0.666,-2.527 -0.654,-2.516L0,-1.86L0,-1.367ZM2.865,0.288L2.613,0.143L2.746,0.107C2.85,0.078 2.914,-0.013 2.914,-0.114C2.914,-0.135 2.912,-0.148 2.91,-0.155L2.82,-0.495C2.793,-0.596 2.701,-0.663 2.6,-0.663C2.592,-0.663 2.57,-0.663 2.541,-0.656L1.648,-0.415L1.184,-0.682L1.646,-0.95L2.541,-0.711C2.563,-0.705 2.582,-0.704 2.6,-0.704C2.701,-0.705 2.791,-0.769 2.82,-0.872L2.906,-1.195C2.912,-1.218 2.916,-1.237 2.914,-1.254C2.914,-1.358 2.848,-1.444 2.746,-1.474L2.613,-1.509L2.865,-1.654C2.941,-1.697 2.982,-1.775 2.98,-1.853C2.98,-1.891 2.973,-1.928 2.951,-1.966L2.783,-2.255C2.74,-2.329 2.664,-2.37 2.588,-2.369C2.551,-2.369 2.508,-2.361 2.463,-2.333L2.221,-2.192L2.256,-2.324C2.26,-2.349 2.264,-2.365 2.264,-2.383C2.264,-2.481 2.201,-2.575 2.092,-2.602L1.771,-2.689C1.758,-2.692 1.736,-2.697 1.713,-2.697C1.613,-2.698 1.517,-2.631 1.492,-2.522L1.252,-1.633L0.791,-1.366L0.791,-1.86L1.445,-2.515C1.49,-2.562 1.51,-2.62 1.51,-2.676C1.51,-2.732 1.49,-2.79 1.445,-2.835L1.209,-3.073C1.166,-3.116 1.105,-3.139 1.047,-3.139C0.99,-3.139 0.928,-3.118 0.881,-3.068L0.791,-2.976L0.791,-3.31C0.789,-3.437 0.689,-3.537 0.562,-3.538L0.228,-3.538C0.101,-3.536 0.004,-3.439 0,-3.31L0,-2.976L-0.096,-3.073C-0.139,-3.116 -0.197,-3.139 -0.256,-3.139C-0.315,-3.139 -0.375,-3.118 -0.42,-3.068L-0.654,-2.836C-0.697,-2.792 -0.721,-2.734 -0.721,-2.677C-0.721,-2.64 -0.713,-2.605 -0.695,-2.573C-0.736,-2.637 -0.811,-2.677 -0.887,-2.677C-0.9,-2.676 -0.924,-2.677 -0.963,-2.663L-1.266,-2.581C-1.371,-2.555 -1.436,-2.462 -1.436,-2.361C-1.437,-2.349 -1.434,-2.319 -1.426,-2.291L-1.393,-2.172L-1.682,-2.338C-1.715,-2.357 -1.756,-2.37 -1.797,-2.369C-1.873,-2.37 -1.953,-2.33 -1.994,-2.251L-2.162,-1.966C-2.18,-1.93 -2.191,-1.892 -2.191,-1.853C-2.191,-1.776 -2.152,-1.697 -2.078,-1.656L-1.787,-1.488L-1.92,-1.452C-2.024,-1.425 -2.088,-1.333 -2.088,-1.232C-2.088,-1.219 -2.088,-1.196 -2.08,-1.169L-1.994,-0.85C-1.967,-0.748 -1.877,-0.683 -1.774,-0.682C-1.752,-0.682 -1.738,-0.686 -1.731,-0.686L-0.822,-0.93L-0.393,-0.682L-0.822,-0.436L-1.715,-0.676C-1.729,-0.68 -1.748,-0.682 -1.774,-0.682C-1.877,-0.682 -1.969,-0.618 -1.994,-0.51L-2.082,-0.192C-2.086,-0.177 -2.088,-0.157 -2.088,-0.133C-2.09,-0.035 -2.021,0.06 -1.92,0.086L-1.787,0.122L-2.076,0.288C-2.15,0.33 -2.191,0.409 -2.191,0.487C-2.191,0.519 -2.182,0.562 -2.162,0.599L-1.994,0.889C-1.951,0.963 -1.873,1.003 -1.797,1.002C-1.758,1.003 -1.719,0.991 -1.69,0.976L-1.393,0.805L-1.428,0.937C-1.432,0.948 -1.436,0.969 -1.436,0.995C-1.437,1.093 -1.371,1.188 -1.27,1.215L-0.945,1.301C-0.92,1.308 -0.9,1.309 -0.887,1.309C-0.785,1.309 -0.693,1.242 -0.666,1.142L-0.428,0.247L0,0L0,0.536L-0.654,1.19C-0.697,1.235 -0.721,1.293 -0.721,1.351C-0.721,1.406 -0.697,1.466 -0.654,1.509L-0.416,1.747C-0.373,1.792 -0.315,1.815 -0.256,1.815C-0.197,1.815 -0.139,1.791 -0.098,1.75L0,1.651L0,1.944C0.004,2.072 0.1,2.169 0.228,2.171L0.562,2.171C0.689,2.17 0.789,2.07 0.791,1.944L0.791,1.652L0.887,1.747C0.93,1.792 0.99,1.815 1.047,1.815C1.107,1.815 1.164,1.791 1.205,1.75L1.443,1.512C1.49,1.464 1.51,1.406 1.51,1.352C1.51,1.294 1.49,1.237 1.445,1.192L0.791,0.536L0.791,0L1.252,0.269L1.492,1.161C1.521,1.264 1.611,1.329 1.713,1.33C1.734,1.33 1.75,1.326 1.756,1.326L2.096,1.237C2.201,1.207 2.264,1.113 2.264,1.015C2.264,0.993 2.26,0.979 2.258,0.967L2.219,0.825L2.473,0.971C2.51,0.992 2.551,1.003 2.588,1.002C2.668,1.002 2.74,0.961 2.781,0.89L2.951,0.599C2.973,0.562 2.982,0.523 2.98,0.487C2.98,0.406 2.941,0.33 2.865,0.288" style="fill:rgb(76,86,106);fill-rule:nonzero;"/>
                </g>
                <g transform="matrix(1,0,0,1,16.2402,28.4909)">
                    <path d="M0,-4.591C0,-4.637 -0.012,-4.685 -0.037,-4.732L-0.365,-5.299C-0.416,-5.388 -0.512,-5.438 -0.607,-5.438C-0.652,-5.438 -0.705,-5.427 -0.752,-5.397L-1.592,-4.912L-1.42,-5.56C-1.414,-5.586 -1.41,-5.61 -1.41,-5.632C-1.41,-5.755 -1.492,-5.868 -1.619,-5.903L-2.252,-6.072C-2.273,-6.076 -2.299,-6.082 -2.324,-6.082C-2.449,-6.082 -2.561,-5.999 -2.594,-5.873L-3.082,-4.051L-4.303,-3.348L-4.303,-4.675L-2.971,-6.01C-2.914,-6.064 -2.887,-6.137 -2.887,-6.207C-2.887,-6.278 -2.914,-6.352 -2.971,-6.406L-3.434,-6.868C-3.486,-6.923 -3.561,-6.951 -3.629,-6.951C-3.701,-6.951 -3.775,-6.924 -3.83,-6.865L-4.303,-6.395L-4.303,-7.453C-4.303,-7.608 -4.428,-7.732 -4.584,-7.733L-5.238,-7.733C-5.393,-7.732 -5.518,-7.608 -5.518,-7.453L-5.518,-6.395L-5.992,-6.868C-6.047,-6.923 -6.119,-6.951 -6.189,-6.951C-6.26,-6.951 -6.334,-6.923 -6.391,-6.865L-6.852,-6.405C-6.906,-6.35 -6.934,-6.278 -6.934,-6.207C-6.934,-6.137 -6.906,-6.064 -6.854,-6.01L-5.52,-4.675L-5.52,-3.348L-6.67,-4.011L-7.156,-5.833C-7.189,-5.958 -7.299,-6.04 -7.428,-6.04C-7.447,-6.04 -7.479,-6.039 -7.514,-6.027L-8.133,-5.863C-8.256,-5.827 -8.34,-5.717 -8.34,-5.591C-8.34,-5.57 -8.338,-5.54 -8.326,-5.511L-8.156,-4.87L-9.074,-5.4C-9.117,-5.425 -9.166,-5.438 -9.213,-5.438C-9.307,-5.438 -9.404,-5.39 -9.457,-5.295L-9.783,-4.731C-9.811,-4.687 -9.82,-4.639 -9.82,-4.591C-9.822,-4.494 -9.771,-4.401 -9.682,-4.349L-8.764,-3.82L-9.412,-3.646C-9.537,-3.61 -9.619,-3.499 -9.621,-3.375C-9.621,-3.353 -9.617,-3.325 -9.607,-3.292L-9.439,-2.669C-9.404,-2.544 -9.295,-2.462 -9.172,-2.461C-9.146,-2.461 -9.123,-2.465 -9.104,-2.469L-7.275,-2.958L-6.125,-2.295L-7.275,-1.631L-9.098,-2.118C-9.121,-2.125 -9.146,-2.129 -9.172,-2.129C-9.293,-2.129 -9.406,-2.047 -9.441,-1.921L-9.611,-1.287C-9.615,-1.266 -9.619,-1.242 -9.619,-1.215C-9.621,-1.092 -9.537,-0.98 -9.414,-0.946L-8.764,-0.772L-9.682,-0.242C-9.771,-0.192 -9.822,-0.095 -9.82,0.001C-9.822,0.046 -9.811,0.095 -9.783,0.141L-9.457,0.708C-9.404,0.799 -9.309,0.848 -9.213,0.848C-9.164,0.848 -9.119,0.836 -9.078,0.813L-8.156,0.281L-8.33,0.929C-8.336,0.95 -8.34,0.974 -8.34,1.001C-8.34,1.126 -8.256,1.236 -8.133,1.271L-7.498,1.441C-7.471,1.449 -7.445,1.45 -7.428,1.45C-7.303,1.45 -7.193,1.369 -7.156,1.245L-6.67,-0.578L-5.52,-1.243L-5.52,0.167L-6.852,1.501C-6.906,1.555 -6.934,1.629 -6.934,1.698C-6.934,1.768 -6.906,1.842 -6.854,1.894L-6.387,2.36C-6.334,2.414 -6.26,2.443 -6.189,2.442C-6.119,2.442 -6.047,2.414 -5.994,2.36L-5.52,1.887L-5.518,2.863C-5.518,3.018 -5.395,3.142 -5.238,3.142L-4.584,3.142C-4.428,3.142 -4.303,3.018 -4.303,2.863L-4.303,1.886L-3.828,2.36C-3.775,2.415 -3.701,2.442 -3.631,2.442C-3.561,2.443 -3.488,2.414 -3.436,2.363L-2.971,1.895C-2.914,1.843 -2.887,1.768 -2.887,1.698C-2.887,1.627 -2.914,1.554 -2.971,1.499L-4.303,0.167L-4.303,-1.243L-3.082,-0.537L-2.594,1.284C-2.559,1.41 -2.447,1.492 -2.324,1.492C-2.299,1.492 -2.277,1.487 -2.26,1.484L-1.617,1.313C-1.49,1.277 -1.41,1.165 -1.41,1.042C-1.41,1.016 -1.414,0.995 -1.42,0.974L-1.592,0.322L-0.748,0.81C-0.701,0.836 -0.652,0.848 -0.607,0.848C-0.51,0.848 -0.418,0.797 -0.365,0.711L-0.037,0.139C-0.012,0.093 0,0.045 0,-0C0,-0.094 -0.049,-0.191 -0.141,-0.242L-0.986,-0.731L-0.338,-0.903C-0.213,-0.939 -0.131,-1.052 -0.131,-1.174C-0.131,-1.2 -0.135,-1.221 -0.141,-1.241L-0.311,-1.88C-0.344,-2.005 -0.455,-2.088 -0.58,-2.088C-0.6,-2.088 -0.629,-2.086 -0.66,-2.075L-2.475,-1.591L-3.695,-2.295L-2.475,-3L-0.652,-2.511C-0.627,-2.504 -0.602,-2.503 -0.58,-2.503C-0.455,-2.504 -0.346,-2.585 -0.311,-2.709L-0.141,-3.344C-0.133,-3.371 -0.131,-3.393 -0.131,-3.414C-0.131,-3.539 -0.213,-3.652 -0.336,-3.686L-0.986,-3.86L-0.141,-4.348C-0.049,-4.401 0.002,-4.495 0,-4.591" style="fill:rgb(76,86,106);fill-rule:nonzero;"/>
                </g>
                <g transform="matrix(1,0,0,1,31.3848,24.6313)">
                    <path d="M0,3.129L0.648,2.956C0.775,2.921 0.855,2.808 0.855,2.686C0.855,2.659 0.852,2.639 0.848,2.618L0.678,1.98C0.643,1.855 0.531,1.772 0.408,1.772C0.387,1.772 0.359,1.774 0.326,1.784L-1.486,2.269L-2.707,1.565L-1.486,0.859L0.334,1.349C0.361,1.356 0.385,1.356 0.408,1.356C0.531,1.356 0.641,1.274 0.678,1.15L0.848,0.516C0.854,0.488 0.855,0.467 0.855,0.445C0.855,0.32 0.773,0.208 0.65,0.174L0,0L0.848,-0.488C0.937,-0.541 0.988,-0.636 0.988,-0.731C0.988,-0.777 0.977,-0.825 0.951,-0.872L0.623,-1.439C0.57,-1.528 0.477,-1.578 0.381,-1.578C0.334,-1.578 0.283,-1.567 0.234,-1.537L-0.605,-1.053L-0.432,-1.7C-0.426,-1.726 -0.424,-1.75 -0.424,-1.772C-0.424,-1.895 -0.506,-2.009 -0.633,-2.043L-1.264,-2.213C-1.285,-2.217 -1.311,-2.223 -1.338,-2.223C-1.461,-2.223 -1.574,-2.14 -1.607,-2.014L-2.096,-0.191L-3.316,0.512L-3.316,-0.815L-1.982,-2.15C-1.928,-2.204 -1.9,-2.277 -1.9,-2.348C-1.9,-2.419 -1.928,-2.492 -1.982,-2.547L-2.445,-3.009C-2.5,-3.063 -2.572,-3.092 -2.645,-3.092C-2.715,-3.092 -2.789,-3.064 -2.844,-3.006L-3.316,-2.535L-3.316,-3.594C-3.316,-3.748 -3.439,-3.872 -3.596,-3.873L-4.252,-3.873C-4.406,-3.872 -4.529,-3.748 -4.529,-3.594L-4.529,-2.535L-5.006,-3.009C-5.059,-3.063 -5.133,-3.092 -5.203,-3.092C-5.273,-3.092 -5.348,-3.063 -5.402,-3.006L-5.865,-2.545C-5.92,-2.49 -5.945,-2.418 -5.945,-2.348C-5.945,-2.277 -5.92,-2.204 -5.865,-2.15L-4.531,-0.815L-4.531,0.512L-5.682,-0.151L-6.168,-1.974C-6.203,-2.099 -6.314,-2.181 -6.437,-2.181C-6.461,-2.181 -6.49,-2.18 -6.525,-2.167L-7.146,-2.003C-7.27,-1.968 -7.354,-1.857 -7.354,-1.731C-7.354,-1.71 -7.352,-1.681 -7.342,-1.651L-7.17,-1.011L-8.088,-1.54C-8.129,-1.565 -8.18,-1.578 -8.227,-1.578C-8.32,-1.578 -8.418,-1.53 -8.471,-1.435L-8.799,-0.871C-8.822,-0.827 -8.836,-0.779 -8.834,-0.731C-8.836,-0.635 -8.785,-0.541 -8.695,-0.489L-7.777,0.04L-8.426,0.214C-8.551,0.25 -8.631,0.36 -8.633,0.484C-8.633,0.507 -8.631,0.534 -8.621,0.567L-8.455,1.19C-8.418,1.315 -8.309,1.397 -8.182,1.399C-8.158,1.399 -8.137,1.395 -8.117,1.391L-6.289,0.901L-5.139,1.565L-6.289,2.229L-8.111,1.741C-8.133,1.734 -8.158,1.731 -8.182,1.731C-8.309,1.731 -8.42,1.813 -8.455,1.938L-8.621,2.572C-8.631,2.594 -8.631,2.617 -8.631,2.645C-8.633,2.768 -8.551,2.88 -8.426,2.914L-7.777,3.088L-8.695,3.617C-8.783,3.668 -8.836,3.765 -8.834,3.86C-8.836,3.905 -8.824,3.955 -8.797,4.001L-8.469,4.567C-8.418,4.657 -8.322,4.708 -8.227,4.708C-8.178,4.708 -8.131,4.695 -8.09,4.673L-7.17,4.141L-7.344,4.788C-7.35,4.81 -7.354,4.834 -7.354,4.86C-7.354,4.985 -7.27,5.096 -7.146,5.131L-6.514,5.301C-6.484,5.309 -6.461,5.31 -6.439,5.31C-6.316,5.31 -6.205,5.229 -6.168,5.105L-5.68,3.281L-4.531,2.616L-4.531,4.026L-5.865,5.36C-5.92,5.415 -5.945,5.488 -5.945,5.558C-5.945,5.628 -5.92,5.701 -5.865,5.754L-5.4,6.22C-5.346,6.274 -5.273,6.303 -5.203,6.302C-5.133,6.302 -5.059,6.274 -5.006,6.22L-4.531,5.747L-4.531,6.723C-4.529,6.878 -4.408,7.002 -4.252,7.002L-3.596,7.002C-3.439,7.002 -3.318,6.878 -3.316,6.723L-3.316,5.745L-2.842,6.22C-2.787,6.274 -2.715,6.303 -2.645,6.302C-2.572,6.302 -2.5,6.274 -2.447,6.221L-1.982,5.755C-1.928,5.702 -1.9,5.628 -1.9,5.558C-1.9,5.486 -1.928,5.414 -1.984,5.358L-3.316,4.026L-3.316,2.616L-2.096,3.322L-1.607,5.144C-1.572,5.27 -1.461,5.352 -1.336,5.352C-1.312,5.352 -1.291,5.347 -1.271,5.344L-0.631,5.173C-0.504,5.137 -0.424,5.024 -0.424,4.901C-0.424,4.876 -0.428,4.855 -0.432,4.834L-0.605,4.182L0.24,4.67C0.283,4.695 0.334,4.708 0.381,4.708C0.477,4.708 0.568,4.656 0.621,4.57L0.951,3.999C0.977,3.952 0.988,3.904 0.988,3.859C0.988,3.766 0.937,3.669 0.848,3.617L0,3.129Z" style="fill:rgb(76,86,106);fill-rule:nonzero;"/>
                </g>
                <g transform="matrix(1,0,0,1,30.0273,18.6355)">
                    <path d="M0,-5.761C-0.568,-9.833 -4.035,-12.971 -8.252,-13.02C-8.271,-13.021 -8.309,-13.025 -8.352,-13.025C-12.064,-13.025 -15.211,-10.626 -16.34,-7.295C-18.381,-6.808 -20.045,-5.37 -20.842,-3.474C-23.674,-3.319 -25.922,-0.983 -25.922,1.887C-25.922,3.551 -25.166,5.032 -23.98,6.015C-23.977,6.009 -23.975,6.001 -23.973,5.995C-24.182,5.807 -24.305,5.541 -24.303,5.259C-24.303,5.092 -24.256,4.921 -24.168,4.773L-23.846,4.215C-23.678,3.914 -23.354,3.724 -23.004,3.724C-22.896,3.724 -22.791,3.742 -22.691,3.775C-22.564,3.561 -22.355,3.393 -22.1,3.326L-21.498,3.165C-21.422,3.139 -21.342,3.126 -21.26,3.123C-21.223,3.063 -21.178,3.009 -21.129,2.96L-20.666,2.499C-20.498,2.321 -20.242,2.213 -19.979,2.211C-19.889,1.768 -19.498,1.431 -19.029,1.429L-18.371,1.429C-17.9,1.431 -17.506,1.768 -17.416,2.211C-17.164,2.213 -16.914,2.315 -16.732,2.493L-16.268,2.958C-16.229,2.997 -16.193,3.037 -16.162,3.082C-16.145,3.082 -16.129,3.081 -16.111,3.081C-16.027,3.081 -15.943,3.092 -15.859,3.114L-15.227,3.284C-14.967,3.352 -14.752,3.526 -14.627,3.753C-14.553,3.734 -14.475,3.724 -14.395,3.724C-14.049,3.724 -13.727,3.91 -13.553,4.21L-13.225,4.778C-13.137,4.93 -13.094,5.097 -13.094,5.264C-13.092,5.516 -13.191,5.76 -13.365,5.94C-13.273,6.089 -13.227,6.259 -13.227,6.441C-13.227,6.525 -13.234,6.607 -13.256,6.689L-13.412,7.264L-7.793,7.264L-7.93,6.755C-7.955,6.666 -7.969,6.574 -7.969,6.48C-7.969,6.303 -7.922,6.137 -7.84,5.995C-8.049,5.807 -8.172,5.541 -8.172,5.259C-8.174,5.103 -8.129,4.932 -8.041,4.78L-7.713,4.213C-7.547,3.914 -7.223,3.724 -6.871,3.724C-6.764,3.724 -6.656,3.742 -6.555,3.776C-6.43,3.558 -6.221,3.392 -5.969,3.326L-5.365,3.165C-5.289,3.139 -5.211,3.126 -5.129,3.123C-5.092,3.063 -5.049,3.009 -4.998,2.96L-4.535,2.499C-4.365,2.321 -4.113,2.213 -3.848,2.211C-3.76,1.768 -3.365,1.431 -2.896,1.429L-2.238,1.429C-1.766,1.431 -1.373,1.768 -1.283,2.211C-1.027,2.213 -0.785,2.312 -0.6,2.493L-0.137,2.958C-0.098,2.997 -0.062,3.037 -0.029,3.082C-0.014,3.082 0.004,3.081 0.021,3.081C0.104,3.081 0.189,3.092 0.271,3.114L0.904,3.284C1.168,3.352 1.379,3.526 1.504,3.753C1.58,3.734 1.658,3.724 1.738,3.724C2.082,3.724 2.406,3.91 2.58,4.21L2.908,4.777C2.996,4.93 3.037,5.097 3.037,5.264C3.037,5.518 2.939,5.761 2.768,5.94C2.818,6.023 2.852,6.116 2.875,6.212C4.676,5.051 5.867,3.034 5.867,0.731C5.867,-2.652 3.295,-5.427 0,-5.761" style="fill:rgb(46,52,64);fill-rule:nonzero;"/>
                </g>
            </g>
        </g>
    </g>
</svg>
