<?xml version="1.0" encoding="UTF-8" standalone="no"?>
<!DOCTYPE svg PUBLIC "-//W3C//DTD SVG 1.1//EN" "http://www.w3.org/Graphics/SVG/1.1/DTD/svg11.dtd">
<svg width="100%" height="100%" viewBox="0 0 40 40" version="1.1" xmlns="http://www.w3.org/2000/svg" xmlns:xlink="http://www.w3.org/1999/xlink" xml:space="preserve" xmlns:serif="http://www.serif.com/" style="fill-rule:evenodd;clip-rule:evenodd;stroke-linejoin:round;stroke-miterlimit:2;">
    <g transform="matrix(1,0,0,1,-45,-45)">
        <g id="svg_snow_night" transform="matrix(1,0,0,1,45,45)">
            <rect x="0" y="0" width="40" height="40" style="fill:none;"/>
            <g id="Weather-Icons" serif:id="Weather Icons">
                <g transform="matrix(1,0,0,1,18.4252,35.8706)">
                    <path d="M0,-1.366L-0.428,-1.613L-0.668,-2.507C-0.672,-2.521 -0.676,-2.537 -0.684,-2.551C-0.676,-2.538 -0.668,-2.526 -0.656,-2.517L0,-1.86L0,-1.366ZM2.867,0.289L2.613,0.143L2.746,0.107C2.85,0.078 2.914,-0.012 2.914,-0.113C2.914,-0.134 2.91,-0.148 2.91,-0.155L2.82,-0.494C2.791,-0.595 2.701,-0.662 2.6,-0.662C2.59,-0.662 2.568,-0.663 2.543,-0.654L1.646,-0.415L1.184,-0.683L1.646,-0.95L2.543,-0.711C2.563,-0.705 2.582,-0.704 2.6,-0.704C2.701,-0.704 2.791,-0.768 2.82,-0.871L2.906,-1.195C2.912,-1.218 2.914,-1.236 2.914,-1.254C2.914,-1.357 2.848,-1.445 2.746,-1.473L2.613,-1.508L2.867,-1.654C2.941,-1.697 2.98,-1.776 2.98,-1.853C2.98,-1.891 2.971,-1.929 2.951,-1.965L2.783,-2.254C2.74,-2.328 2.664,-2.37 2.584,-2.369C2.551,-2.369 2.506,-2.36 2.463,-2.333L2.221,-2.191L2.254,-2.323C2.26,-2.348 2.262,-2.365 2.262,-2.382C2.262,-2.48 2.197,-2.574 2.092,-2.602L1.77,-2.687C1.758,-2.692 1.736,-2.697 1.713,-2.697C1.613,-2.697 1.516,-2.63 1.492,-2.521L1.252,-1.634L0.787,-1.366L0.787,-1.86L1.445,-2.514C1.488,-2.561 1.51,-2.62 1.51,-2.675C1.51,-2.732 1.488,-2.79 1.445,-2.836L1.209,-3.072C1.164,-3.116 1.105,-3.139 1.047,-3.139C0.99,-3.139 0.928,-3.117 0.881,-3.069L0.787,-2.975L0.787,-3.309C0.787,-3.436 0.687,-3.536 0.562,-3.537L0.229,-3.537C0.102,-3.536 0,-3.438 0,-3.309L0,-2.975L-0.098,-3.072C-0.139,-3.116 -0.197,-3.139 -0.258,-3.139C-0.314,-3.139 -0.375,-3.117 -0.422,-3.069L-0.654,-2.836C-0.699,-2.791 -0.721,-2.733 -0.721,-2.676C-0.721,-2.641 -0.713,-2.605 -0.697,-2.573C-0.736,-2.636 -0.811,-2.677 -0.887,-2.676C-0.898,-2.675 -0.924,-2.677 -0.963,-2.663L-1.268,-2.581C-1.371,-2.554 -1.437,-2.461 -1.437,-2.361C-1.437,-2.349 -1.436,-2.319 -1.424,-2.292L-1.395,-2.171L-1.684,-2.338C-1.715,-2.356 -1.756,-2.37 -1.797,-2.369C-1.873,-2.37 -1.953,-2.33 -1.996,-2.251L-2.16,-1.965C-2.182,-1.93 -2.191,-1.892 -2.191,-1.853C-2.193,-1.776 -2.152,-1.698 -2.078,-1.656L-1.787,-1.487L-1.92,-1.453C-2.023,-1.425 -2.09,-1.332 -2.09,-1.233C-2.09,-1.22 -2.086,-1.195 -2.08,-1.169L-1.994,-0.851C-1.967,-0.749 -1.877,-0.683 -1.773,-0.683C-1.752,-0.683 -1.738,-0.685 -1.732,-0.686L-0.822,-0.93L-0.393,-0.683L-0.822,-0.436L-1.715,-0.676C-1.729,-0.679 -1.748,-0.683 -1.773,-0.683C-1.877,-0.683 -1.969,-0.617 -1.996,-0.509L-2.082,-0.192C-2.084,-0.177 -2.09,-0.156 -2.09,-0.134C-2.09,-0.035 -2.023,0.06 -1.92,0.086L-1.789,0.122L-2.078,0.289C-2.15,0.33 -2.193,0.409 -2.191,0.487C-2.193,0.519 -2.184,0.562 -2.16,0.599L-1.994,0.889C-1.953,0.963 -1.873,1.003 -1.797,1.001C-1.758,1.003 -1.721,0.992 -1.689,0.976L-1.395,0.805L-1.428,0.937C-1.434,0.948 -1.437,0.968 -1.437,0.994C-1.437,1.093 -1.371,1.188 -1.27,1.215L-0.945,1.302C-0.92,1.309 -0.9,1.31 -0.887,1.31C-0.785,1.31 -0.695,1.242 -0.668,1.142L-0.428,0.247L0,0L0,0.535L-0.654,1.191C-0.699,1.234 -0.721,1.293 -0.721,1.351C-0.721,1.407 -0.699,1.466 -0.656,1.511L-0.418,1.748C-0.375,1.792 -0.314,1.815 -0.258,1.815C-0.197,1.815 -0.139,1.79 -0.098,1.751L0,1.652L0,1.945C0,2.073 0.1,2.17 0.229,2.171L0.562,2.171C0.687,2.17 0.787,2.071 0.787,1.945L0.787,1.652L0.887,1.748C0.93,1.793 0.99,1.815 1.047,1.815C1.105,1.815 1.162,1.791 1.205,1.751L1.443,1.512C1.488,1.464 1.51,1.407 1.51,1.351C1.51,1.293 1.488,1.236 1.445,1.191L0.787,0.535L0.787,0L1.252,0.268L1.494,1.161C1.521,1.265 1.611,1.33 1.713,1.33C1.734,1.33 1.75,1.327 1.756,1.325L2.092,1.236C2.197,1.208 2.262,1.114 2.262,1.015C2.262,0.994 2.26,0.98 2.258,0.968L2.219,0.826L2.473,0.972C2.508,0.993 2.549,1.003 2.584,1.001C2.666,1.001 2.74,0.961 2.781,0.891L2.951,0.599C2.971,0.562 2.98,0.523 2.98,0.487C2.98,0.407 2.941,0.331 2.867,0.289" style="fill:rgb(76,86,106);fill-rule:nonzero;"/>
                </g>
                <g transform="matrix(1,0,0,1,15.9389,32.1444)">
                    <path d="M0,-4.591C0,-4.639 -0.012,-4.686 -0.037,-4.731L-0.365,-5.299C-0.416,-5.389 -0.512,-5.439 -0.607,-5.439C-0.654,-5.439 -0.705,-5.428 -0.752,-5.397L-1.594,-4.913L-1.42,-5.56C-1.412,-5.587 -1.41,-5.611 -1.41,-5.632C-1.41,-5.757 -1.492,-5.868 -1.619,-5.902L-2.252,-6.073C-2.273,-6.078 -2.299,-6.081 -2.324,-6.081C-2.449,-6.081 -2.563,-6 -2.596,-5.873L-3.082,-4.052L-4.303,-3.348L-4.303,-4.677L-2.971,-6.01C-2.914,-6.065 -2.889,-6.138 -2.889,-6.207C-2.889,-6.28 -2.914,-6.352 -2.971,-6.407L-3.434,-6.868C-3.486,-6.923 -3.561,-6.951 -3.631,-6.951C-3.703,-6.951 -3.775,-6.924 -3.832,-6.866L-4.303,-6.396L-4.303,-7.454C-4.303,-7.609 -4.428,-7.733 -4.584,-7.733L-5.24,-7.733C-5.395,-7.733 -5.518,-7.609 -5.518,-7.454L-5.518,-6.396L-5.994,-6.868C-6.049,-6.924 -6.119,-6.951 -6.191,-6.951C-6.262,-6.951 -6.336,-6.924 -6.391,-6.866L-6.854,-6.405C-6.908,-6.351 -6.936,-6.279 -6.936,-6.207C-6.936,-6.138 -6.908,-6.066 -6.854,-6.011L-5.52,-4.677L-5.52,-3.349L-6.67,-4.012L-7.158,-5.834C-7.191,-5.958 -7.303,-6.041 -7.428,-6.041C-7.449,-6.041 -7.479,-6.04 -7.514,-6.027L-8.133,-5.862C-8.258,-5.828 -8.34,-5.719 -8.34,-5.592C-8.342,-5.57 -8.338,-5.54 -8.328,-5.512L-8.158,-4.872L-9.074,-5.401C-9.119,-5.426 -9.166,-5.439 -9.217,-5.439C-9.311,-5.44 -9.408,-5.39 -9.459,-5.296L-9.785,-4.731C-9.811,-4.687 -9.822,-4.639 -9.822,-4.591C-9.824,-4.496 -9.773,-4.401 -9.686,-4.349L-8.766,-3.82L-9.412,-3.646C-9.539,-3.611 -9.619,-3.501 -9.621,-3.375C-9.621,-3.354 -9.617,-3.324 -9.609,-3.294L-9.443,-2.67C-9.408,-2.545 -9.295,-2.463 -9.17,-2.462C-9.148,-2.462 -9.125,-2.466 -9.105,-2.47L-7.277,-2.96L-6.129,-2.295L-7.277,-1.631L-9.1,-2.12C-9.123,-2.126 -9.148,-2.13 -9.17,-2.13C-9.295,-2.13 -9.408,-2.048 -9.443,-1.921L-9.613,-1.288C-9.617,-1.267 -9.619,-1.243 -9.619,-1.216C-9.621,-1.093 -9.539,-0.98 -9.414,-0.945L-8.764,-0.773L-9.684,-0.242C-9.771,-0.192 -9.824,-0.096 -9.822,-0C-9.824,0.045 -9.811,0.096 -9.785,0.141L-9.457,0.708C-9.408,0.799 -9.311,0.846 -9.215,0.846C-9.164,0.846 -9.121,0.835 -9.08,0.812L-8.158,0.28L-8.334,0.929C-8.338,0.949 -8.34,0.975 -8.34,1.001C-8.34,1.125 -8.26,1.237 -8.133,1.27L-7.5,1.439C-7.473,1.449 -7.449,1.45 -7.432,1.45C-7.305,1.45 -7.193,1.368 -7.158,1.244L-6.668,-0.578L-5.52,-1.243L-5.52,0.167L-6.854,1.5C-6.908,1.555 -6.936,1.627 -6.936,1.698C-6.936,1.768 -6.908,1.841 -6.854,1.894L-6.389,2.36C-6.336,2.414 -6.262,2.442 -6.191,2.441C-6.119,2.441 -6.049,2.414 -5.994,2.36L-5.52,1.886L-5.518,2.862C-5.518,3.018 -5.396,3.142 -5.24,3.142L-4.584,3.142C-4.428,3.142 -4.303,3.018 -4.303,2.862L-4.303,1.886L-3.828,2.36C-3.775,2.415 -3.703,2.441 -3.633,2.441C-3.561,2.442 -3.488,2.413 -3.436,2.362L-2.971,1.895C-2.914,1.841 -2.889,1.768 -2.889,1.698C-2.889,1.627 -2.914,1.555 -2.973,1.498L-4.303,0.167L-4.303,-1.243L-3.082,-0.538L-2.594,1.283C-2.561,1.408 -2.447,1.491 -2.324,1.491C-2.299,1.491 -2.277,1.486 -2.26,1.483L-1.617,1.311C-1.49,1.276 -1.41,1.164 -1.41,1.041C-1.41,1.017 -1.414,0.995 -1.418,0.975L-1.596,0.321L-0.746,0.81C-0.703,0.836 -0.654,0.846 -0.607,0.846C-0.51,0.846 -0.418,0.796 -0.367,0.71L-0.037,0.139C-0.012,0.093 0,0.044 0,-0.001C0,-0.096 -0.049,-0.191 -0.141,-0.242L-0.986,-0.732L-0.338,-0.904C-0.213,-0.939 -0.131,-1.053 -0.131,-1.175C-0.131,-1.2 -0.135,-1.222 -0.139,-1.242L-0.311,-1.881C-0.344,-2.006 -0.457,-2.089 -0.582,-2.089C-0.602,-2.089 -0.627,-2.087 -0.662,-2.076L-2.477,-1.591L-3.695,-2.295L-2.477,-3.001L-0.654,-2.512C-0.627,-2.505 -0.602,-2.503 -0.582,-2.503C-0.457,-2.504 -0.348,-2.586 -0.311,-2.708L-0.141,-3.344C-0.133,-3.371 -0.131,-3.393 -0.131,-3.415C-0.131,-3.54 -0.213,-3.651 -0.336,-3.686L-0.986,-3.861L-0.141,-4.349C-0.049,-4.4 0,-4.497 0,-4.591" style="fill:rgb(76,86,106);fill-rule:nonzero;"/>
                </g>
                <g transform="matrix(1,0,0,1,31.0854,28.2848)">
                    <path d="M0,3.128L0.646,2.955C0.773,2.921 0.854,2.807 0.854,2.685C0.854,2.659 0.852,2.638 0.846,2.617L0.674,1.979C0.643,1.854 0.529,1.771 0.404,1.771C0.385,1.771 0.357,1.773 0.324,1.783L-1.49,2.269L-2.711,1.565L-1.49,0.858L0.332,1.348C0.359,1.355 0.383,1.357 0.404,1.357C0.529,1.356 0.639,1.274 0.674,1.151L0.846,0.516C0.852,0.488 0.854,0.467 0.854,0.444C0.854,0.319 0.773,0.208 0.648,0.174L0,-0.001L0.846,-0.489C0.936,-0.541 0.984,-0.638 0.984,-0.731C0.984,-0.779 0.975,-0.826 0.947,-0.871L0.621,-1.439C0.568,-1.529 0.475,-1.579 0.377,-1.579C0.332,-1.579 0.281,-1.568 0.232,-1.537L-0.609,-1.054L-0.436,-1.7C-0.428,-1.727 -0.426,-1.751 -0.426,-1.772C-0.426,-1.897 -0.506,-2.009 -0.635,-2.043L-1.266,-2.214C-1.287,-2.219 -1.314,-2.222 -1.34,-2.222C-1.463,-2.222 -1.576,-2.14 -1.609,-2.014L-2.098,-0.192L-3.318,0.511L-3.318,-0.817L-1.986,-2.15C-1.928,-2.205 -1.902,-2.278 -1.904,-2.348C-1.902,-2.421 -1.93,-2.492 -1.986,-2.548L-2.447,-3.009C-2.504,-3.064 -2.574,-3.092 -2.648,-3.092C-2.717,-3.092 -2.793,-3.064 -2.846,-3.007L-3.318,-2.536L-3.318,-3.595C-3.318,-3.75 -3.441,-3.873 -3.598,-3.874L-4.254,-3.874C-4.408,-3.873 -4.533,-3.75 -4.533,-3.595L-4.533,-2.536L-5.008,-3.009C-5.062,-3.064 -5.133,-3.092 -5.207,-3.092C-5.275,-3.092 -5.352,-3.064 -5.406,-3.007L-5.867,-2.546C-5.922,-2.491 -5.949,-2.42 -5.949,-2.348C-5.949,-2.278 -5.922,-2.206 -5.867,-2.151L-4.533,-0.817L-4.533,0.511L-5.684,-0.152L-6.172,-1.974C-6.205,-2.099 -6.318,-2.182 -6.441,-2.182C-6.463,-2.182 -6.492,-2.181 -6.527,-2.168L-7.146,-2.003C-7.271,-1.969 -7.354,-1.859 -7.355,-1.732C-7.355,-1.71 -7.354,-1.681 -7.344,-1.652L-7.172,-1.013L-8.09,-1.542C-8.133,-1.566 -8.18,-1.579 -8.23,-1.579C-8.322,-1.58 -8.422,-1.53 -8.473,-1.436L-8.801,-0.871C-8.824,-0.827 -8.838,-0.779 -8.838,-0.731C-8.838,-0.637 -8.787,-0.542 -8.699,-0.489L-7.779,0.04L-8.426,0.214C-8.553,0.248 -8.635,0.358 -8.635,0.485C-8.635,0.506 -8.633,0.535 -8.623,0.565L-8.457,1.19C-8.422,1.315 -8.311,1.397 -8.184,1.398C-8.162,1.398 -8.139,1.394 -8.119,1.39L-6.291,0.899L-5.143,1.565L-6.291,2.229L-8.115,1.739C-8.137,1.733 -8.162,1.73 -8.184,1.73C-8.311,1.73 -8.424,1.812 -8.457,1.939L-8.627,2.571C-8.633,2.593 -8.635,2.616 -8.635,2.644C-8.635,2.767 -8.553,2.88 -8.426,2.914L-7.779,3.087L-8.697,3.617C-8.785,3.667 -8.838,3.764 -8.838,3.86C-8.838,3.904 -8.824,3.955 -8.799,4L-8.473,4.567C-8.422,4.657 -8.324,4.706 -8.23,4.706C-8.18,4.706 -8.135,4.694 -8.094,4.672L-7.172,4.14L-7.348,4.788C-7.352,4.809 -7.354,4.834 -7.354,4.86C-7.354,4.985 -7.271,5.097 -7.146,5.13L-6.516,5.299C-6.486,5.309 -6.463,5.31 -6.443,5.31C-6.318,5.31 -6.207,5.228 -6.172,5.104L-5.684,3.281L-4.533,2.616L-4.533,4.026L-5.867,5.36C-5.922,5.415 -5.949,5.486 -5.949,5.558C-5.949,5.628 -5.922,5.7 -5.867,5.754L-5.402,6.22C-5.352,6.274 -5.275,6.302 -5.207,6.301C-5.133,6.301 -5.062,6.274 -5.008,6.22L-4.533,5.745L-4.533,6.722C-4.533,6.878 -4.41,7.002 -4.254,7.002L-3.598,7.002C-3.441,7.002 -3.32,6.878 -3.318,6.722L-3.318,5.745L-2.844,6.22C-2.791,6.274 -2.717,6.302 -2.648,6.301C-2.574,6.301 -2.504,6.274 -2.449,6.22L-1.986,5.755C-1.93,5.7 -1.902,5.628 -1.904,5.558C-1.902,5.486 -1.93,5.414 -1.988,5.358L-3.318,4.026L-3.318,2.616L-2.098,3.321L-1.609,5.143C-1.576,5.268 -1.463,5.351 -1.34,5.351C-1.316,5.351 -1.293,5.346 -1.275,5.343L-0.633,5.171C-0.506,5.136 -0.426,5.024 -0.426,4.901C-0.426,4.876 -0.428,4.855 -0.434,4.834L-0.609,4.181L0.238,4.67C0.283,4.695 0.332,4.706 0.377,4.706C0.477,4.706 0.566,4.655 0.617,4.569L0.947,3.999C0.975,3.952 0.984,3.903 0.984,3.858C0.984,3.764 0.936,3.669 0.846,3.617L0,3.128Z" style="fill:rgb(76,86,106);fill-rule:nonzero;"/>
                </g>
                <g transform="matrix(1,0,0,1,29.726,22.2881)">
                    <path d="M0,-5.76C-0.568,-9.833 -4.037,-12.971 -8.252,-13.02C-8.273,-13.021 -8.307,-13.025 -8.352,-13.025C-12.064,-13.025 -15.213,-10.625 -16.342,-7.295C-18.381,-6.808 -20.045,-5.37 -20.844,-3.473C-23.674,-3.319 -25.924,-0.982 -25.924,1.888C-25.924,3.551 -25.168,5.032 -23.982,6.016C-23.979,6.01 -23.977,6.003 -23.973,5.996C-24.184,5.808 -24.307,5.541 -24.305,5.261C-24.305,5.092 -24.256,4.921 -24.17,4.773L-23.848,4.215C-23.68,3.914 -23.355,3.724 -23.004,3.724C-22.898,3.724 -22.791,3.742 -22.691,3.776C-22.566,3.562 -22.355,3.394 -22.102,3.326L-21.5,3.165C-21.424,3.14 -21.344,3.126 -21.26,3.123C-21.223,3.064 -21.18,3.011 -21.131,2.96L-20.668,2.499C-20.5,2.321 -20.244,2.214 -19.98,2.213C-19.893,1.767 -19.498,1.43 -19.029,1.429L-18.371,1.429C-17.9,1.43 -17.506,1.767 -17.416,2.213C-17.164,2.214 -16.914,2.316 -16.732,2.493L-16.268,2.959C-16.229,2.996 -16.193,3.039 -16.162,3.082C-16.145,3.081 -16.129,3.08 -16.111,3.08C-16.029,3.08 -15.943,3.092 -15.859,3.115L-15.229,3.284C-14.965,3.352 -14.754,3.526 -14.627,3.752C-14.553,3.734 -14.475,3.724 -14.395,3.724C-14.049,3.724 -13.725,3.91 -13.553,4.21L-13.225,4.778C-13.137,4.932 -13.094,5.097 -13.094,5.265C-13.092,5.517 -13.191,5.761 -13.365,5.94C-13.275,6.089 -13.225,6.261 -13.225,6.441C-13.225,6.525 -13.236,6.607 -13.256,6.689L-13.412,7.265L-7.793,7.265L-7.93,6.755C-7.955,6.666 -7.969,6.574 -7.969,6.48C-7.969,6.304 -7.922,6.138 -7.842,5.996C-8.051,5.808 -8.174,5.541 -8.172,5.261C-8.174,5.103 -8.129,4.932 -8.043,4.782L-7.713,4.214C-7.547,3.914 -7.223,3.724 -6.873,3.724C-6.764,3.724 -6.656,3.742 -6.557,3.776C-6.43,3.558 -6.223,3.393 -5.969,3.326L-5.367,3.165C-5.291,3.14 -5.211,3.126 -5.129,3.123C-5.09,3.064 -5.049,3.011 -4.998,2.96L-4.535,2.499C-4.365,2.321 -4.113,2.214 -3.848,2.213C-3.76,1.767 -3.367,1.43 -2.898,1.429L-2.238,1.429C-1.766,1.43 -1.373,1.767 -1.285,2.213C-1.029,2.214 -0.785,2.312 -0.602,2.494L-0.137,2.957C-0.098,2.996 -0.062,3.039 -0.029,3.082C-0.012,3.081 0.004,3.08 0.02,3.08C0.104,3.08 0.189,3.092 0.271,3.115L0.906,3.284C1.166,3.352 1.379,3.526 1.504,3.752C1.578,3.734 1.658,3.724 1.734,3.724C2.082,3.724 2.404,3.91 2.58,4.21L2.908,4.777C2.996,4.932 3.037,5.097 3.037,5.265C3.037,5.518 2.938,5.761 2.768,5.94C2.816,6.024 2.852,6.115 2.875,6.212C4.676,5.053 5.869,3.034 5.869,0.732C5.869,-2.652 3.295,-5.427 0,-5.76" style="fill:rgb(46,52,64);fill-rule:nonzero;"/>
                </g>
                <g transform="matrix(1,0,0,1,35.437,9.2963)">
                    <path d="M0,1.805C-2.338,-4.902 -9.391,-8.621 -16.148,-6.933C-12.322,-6.653 -8.791,-4.482 -6.854,-1.049C-6.75,-1.101 -6.641,-1.151 -6.525,-1.191C-5.125,-1.677 -3.598,-0.939 -3.111,0.46C-2.623,1.859 -3.361,3.389 -4.762,3.876C-4.961,3.945 -5.162,3.988 -5.361,4.008C-5.332,4.519 -5.342,5.024 -5.377,5.528C-5.262,5.876 -5.156,6.232 -5.082,6.599C-2.791,7.007 -0.904,8.459 0.113,10.426C0.982,7.711 1.008,4.704 0,1.805" style="fill:rgb(199,146,96);fill-rule:nonzero;"/>
                </g>
            </g>
        </g>
    </g>
</svg>
