<?xml version="1.0" encoding="UTF-8" standalone="no"?>
<!DOCTYPE svg PUBLIC "-//W3C//DTD SVG 1.1//EN" "http://www.w3.org/Graphics/SVG/1.1/DTD/svg11.dtd">
<svg width="100%" height="100%" viewBox="0 0 41 41" version="1.1" xmlns="http://www.w3.org/2000/svg" xmlns:xlink="http://www.w3.org/1999/xlink" xml:space="preserve" xmlns:serif="http://www.serif.com/" style="fill-rule:evenodd;clip-rule:evenodd;stroke-linejoin:round;stroke-miterlimit:2;">
    <g transform="matrix(1,0,0,1,-225,-44)">
        <g id="svg_temp" transform="matrix(1,0,0,1,225.429,44.5715)">
            <rect x="0" y="0" width="40" height="40" style="fill:none;"/>
            <g transform="matrix(1,0,0,1,27.5147,19.9139)">
                <g id="Weather-Icons" serif:id="Weather Icons">
                    <path d="M0,0.172L-3.281,0.172C-3.5,0.173 -3.676,0.349 -3.676,0.569L-3.676,1.847C-3.676,2.065 -3.5,2.241 -3.281,2.241L0,2.241C0.219,2.241 0.393,2.065 0.393,1.847L0.393,0.569C0.393,0.349 0.219,0.173 0,0.172M-1.613,-4.404L-3.281,-4.404C-3.5,-4.404 -3.676,-4.227 -3.676,-4.008L-3.676,-2.73C-3.676,-2.512 -3.5,-2.336 -3.281,-2.335L-1.613,-2.335C-1.393,-2.336 -1.217,-2.512 -1.217,-2.73L-1.217,-4.008C-1.217,-4.227 -1.395,-4.404 -1.613,-4.404M-1.613,-8.981L-3.281,-8.981C-3.5,-8.981 -3.676,-8.803 -3.676,-8.585L-3.676,-7.306C-3.676,-7.088 -3.5,-6.912 -3.281,-6.912L-1.613,-6.912C-1.395,-6.912 -1.219,-7.088 -1.219,-7.306L-1.219,-8.585C-1.219,-8.803 -1.393,-8.981 -1.613,-8.981M0,-13.557L-3.281,-13.557C-3.5,-13.557 -3.676,-13.379 -3.676,-13.161L-3.676,-11.883C-3.676,-11.665 -3.5,-11.487 -3.281,-11.487L0,-11.487C0.219,-11.487 0.393,-11.665 0.395,-11.883L0.395,-13.161C0.393,-13.379 0.219,-13.557 0,-13.557M-8.58,13.727C-11.328,13.722 -13.553,11.498 -13.555,8.751C-13.553,6.001 -11.328,3.778 -8.58,3.774C-5.832,3.778 -3.607,6.001 -3.604,8.751C-3.607,11.498 -5.832,13.722 -8.58,13.727M-9.648,-14.229L-7.51,-14.229C-6.676,-14.227 -5.998,-13.547 -5.996,-12.714L-5.996,-3.414L-11.162,-3.414L-11.164,-12.714C-11.16,-13.547 -10.482,-14.227 -9.648,-14.229M-4.805,3.051L-4.805,-12.714C-4.805,-14.204 -6.02,-15.42 -7.51,-15.42L-9.648,-15.42C-11.139,-15.42 -12.355,-14.204 -12.355,-12.714L-12.355,3.05C-14.201,4.276 -15.424,6.367 -15.424,8.751C-15.424,12.53 -12.359,15.592 -8.58,15.592C-4.801,15.592 -1.736,12.53 -1.736,8.751C-1.736,6.367 -2.957,4.276 -4.805,3.051" style="fill:rgb(191,97,106);fill-rule:nonzero;"/>
                </g>
            </g>
        </g>
    </g>
</svg>
