<?xml version="1.0" encoding="UTF-8" standalone="no"?>
<!DOCTYPE svg PUBLIC "-//W3C//DTD SVG 1.1//EN" "http://www.w3.org/Graphics/SVG/1.1/DTD/svg11.dtd">
<svg width="100%" height="100%" viewBox="0 0 40 40" version="1.1" xmlns="http://www.w3.org/2000/svg" xmlns:xlink="http://www.w3.org/1999/xlink" xml:space="preserve" xmlns:serif="http://www.serif.com/" style="fill-rule:evenodd;clip-rule:evenodd;stroke-linejoin:round;stroke-miterlimit:2;">
    <g transform="matrix(1,0,0,1,-225,0)">
        <g id="svg_sunny_night" transform="matrix(1,0,0,1,225,0)">
            <rect x="0" y="0" width="40" height="40" style="fill:none;"/>
            <g transform="matrix(1,0,0,1,13.1191,10.7377)">
                <g id="Weather-Icons" serif:id="Weather Icons">
                    <path d="M0,18.524C0,18.527 -0.002,18.532 -0.002,18.537C-0.002,19.618 0.873,20.492 1.955,20.492C2.936,20.492 3.742,19.771 3.885,18.832C6.459,18.645 8.822,17.699 10.75,16.212C10.754,17.202 11.557,18.002 12.545,18.002C13.539,18.002 14.34,17.198 14.34,16.206C14.34,15.247 13.59,14.47 12.643,14.42C13.838,13.032 14.738,11.387 15.252,9.578C15.467,9.629 15.691,9.658 15.922,9.658C17.551,9.658 18.869,8.339 18.869,6.713C18.869,5.087 17.551,3.77 15.922,3.77C15.791,3.77 15.66,3.781 15.531,3.797C14.764,-0.461 11.889,-3.987 8.021,-5.661C15.639,-4.966 21.604,1.433 21.605,9.229C21.604,17.491 14.908,24.185 6.648,24.185C-0.33,24.185 -6.193,19.403 -7.844,12.935C-6.082,15.702 -3.287,17.746 0,18.524" style="fill:rgb(199,146,96);fill-rule:nonzero;"/>
                </g>
            </g>
        </g>
    </g>
</svg>
