<?xml version="1.0" encoding="UTF-8" standalone="no"?>
<!DOCTYPE svg PUBLIC "-//W3C//DTD SVG 1.1//EN" "http://www.w3.org/Graphics/SVG/1.1/DTD/svg11.dtd">
<svg width="100%" height="100%" viewBox="0 0 40 40" version="1.1" xmlns="http://www.w3.org/2000/svg" xmlns:xlink="http://www.w3.org/1999/xlink" xml:space="preserve" xmlns:serif="http://www.serif.com/" style="fill-rule:evenodd;clip-rule:evenodd;stroke-linejoin:round;stroke-miterlimit:2;">
    <g transform="matrix(1,0,0,1,-90,-45)">
        <g id="svg_slush" transform="matrix(1,0,0,1,90,45)">
            <rect x="0" y="0" width="40" height="40" style="fill:none;"/>
            <g id="Weather-Icons" serif:id="Weather Icons">
                <g transform="matrix(1,0,0,1,30.0273,20.013)">
                    <path d="M0,-5.762C-0.568,-9.832 -4.035,-12.972 -8.254,-13.02C-8.271,-13.021 -8.309,-13.026 -8.352,-13.026C-12.064,-13.026 -15.211,-10.625 -16.342,-7.293C-18.383,-6.809 -20.043,-5.371 -20.844,-3.474C-23.674,-3.319 -25.922,-0.982 -25.922,1.887C-25.922,3.416 -25.281,4.792 -24.256,5.768C-24.35,5.616 -24.406,5.439 -24.402,5.254C-24.402,5.101 -24.359,4.936 -24.277,4.791L-23.945,4.215C-23.785,3.918 -23.457,3.725 -23.104,3.725C-22.996,3.725 -22.889,3.743 -22.791,3.775C-22.662,3.558 -22.455,3.393 -22.199,3.324L-21.598,3.165C-21.52,3.14 -21.441,3.126 -21.359,3.123C-21.322,3.064 -21.277,3.008 -21.227,2.957L-20.77,2.5C-20.594,2.318 -20.346,2.213 -20.08,2.213C-19.988,1.765 -19.594,1.429 -19.125,1.429L-18.469,1.429C-17.998,1.429 -17.604,1.766 -17.516,2.213C-17.262,2.214 -17.01,2.317 -16.828,2.498L-16.367,2.961C-16.328,2.999 -16.295,3.04 -16.264,3.082C-16.244,3.082 -16.229,3.081 -16.211,3.081C-16.121,3.081 -16.031,3.092 -15.947,3.118L-15.324,3.284C-15.064,3.356 -14.852,3.529 -14.727,3.752C-14.652,3.734 -14.574,3.725 -14.494,3.725C-14.145,3.725 -13.822,3.911 -13.65,4.212L-13.322,4.781C-13.236,4.93 -13.195,5.096 -13.195,5.264C-13.195,5.517 -13.295,5.758 -13.463,5.937C-13.375,6.083 -13.326,6.253 -13.324,6.432C-13.324,6.521 -13.334,6.601 -13.354,6.679L-13.512,7.264L-7.447,7.264C-7.234,6.735 -6.914,6.247 -6.498,5.83C-6.016,5.349 -5.439,4.996 -4.781,4.78L-4.762,4.774L-4.744,4.769L-4.316,4.655L0.705,3.305C0.811,3.274 0.936,3.256 1.062,3.256C1.375,3.256 1.67,3.376 1.877,3.584C2.092,3.802 2.207,4.092 2.205,4.404C2.205,4.516 2.189,4.634 2.156,4.753L1.596,6.842C4.088,5.924 5.867,3.543 5.867,0.732C5.867,-2.651 3.293,-5.427 0,-5.762" style="fill:rgb(46,52,64);fill-rule:nonzero;"/>
                </g>
                <g transform="matrix(1,0,0,1,31.4121,32.4219)">
                    <path d="M0,-8.334C-0.082,-8.418 -0.203,-8.459 -0.322,-8.458C-0.381,-8.458 -0.439,-8.451 -0.5,-8.433L-5.521,-7.084L-5.949,-6.971C-6.48,-6.795 -6.977,-6.504 -7.391,-6.087C-8.102,-5.379 -8.457,-4.446 -8.457,-3.515C-8.457,-2.585 -8.102,-1.652 -7.391,-0.94C-6.682,-0.23 -5.748,0.125 -4.818,0.125L-4.814,0.125C-3.883,0.125 -2.953,-0.232 -2.244,-0.94C-1.828,-1.357 -1.539,-1.85 -1.365,-2.371L-1.246,-2.812L0.102,-7.835C0.117,-7.896 0.125,-7.954 0.125,-8.011C0.125,-8.13 0.084,-8.249 0.002,-8.334L0,-8.334Z" style="fill:rgb(76,86,106);fill-rule:nonzero;"/>
                </g>
                <g transform="matrix(1,0,0,1,16.1406,29.8704)">
                    <path d="M0,-4.593C0,-4.641 -0.014,-4.688 -0.039,-4.73L-0.365,-5.3C-0.418,-5.39 -0.512,-5.441 -0.609,-5.439C-0.654,-5.439 -0.705,-5.43 -0.754,-5.398L-1.594,-4.913L-1.42,-5.562C-1.412,-5.591 -1.412,-5.616 -1.412,-5.634C-1.412,-5.758 -1.492,-5.869 -1.619,-5.904L-2.252,-6.073C-2.271,-6.079 -2.299,-6.084 -2.324,-6.082C-2.447,-6.084 -2.564,-6.003 -2.596,-5.87L-3.082,-4.054L-4.303,-3.349L-4.303,-4.678L-2.969,-6.011C-2.914,-6.067 -2.887,-6.139 -2.889,-6.209C-2.889,-6.28 -2.916,-6.353 -2.971,-6.407L-3.432,-6.87C-3.49,-6.927 -3.561,-6.952 -3.631,-6.952C-3.701,-6.952 -3.775,-6.927 -3.832,-6.868L-4.303,-6.397L-4.303,-7.454C-4.303,-7.611 -4.43,-7.735 -4.582,-7.735L-5.238,-7.735C-5.395,-7.735 -5.518,-7.611 -5.52,-7.454L-5.52,-6.396L-5.994,-6.87C-6.049,-6.927 -6.121,-6.952 -6.191,-6.952C-6.262,-6.952 -6.334,-6.927 -6.393,-6.868L-6.852,-6.405C-6.906,-6.354 -6.934,-6.28 -6.934,-6.209C-6.934,-6.139 -6.906,-6.065 -6.85,-6.01L-5.52,-4.678L-5.52,-3.348L-6.67,-4.014L-7.158,-5.835C-7.191,-5.961 -7.303,-6.042 -7.426,-6.042C-7.449,-6.042 -7.479,-6.042 -7.512,-6.029L-8.133,-5.863C-8.258,-5.829 -8.34,-5.717 -8.34,-5.593C-8.34,-5.575 -8.34,-5.545 -8.328,-5.512L-8.158,-4.873L-9.074,-5.402C-9.119,-5.428 -9.166,-5.439 -9.215,-5.439C-9.309,-5.441 -9.406,-5.39 -9.459,-5.295L-9.785,-4.731C-9.809,-4.69 -9.822,-4.644 -9.822,-4.593C-9.824,-4.498 -9.771,-4.401 -9.682,-4.35L-8.766,-3.821L-9.412,-3.647C-9.539,-3.613 -9.619,-3.5 -9.619,-3.375C-9.621,-3.359 -9.619,-3.326 -9.607,-3.29L-9.441,-2.67C-9.404,-2.546 -9.297,-2.463 -9.17,-2.463C-9.146,-2.462 -9.123,-2.466 -9.105,-2.47L-7.277,-2.96L-6.127,-2.296L-7.277,-1.632L-9.1,-2.121C-9.121,-2.127 -9.146,-2.13 -9.17,-2.13C-9.297,-2.13 -9.41,-2.048 -9.441,-1.921L-9.611,-1.288C-9.617,-1.27 -9.621,-1.243 -9.619,-1.218C-9.621,-1.094 -9.539,-0.98 -9.412,-0.947L-8.766,-0.774L-9.682,-0.243C-9.771,-0.193 -9.822,-0.099 -9.822,-0.002C-9.822,0.042 -9.813,0.095 -9.783,0.14L-9.455,0.707C-9.404,0.796 -9.311,0.846 -9.215,0.846C-9.166,0.846 -9.119,0.833 -9.078,0.812L-8.158,0.279L-8.332,0.925C-8.336,0.944 -8.34,0.966 -8.34,1C-8.342,1.12 -8.26,1.237 -8.133,1.27L-7.5,1.439C-7.475,1.447 -7.451,1.449 -7.428,1.449C-7.305,1.448 -7.195,1.368 -7.158,1.245L-6.67,-0.58L-5.52,-1.243L-5.52,0.166L-6.852,1.5C-6.906,1.552 -6.934,1.626 -6.934,1.697C-6.934,1.767 -6.906,1.84 -6.852,1.895L-6.387,2.359C-6.336,2.414 -6.262,2.44 -6.191,2.44C-6.119,2.44 -6.049,2.412 -5.994,2.359L-5.52,1.884L-5.52,2.862C-5.518,3.016 -5.395,3.141 -5.238,3.142L-4.582,3.142C-4.428,3.141 -4.303,3.017 -4.303,2.862L-4.303,1.884L-3.83,2.359C-3.775,2.413 -3.701,2.44 -3.631,2.44C-3.559,2.44 -3.488,2.413 -3.434,2.36L-2.969,1.894C-2.916,1.84 -2.887,1.767 -2.889,1.697C-2.889,1.626 -2.916,1.554 -2.969,1.5L-4.303,0.166L-4.303,-1.243L-3.082,-0.539L-2.596,1.282C-2.561,1.407 -2.449,1.491 -2.324,1.491C-2.301,1.491 -2.277,1.486 -2.256,1.481L-1.617,1.31C-1.49,1.276 -1.412,1.161 -1.412,1.04C-1.412,1.012 -1.414,0.994 -1.416,0.979L-1.594,0.32L-0.746,0.809C-0.703,0.835 -0.654,0.846 -0.609,0.845C-0.51,0.845 -0.42,0.796 -0.367,0.709L-0.039,0.138C-0.012,0.09 0,0.042 0,-0.002C-0.002,-0.1 -0.049,-0.191 -0.139,-0.243L-0.986,-0.732L-0.338,-0.907C-0.213,-0.939 -0.131,-1.053 -0.131,-1.177C-0.131,-1.203 -0.135,-1.225 -0.139,-1.243L-0.312,-1.882C-0.344,-2.007 -0.457,-2.089 -0.58,-2.089C-0.6,-2.089 -0.627,-2.089 -0.664,-2.075L-2.473,-1.592L-3.697,-2.296L-2.473,-3.001L-0.652,-2.514C-0.627,-2.506 -0.602,-2.504 -0.58,-2.504C-0.455,-2.505 -0.346,-2.586 -0.312,-2.709L-0.141,-3.346C-0.133,-3.374 -0.131,-3.401 -0.131,-3.416C-0.133,-3.543 -0.213,-3.653 -0.336,-3.687L-0.986,-3.862L-0.141,-4.35C-0.049,-4.403 0,-4.497 0,-4.593" style="fill:rgb(76,86,106);fill-rule:nonzero;"/>
                </g>
            </g>
        </g>
    </g>
</svg>
