<?xml version="1.0" encoding="UTF-8" standalone="no"?>
<!DOCTYPE svg PUBLIC "-//W3C//DTD SVG 1.1//EN" "http://www.w3.org/Graphics/SVG/1.1/DTD/svg11.dtd">
<svg width="100%" height="100%" viewBox="0 0 40 40" version="1.1" xmlns="http://www.w3.org/2000/svg" xmlns:xlink="http://www.w3.org/1999/xlink" xml:space="preserve" xmlns:serif="http://www.serif.com/" style="fill-rule:evenodd;clip-rule:evenodd;stroke-linejoin:round;stroke-miterlimit:2;">
    <g transform="matrix(1,0,0,1,-180,0)">
        <g id="svg_rain_and_lightning" transform="matrix(1,0,0,1,180,0)">
            <rect x="0" y="0" width="40" height="40" style="fill:none;"/>
            <g id="Weather-Icons" serif:id="Weather Icons">
                <g transform="matrix(1,0,0,1,31.4121,27.8014)">
                    <path d="M0,-7.294C-0.084,-7.378 -0.201,-7.419 -0.322,-7.419C-0.379,-7.419 -0.439,-7.41 -0.498,-7.393L-5.523,-6.045L-5.949,-5.93C-6.48,-5.754 -6.975,-5.464 -7.391,-5.048C-8.102,-4.338 -8.459,-3.406 -8.459,-2.475C-8.459,-1.544 -8.102,-0.611 -7.391,0.099C-6.682,0.809 -5.748,1.165 -4.818,1.165C-3.887,1.165 -2.955,0.809 -2.244,0.099C-1.828,-0.316 -1.537,-0.809 -1.363,-1.331L-1.246,-1.772L0.1,-6.794C0.117,-6.854 0.125,-6.914 0.125,-6.971C0.125,-7.091 0.086,-7.208 0,-7.292L0,-7.294ZM-15.99,-8.335C-16.076,-8.419 -16.195,-8.459 -16.312,-8.458C-16.371,-8.458 -16.43,-8.45 -16.492,-8.434L-21.516,-7.084L-21.941,-6.97C-22.473,-6.795 -22.967,-6.503 -23.383,-6.088C-24.094,-5.379 -24.449,-4.445 -24.449,-3.515C-24.449,-2.583 -24.096,-1.652 -23.383,-0.941C-22.674,-0.232 -21.742,0.124 -20.811,0.123L-20.809,0.123C-19.879,0.123 -18.947,-0.232 -18.238,-0.941C-17.822,-1.357 -17.531,-1.85 -17.357,-2.372L-17.24,-2.811L-15.891,-7.835C-15.875,-7.896 -15.867,-7.954 -15.867,-8.011C-15.867,-8.131 -15.906,-8.249 -15.99,-8.334L-15.99,-8.335Z" style="fill:rgb(76,86,106);fill-rule:nonzero;"/>
                </g>
                <g transform="matrix(1,0,0,1,20.8477,36.5912)">
                    <path d="M0,-12.202L-4.857,-12.202L-6.707,-6.613L-3.365,-6.613L-5.334,-0.175L-5.09,0L1.732,-9.248L-1.637,-9.248L0,-12.202Z" style="fill:rgb(208,135,112);fill-rule:nonzero;"/>
                </g>
                <g transform="matrix(1,0,0,1,30.0273,16.4324)">
                    <path d="M0,-5.761C-0.57,-9.831 -4.035,-12.972 -8.254,-13.02C-8.273,-13.021 -8.307,-13.024 -8.352,-13.024C-12.066,-13.024 -15.211,-10.625 -16.342,-7.294C-18.381,-6.809 -20.043,-5.37 -20.842,-3.474C-23.674,-3.32 -25.922,-0.981 -25.924,1.887C-25.922,3.767 -24.955,5.416 -23.496,6.375C-23.283,5.788 -22.945,5.246 -22.488,4.79C-22.008,4.31 -21.432,3.955 -20.773,3.74L-20.754,3.734L-20.734,3.729L-20.311,3.615L-15.287,2.266C-15.174,2.234 -15.051,2.218 -14.93,2.218C-14.615,2.218 -14.326,2.334 -14.113,2.546C-13.902,2.759 -13.787,3.049 -13.787,3.362C-13.787,3.475 -13.803,3.596 -13.838,3.715L-14.791,7.263L-7.447,7.263C-7.234,6.733 -6.914,6.248 -6.498,5.831C-6.016,5.35 -5.439,4.997 -4.783,4.781L-4.764,4.774L-4.744,4.768L-4.316,4.655L0.705,3.306C0.809,3.276 0.936,3.258 1.062,3.258C1.379,3.258 1.664,3.373 1.877,3.585C2.088,3.795 2.205,4.086 2.203,4.403C2.203,4.517 2.188,4.638 2.154,4.756L1.594,6.843C4.088,5.925 5.867,3.544 5.869,0.732C5.867,-2.651 3.295,-5.428 0,-5.761" style="fill:rgb(46,52,64);fill-rule:nonzero;"/>
                </g>
            </g>
        </g>
    </g>
</svg>
