<?xml version="1.0" encoding="UTF-8" standalone="no"?>
<!DOCTYPE svg PUBLIC "-//W3C//DTD SVG 1.1//EN" "http://www.w3.org/Graphics/SVG/1.1/DTD/svg11.dtd">
<svg width="100%" height="100%" viewBox="0 0 40 40" version="1.1" xmlns="http://www.w3.org/2000/svg" xmlns:xlink="http://www.w3.org/1999/xlink" xml:space="preserve" xmlns:serif="http://www.serif.com/" style="fill-rule:evenodd;clip-rule:evenodd;stroke-linejoin:round;stroke-miterlimit:2;">
    <g transform="matrix(1,0,0,1,-135,0)">
        <g id="svg_cloud_and_sun" transform="matrix(1,0,0,1,135,0)">
            <rect x="0" y="0" width="40" height="40" style="fill:none;"/>
            <g id="Weather-Icons" serif:id="Weather Icons">
                <g transform="matrix(1,0,0,1,29.1582,26.3749)">
                    <path d="M0,-5.536C-0.549,-9.438 -3.875,-12.448 -7.918,-12.495C-7.936,-12.495 -7.969,-12.499 -8.012,-12.499C-11.572,-12.499 -14.592,-10.199 -15.676,-7.006C-17.633,-6.539 -19.225,-5.161 -19.99,-3.344C-22.707,-3.192 -24.863,-0.949 -24.863,1.802C-24.863,4.532 -22.742,6.76 -20.061,6.944L-20.061,6.963L-0.203,6.963L-0.203,6.939C3.053,6.712 5.623,4.007 5.625,0.695C5.623,-2.551 3.158,-5.214 0,-5.536" style="fill:rgb(76,86,106);fill-rule:nonzero;"/>
                </g>
                <g transform="matrix(1,0,0,1,34.2441,10.9563)">
                    <path d="M0,6.824L-1.187,6.824C-1.471,5.428 -2.02,4.132 -2.781,2.985L-1.939,2.143C-1.656,1.859 -1.512,1.483 -1.512,1.109C-1.512,0.735 -1.656,0.36 -1.939,0.076L-2.908,-0.893L-3.029,-0.771L-2.908,-0.893C-3.193,-1.177 -3.57,-1.32 -3.943,-1.32C-4.318,-1.32 -4.691,-1.178 -4.979,-0.893L-5.816,-0.053C-6.961,-0.814 -8.26,-1.363 -9.656,-1.644L-9.656,-2.831C-9.656,-3.638 -10.313,-4.293 -11.117,-4.294L-12.486,-4.294C-13.293,-4.293 -13.949,-3.638 -13.949,-2.831L-13.949,-1.644C-15.344,-1.363 -16.645,-0.814 -17.787,-0.052L-18.629,-0.893C-18.914,-1.178 -19.291,-1.321 -19.664,-1.32C-20.039,-1.321 -20.412,-1.178 -20.699,-0.893L-21.666,0.075C-21.951,0.36 -22.094,0.735 -22.094,1.109C-22.094,1.483 -21.951,1.859 -21.666,2.143L-20.824,2.983C-21.586,4.131 -22.137,5.428 -22.418,6.824L-23.604,6.824C-24.412,6.824 -25.068,7.479 -25.07,8.286L-25.07,9.656C-25.068,9.912 -24.996,10.151 -24.881,10.36C-23.99,9.165 -22.734,8.267 -21.291,7.837C-19.984,4.466 -16.738,2.227 -13.098,2.227C-13.057,2.227 -13.021,2.228 -12.994,2.229C-8.871,2.278 -5.303,5.267 -4.49,9.266C-3.086,9.517 -1.846,10.179 -0.879,11.118L0,11.118C0.805,11.117 1.459,10.461 1.461,9.656L1.461,8.286C1.459,7.479 0.805,6.824 0,6.824" style="fill:rgb(235,203,139);fill-rule:nonzero;"/>
                </g>
            </g>
        </g>
    </g>
</svg>
