<?xml version="1.0" encoding="UTF-8" standalone="no"?>
<!DOCTYPE svg PUBLIC "-//W3C//DTD SVG 1.1//EN" "http://www.w3.org/Graphics/SVG/1.1/DTD/svg11.dtd">
<svg width="100%" height="100%" viewBox="0 0 40 40" version="1.1" xmlns="http://www.w3.org/2000/svg" xmlns:xlink="http://www.w3.org/1999/xlink" xml:space="preserve" xmlns:serif="http://www.serif.com/" style="fill-rule:evenodd;clip-rule:evenodd;stroke-linejoin:round;stroke-miterlimit:2;">
    <g transform="matrix(1,0,0,1,-45,0)">
        <g id="svg_rain" transform="matrix(1,0,0,1,45,0)">
            <rect x="0" y="0" width="40" height="40" style="fill:none;"/>
            <g id="Weather-Icons" serif:id="Weather Icons">
                <g transform="matrix(1,0,0,1,20.4922,27.7266)">
                    <path d="M0,0.481L-0.002,0.481C-0.068,0.415 -0.16,0.385 -0.246,0.386C-0.287,0.386 -0.328,0.391 -0.373,0.403L-3.418,1.221L-3.68,1.29C-4.016,1.401 -4.324,1.583 -4.586,1.844C-5.029,2.288 -5.252,2.873 -5.252,3.455C-5.252,4.037 -5.029,4.62 -4.586,5.064C-4.143,5.508 -3.557,5.73 -2.975,5.73C-2.393,5.73 -1.811,5.508 -1.365,5.065C-1.104,4.804 -0.924,4.496 -0.814,4.169L-0.742,3.899L0.078,0.85C0.088,0.807 0.094,0.765 0.094,0.724C0.096,0.638 0.064,0.548 0,0.483L0,0.481ZM10.92,-4.085C10.836,-4.169 10.719,-4.21 10.598,-4.208C10.541,-4.208 10.48,-4.2 10.42,-4.182L5.398,-2.835L4.971,-2.72C4.437,-2.545 3.943,-2.254 3.529,-1.837C2.818,-1.127 2.463,-0.196 2.463,0.735C2.463,1.665 2.818,2.598 3.529,3.309C4.238,4.018 5.172,4.374 6.102,4.374C7.035,4.374 7.965,4.018 8.676,3.309C9.092,2.893 9.383,2.402 9.555,1.879L9.672,1.438L11.021,-3.585C11.039,-3.644 11.045,-3.703 11.045,-3.761C11.047,-3.881 11.006,-3.999 10.92,-4.083L10.92,-4.085ZM-5.07,-5.124C-5.156,-5.208 -5.275,-5.249 -5.393,-5.249C-5.451,-5.249 -5.51,-5.241 -5.57,-5.224L-10.596,-3.874L-11.021,-3.761C-11.553,-3.586 -12.047,-3.294 -12.463,-2.878C-13.174,-2.169 -13.529,-1.235 -13.529,-0.304C-13.529,0.626 -13.174,1.558 -12.463,2.269C-11.752,2.978 -10.82,3.333 -9.889,3.333C-8.957,3.333 -8.027,2.977 -7.316,2.269C-6.9,1.853 -6.611,1.362 -6.437,0.838L-6.318,0.399L-4.971,-4.626C-4.955,-4.685 -4.945,-4.744 -4.945,-4.8C-4.945,-4.921 -4.986,-5.04 -5.07,-5.124" style="fill:rgb(76,86,106);fill-rule:nonzero;"/>
                </g>
                <g transform="matrix(1,0,0,1,30.0273,19.5661)">
                    <path d="M0,-5.759C-0.568,-9.831 -4.035,-12.971 -8.252,-13.018C-8.271,-13.019 -8.309,-13.023 -8.352,-13.023C-12.064,-13.023 -15.211,-10.624 -16.34,-7.293C-18.381,-6.808 -20.045,-5.369 -20.842,-3.472C-23.674,-3.318 -25.922,-0.981 -25.924,1.888C-25.922,3.769 -24.955,5.418 -23.494,6.376C-23.281,5.788 -22.945,5.247 -22.488,4.791C-22.008,4.31 -21.43,3.957 -20.771,3.741L-20.754,3.735L-20.734,3.73L-20.311,3.617L-15.287,2.267C-15.174,2.235 -15.051,2.218 -14.928,2.218C-14.613,2.218 -14.326,2.336 -14.113,2.547C-13.902,2.759 -13.785,3.05 -13.787,3.364C-13.787,3.476 -13.803,3.596 -13.838,3.716L-14.791,7.264L-7.449,7.264C-7.234,6.736 -6.914,6.249 -6.498,5.832C-6.014,5.351 -5.437,4.998 -4.783,4.781L-4.762,4.774L-4.742,4.769L-4.316,4.656L0.705,3.307C0.809,3.277 0.936,3.259 1.062,3.259C1.377,3.259 1.666,3.375 1.875,3.586C2.088,3.798 2.205,4.087 2.205,4.404C2.205,4.518 2.188,4.639 2.154,4.758L1.594,6.845C4.088,5.925 5.867,3.546 5.869,0.734C5.867,-2.649 3.295,-5.426 0,-5.759" style="fill:rgb(46,52,64);fill-rule:nonzero;stroke:rgb(46,52,64);stroke-width:1px;"/>
                </g>
            </g>
        </g>
    </g>
</svg>
