<?xml version="1.0" encoding="UTF-8" standalone="no"?>
<!DOCTYPE svg PUBLIC "-//W3C//DTD SVG 1.1//EN" "http://www.w3.org/Graphics/SVG/1.1/DTD/svg11.dtd">
<svg width="100%" height="100%" viewBox="0 0 40 40" version="1.1" xmlns="http://www.w3.org/2000/svg" xmlns:xlink="http://www.w3.org/1999/xlink" xml:space="preserve" xmlns:serif="http://www.serif.com/" style="fill-rule:evenodd;clip-rule:evenodd;stroke-linejoin:round;stroke-miterlimit:2;">
    <rect id="svg_sunny" x="0" y="0" width="40" height="40" style="fill:none;"/>
    <g id="svg_sunny1" serif:id="svg_sunny">
        <g transform="matrix(1,0,0,1,33.3896,22.4135)">
            <g id="Weather-Icons" serif:id="Weather Icons">
                <path d="M0,-4.827L-1.365,-4.827C-1.684,-6.421 -2.311,-7.902 -3.182,-9.208L-2.215,-10.176C-1.896,-10.495 -1.736,-10.915 -1.736,-11.333C-1.736,-11.752 -1.896,-12.172 -2.215,-12.49L-3.313,-13.59L-3.436,-13.468L-3.313,-13.59C-3.633,-13.907 -4.053,-14.067 -4.471,-14.067C-4.889,-14.067 -5.309,-13.907 -5.627,-13.59L-6.596,-12.622C-7.9,-13.493 -9.383,-14.12 -10.979,-14.438L-10.979,-15.806C-10.979,-16.706 -11.713,-17.44 -12.613,-17.44L-14.166,-17.44C-15.066,-17.44 -15.803,-16.706 -15.803,-15.806L-15.803,-14.437C-17.396,-14.12 -18.879,-13.493 -20.184,-12.622L-21.152,-13.59C-21.471,-13.907 -21.891,-14.068 -22.311,-14.068C-22.729,-14.068 -23.148,-13.908 -23.465,-13.59L-23.467,-13.59L-24.564,-12.49C-24.883,-12.172 -25.043,-11.752 -25.043,-11.334C-25.043,-10.915 -24.883,-10.496 -24.564,-10.177L-23.598,-9.21C-24.469,-7.903 -25.094,-6.422 -25.412,-4.827L-26.781,-4.827C-27.682,-4.827 -28.418,-4.091 -28.418,-3.189L-28.418,-1.637C-28.418,-0.735 -27.682,0 -26.781,0.001L-25.412,0.001C-25.094,1.594 -24.469,3.075 -23.598,4.381L-24.564,5.349C-24.883,5.667 -25.043,6.087 -25.043,6.506C-25.043,6.923 -24.883,7.344 -24.564,7.662L-23.467,8.762C-23.148,9.079 -22.729,9.239 -22.311,9.239L-22.307,9.239C-21.889,9.239 -21.471,9.077 -21.152,8.762L-20.184,7.793C-18.879,8.665 -17.396,9.291 -15.805,9.609L-15.805,10.978C-15.803,11.879 -15.066,12.612 -14.166,12.613L-12.613,12.613C-11.713,12.612 -10.979,11.879 -10.979,10.978L-10.979,9.609C-9.383,9.291 -7.9,8.665 -6.596,7.793L-5.627,8.761C-5.309,9.077 -4.889,9.239 -4.471,9.238C-4.053,9.238 -3.633,9.077 -3.313,8.761L-2.215,7.662C-1.896,7.344 -1.736,6.923 -1.736,6.505C-1.736,6.087 -1.896,5.666 -2.215,5.348L-3.182,4.381C-2.311,3.075 -1.684,1.594 -1.365,0.001L0,0.001C0.902,0 1.639,-0.735 1.639,-1.637L1.639,-3.189C1.637,-4.091 0.902,-4.827 0,-4.827" style="fill:rgb(235,203,139);fill-rule:nonzero;"/>
            </g>
        </g>
    </g>
</svg>
