<?xml version="1.0" encoding="UTF-8" standalone="no"?>
<!DOCTYPE svg PUBLIC "-//W3C//DTD SVG 1.1//EN" "http://www.w3.org/Graphics/SVG/1.1/DTD/svg11.dtd">
<svg width="100%" height="100%" viewBox="0 0 40 40" version="1.1" xmlns="http://www.w3.org/2000/svg" xmlns:xlink="http://www.w3.org/1999/xlink" xml:space="preserve" xmlns:serif="http://www.serif.com/" style="fill-rule:evenodd;clip-rule:evenodd;stroke-linejoin:round;stroke-miterlimit:2;">
    <g transform="matrix(1,0,0,1,-270,0)">
        <g id="svg_rain_night" transform="matrix(1,0,0,1,270,0)">
            <rect x="0" y="0" width="40" height="40" style="fill:none;"/>
            <g id="Weather-Icons" serif:id="Weather Icons">
                <g transform="matrix(1,0,0,1,20.2066,30.8521)">
                    <path d="M0,0.461L0,0.459C-0.064,0.396 -0.15,0.369 -0.234,0.37C-0.273,0.37 -0.313,0.374 -0.354,0.387L-3.275,1.17L-3.523,1.235C-3.846,1.343 -4.141,1.518 -4.393,1.767C-4.818,2.191 -5.029,2.752 -5.029,3.31C-5.029,3.867 -4.818,4.426 -4.393,4.853C-3.967,5.278 -3.406,5.49 -2.85,5.49C-2.291,5.49 -1.732,5.278 -1.307,4.853C-1.057,4.602 -0.881,4.308 -0.777,3.994L-0.711,3.734L0.074,0.814C0.086,0.773 0.09,0.734 0.09,0.694C0.092,0.611 0.066,0.526 0,0.461M10.465,-3.915C10.387,-3.994 10.271,-4.033 10.156,-4.033C10.103,-4.033 10.047,-4.024 9.986,-4.009L5.174,-2.717L4.766,-2.607C4.254,-2.437 3.781,-2.159 3.383,-1.762C2.703,-1.08 2.361,-0.186 2.361,0.704C2.361,1.596 2.701,2.488 3.383,3.17C4.064,3.851 4.957,4.191 5.848,4.191C6.742,4.191 7.635,3.851 8.314,3.17C8.711,2.772 8.992,2.3 9.158,1.801L9.269,1.379L10.562,-3.435C10.578,-3.492 10.586,-3.549 10.586,-3.603C10.586,-3.719 10.549,-3.833 10.465,-3.913L10.465,-3.915ZM-4.857,-4.91C-4.939,-4.992 -5.051,-5.029 -5.168,-5.029C-5.223,-5.029 -5.279,-5.022 -5.338,-5.007L-10.15,-3.713L-10.559,-3.603C-11.068,-3.436 -11.541,-3.156 -11.939,-2.758C-12.621,-2.078 -12.961,-1.184 -12.961,-0.291C-12.961,0.6 -12.623,1.492 -11.939,2.174C-11.26,2.854 -10.367,3.194 -9.475,3.194L-9.473,3.194C-8.58,3.194 -7.689,2.852 -7.008,2.174C-6.611,1.775 -6.332,1.304 -6.166,0.804L-6.053,0.382L-4.76,-4.432C-4.746,-4.489 -4.738,-4.547 -4.738,-4.6C-4.738,-4.716 -4.775,-4.828 -4.857,-4.91" style="fill:rgb(76,86,106);fill-rule:nonzero;"/>
                </g>
                <g transform="matrix(1,0,0,1,34.7691,10.6324)">
                    <path d="M0,1.711C-2.221,-4.661 -8.92,-8.192 -15.34,-6.591C-11.705,-6.324 -8.35,-4.263 -6.51,-1C-6.41,-1.049 -6.307,-1.096 -6.199,-1.135C-4.869,-1.598 -3.416,-0.896 -2.953,0.434C-2.49,1.763 -3.191,3.215 -4.521,3.679C-4.711,3.744 -4.902,3.785 -5.094,3.805C-5.064,4.289 -5.072,4.769 -5.107,5.246C-4.996,5.579 -4.898,5.917 -4.826,6.266C-2.65,6.653 -0.859,8.031 0.111,9.903C0.936,7.323 0.961,4.464 0,1.711" style="fill:rgb(199,146,96);fill-rule:nonzero;"/>
                </g>
                <g transform="matrix(1,0,0,1,29.3453,23.0333)">
                    <path d="M0,-5.52C-0.545,-9.419 -3.867,-12.427 -7.91,-12.475C-7.928,-12.475 -7.959,-12.479 -8.002,-12.479C-11.561,-12.479 -14.576,-10.18 -15.658,-6.99C-17.611,-6.523 -19.205,-5.146 -19.971,-3.328C-22.686,-3.179 -24.84,-0.941 -24.84,1.809C-24.84,3.611 -23.912,5.19 -22.512,6.109C-22.309,5.545 -21.986,5.028 -21.547,4.59C-21.088,4.129 -20.535,3.791 -19.902,3.584L-19.887,3.579L-19.869,3.574L-19.461,3.465L-14.646,2.172C-14.539,2.141 -14.424,2.126 -14.307,2.126C-14.002,2.126 -13.727,2.237 -13.525,2.439C-13.32,2.644 -13.211,2.922 -13.211,3.223C-13.211,3.331 -13.229,3.446 -13.26,3.561L-14.172,6.959L-7.137,6.959C-6.932,6.454 -6.625,5.987 -6.225,5.586C-5.766,5.126 -5.211,4.788 -4.582,4.581L-4.564,4.575L-4.543,4.57L-4.137,4.459L0.674,3.168C0.775,3.138 0.896,3.121 1.018,3.121C1.32,3.121 1.596,3.233 1.797,3.435C2,3.637 2.113,3.916 2.111,4.219C2.111,4.331 2.096,4.446 2.064,4.558L1.527,6.558C3.916,5.677 5.621,3.396 5.621,0.702C5.621,-2.539 3.156,-5.2 0,-5.52" style="fill:rgb(46,52,64);fill-rule:nonzero;"/>
                </g>
            </g>
        </g>
    </g>
</svg>
