<?xml version="1.0" encoding="UTF-8" standalone="no"?>
<!DOCTYPE svg PUBLIC "-//W3C//DTD SVG 1.1//EN" "http://www.w3.org/Graphics/SVG/1.1/DTD/svg11.dtd">
<svg width="100%" height="100%" viewBox="0 0 40 40" version="1.1" xmlns="http://www.w3.org/2000/svg" xmlns:xlink="http://www.w3.org/1999/xlink" xml:space="preserve" xmlns:serif="http://www.serif.com/" style="fill-rule:evenodd;clip-rule:evenodd;stroke-linejoin:round;stroke-miterlimit:2;">
    <g transform="matrix(1,0,0,1,-315,0)">
        <g id="svg_cloudy_night" transform="matrix(1,0,0,1,315,0)">
            <rect x="0" y="0" width="40" height="40" style="fill:none;"/>
            <g id="Weather-Icons" serif:id="Weather Icons">
                <g transform="matrix(1,0,0,1,34.768,13.7906)">
                    <path d="M0,1.711C-2.221,-4.661 -8.922,-8.191 -15.342,-6.59C-11.707,-6.324 -8.35,-4.262 -6.512,-0.999C-6.412,-1.049 -6.309,-1.096 -6.199,-1.135C-4.871,-1.597 -3.418,-0.894 -2.955,0.433C-2.49,1.763 -3.193,3.216 -4.523,3.679C-4.713,3.745 -4.904,3.785 -5.094,3.805C-5.064,4.289 -5.074,4.77 -5.107,5.247C-4.998,5.579 -4.898,5.918 -4.828,6.266C-2.652,6.653 -0.861,8.032 0.109,9.902C0.934,7.323 0.959,4.465 0,1.711" style="fill:rgb(199,146,96);fill-rule:nonzero;"/>
                </g>
                <g transform="matrix(1,0,0,1,29.3695,26.2202)">
                    <path d="M0,-5.537C-0.547,-9.439 -3.871,-12.45 -7.916,-12.496C-7.934,-12.496 -7.965,-12.5 -8.01,-12.5C-11.568,-12.5 -14.59,-10.2 -15.674,-7.006C-17.627,-6.539 -19.223,-5.162 -19.99,-3.345C-22.703,-3.193 -24.861,-0.951 -24.861,1.801C-24.861,4.531 -22.74,6.758 -20.059,6.943L-20.059,6.963L-0.199,6.963L-0.199,6.938C3.055,6.712 5.627,4.007 5.627,0.693C5.627,-2.551 3.16,-5.214 0,-5.537" style="fill:rgb(76,86,106);fill-rule:nonzero;"/>
                </g>
            </g>
        </g>
    </g>
</svg>
