<?xml version="1.0" encoding="UTF-8" standalone="no"?>
<!DOCTYPE svg PUBLIC "-//W3C//DTD SVG 1.1//EN" "http://www.w3.org/Graphics/SVG/1.1/DTD/svg11.dtd">
<svg width="100%" height="100%" viewBox="0 0 41 41" version="1.1" xmlns="http://www.w3.org/2000/svg" xmlns:xlink="http://www.w3.org/1999/xlink" xml:space="preserve" xmlns:serif="http://www.serif.com/" style="fill-rule:evenodd;clip-rule:evenodd;stroke-linejoin:round;stroke-miterlimit:2;">
    <g transform="matrix(1,0,0,1,-270,-44)">
        <g id="svg_risk_of_rain" transform="matrix(1,0,0,1,270.3,44.6998)">
            <rect x="0" y="0" width="40" height="40" style="fill:none;"/>
            <g transform="matrix(1,0,0,1,20.8018,33.6148)">
                <g id="Weather-Icons" serif:id="Weather Icons">
                    <path d="M0,-27.23L0,-28.128L-0.045,-28.128C-0.141,-28.409 -0.4,-28.616 -0.719,-28.616C-1.037,-28.616 -1.297,-28.409 -1.391,-28.128L-1.437,-28.128L-1.437,-27.239C-8.506,-26.939 -14.23,-21.74 -14.941,-15.124L-14.602,-15.064C-14.246,-16.553 -12.91,-17.662 -11.313,-17.66C-9.672,-17.662 -8.314,-16.487 -8.004,-14.935L-7.977,-14.794L-7.625,-14.794L-7.6,-14.935C-7.291,-16.487 -5.934,-17.662 -4.293,-17.662C-3.084,-17.662 -2.033,-17.024 -1.437,-16.071L-1.437,-1.48C-1.439,-0.669 -2.063,-0.052 -2.775,-0.05C-3.488,-0.052 -4.107,-0.669 -4.109,-1.482C-4.111,-1.878 -4.432,-2.201 -4.83,-2.201C-5.168,-2.201 -5.451,-1.968 -5.527,-1.655L-5.551,-1.655L-5.551,-1.48C-5.549,0.079 -4.332,1.381 -2.775,1.386C-1.217,1.381 -0.002,0.079 0,-1.48L0,-16.261C0.611,-17.109 1.602,-17.662 2.729,-17.66C4.369,-17.662 5.727,-16.487 6.035,-14.935L6.062,-14.794L6.412,-14.794L6.441,-14.935C6.75,-16.487 8.105,-17.662 9.748,-17.662C11.291,-17.662 12.59,-16.628 12.998,-15.216L13.338,-15.287C12.557,-21.781 6.939,-26.869 0,-27.23" style="fill:rgb(180,142,173);fill-rule:nonzero;"/>
                </g>
            </g>
        </g>
    </g>
</svg>
